<?xml version="1.0" encoding="utf-8"?>
<!-- Generator: Adobe Illustrator 27.5.0, SVG Export Plug-In . SVG Version: 6.00 Build 0)  -->
<svg version="1.1" xmlns="http://www.w3.org/2000/svg" xmlns:xlink="http://www.w3.org/1999/xlink" x="0px" y="0px"
	 viewBox="0 0 500 500" style="enable-background:new 0 0 500 500;" xml:space="preserve">
<g id="Background_Simple">
	<g>
		<path style="fill:#C6FF00;" d="M448.596,103.835c0,0-29.055-58.167-93.219-66.785c-64.163-8.618-108.957,33.392-156.172,54.936
			c-24.726,11.282-52.967,6.9-79.216,12.361C36.059,121.808,4.441,231.204,39.402,293.417
			c30.266,53.858,83.534,81.865,164.646,88.328c81.112,6.463,138.012,14.003,210.65-38.778
			C487.336,290.186,482.494,180.314,448.596,103.835z"/>
		<path style="opacity:0.7;fill:#FFFFFF;" d="M448.596,103.835c0,0-29.055-58.167-93.219-66.785
			c-64.163-8.618-108.957,33.392-156.172,54.936c-24.726,11.282-52.967,6.9-79.216,12.361
			C36.059,121.808,4.441,231.204,39.402,293.417c30.266,53.858,83.534,81.865,164.646,88.328
			c81.112,6.463,138.012,14.003,210.65-38.778C487.336,290.186,482.494,180.314,448.596,103.835z"/>
	</g>
</g>
<g id="Floor">
	<ellipse style="fill:#C6FF00;" cx="278.185" cy="439.336" rx="201.918" ry="11.031"/>
	<ellipse style="opacity:0.5;fill:#FFFFFF;" cx="278.185" cy="439.336" rx="201.918" ry="11.031"/>
</g>
<g id="Products">
	<g>
		<polyline style="fill:none;stroke:#92989B;stroke-miterlimit:10;" points="439.147,160.511 83.111,160.511 83.111,180.511 
			459,180.511 		"/>
		<polyline style="fill:none;stroke:#92989B;stroke-miterlimit:10;" points="439.147,221.511 83.111,221.511 83.111,241.511 
			459,241.511 		"/>
		<polyline style="fill:none;stroke:#92989B;stroke-miterlimit:10;" points="439.147,282.511 83.111,282.511 83.111,302.511 
			459,302.511 		"/>
		<polyline style="fill:none;stroke:#92989B;stroke-miterlimit:10;" points="439.147,343.511 83.111,343.511 83.111,363.511 
			459,363.511 		"/>
		<polyline style="fill:none;stroke:#92989B;stroke-miterlimit:10;" points="439.147,405.012 83.111,405.012 83.111,425.012 
			459,425.012 		"/>
		<rect x="92.647" y="130.776" style="fill:none;stroke:#92989B;stroke-miterlimit:10;" width="41.547" height="29.77"/>
		<rect x="117.333" y="130.776" style="fill:none;stroke:#92989B;stroke-miterlimit:10;" width="16.861" height="29.77"/>
		<rect x="136.313" y="130.776" style="fill:none;stroke:#92989B;stroke-miterlimit:10;" width="41.548" height="29.77"/>
		<rect x="161" y="130.776" style="fill:none;stroke:#92989B;stroke-miterlimit:10;" width="16.861" height="29.77"/>
		<rect x="179.98" y="130.776" style="fill:none;stroke:#92989B;stroke-miterlimit:10;" width="41.547" height="29.77"/>
		<rect x="204.667" y="130.776" style="fill:none;stroke:#92989B;stroke-miterlimit:10;" width="16.861" height="29.77"/>
		<rect x="223.647" y="130.776" style="fill:none;stroke:#92989B;stroke-miterlimit:10;" width="41.548" height="29.77"/>
		<rect x="248.333" y="130.776" style="fill:none;stroke:#92989B;stroke-miterlimit:10;" width="16.861" height="29.77"/>
		<rect x="267.313" y="130.776" style="fill:none;stroke:#92989B;stroke-miterlimit:10;" width="41.548" height="29.77"/>
		<rect x="292" y="130.776" style="fill:none;stroke:#92989B;stroke-miterlimit:10;" width="16.861" height="29.77"/>
		<rect x="310.98" y="130.776" style="fill:none;stroke:#92989B;stroke-miterlimit:10;" width="41.547" height="29.77"/>
		<rect x="335.667" y="130.776" style="fill:none;stroke:#92989B;stroke-miterlimit:10;" width="16.861" height="29.77"/>
		<rect x="354.647" y="130.776" style="fill:none;stroke:#92989B;stroke-miterlimit:10;" width="41.548" height="29.77"/>
		<rect x="379.333" y="130.776" style="fill:none;stroke:#92989B;stroke-miterlimit:10;" width="16.861" height="29.77"/>
		<rect x="86.333" y="197.844" style="fill:none;stroke:#92989B;stroke-miterlimit:10;" width="13.667" height="24"/>
		<rect x="86.333" y="190.844" style="fill:none;stroke:#92989B;stroke-miterlimit:10;" width="13.667" height="7"/>
		<rect x="102.333" y="197.844" style="fill:none;stroke:#92989B;stroke-miterlimit:10;" width="13.667" height="24"/>
		<rect x="102.333" y="190.844" style="fill:none;stroke:#92989B;stroke-miterlimit:10;" width="13.667" height="7"/>
		<rect x="118.333" y="197.844" style="fill:none;stroke:#92989B;stroke-miterlimit:10;" width="13.667" height="24"/>
		<rect x="118.333" y="190.844" style="fill:none;stroke:#92989B;stroke-miterlimit:10;" width="13.667" height="7"/>
		<rect x="134.333" y="197.844" style="fill:none;stroke:#92989B;stroke-miterlimit:10;" width="13.667" height="24"/>
		<rect x="134.333" y="190.844" style="fill:none;stroke:#92989B;stroke-miterlimit:10;" width="13.667" height="7"/>
		<rect x="150.333" y="197.844" style="fill:none;stroke:#92989B;stroke-miterlimit:10;" width="13.667" height="24"/>
		<rect x="150.333" y="190.844" style="fill:none;stroke:#92989B;stroke-miterlimit:10;" width="13.667" height="7"/>
		<rect x="166.333" y="197.844" style="fill:none;stroke:#92989B;stroke-miterlimit:10;" width="13.667" height="24"/>
		<rect x="166.333" y="190.844" style="fill:none;stroke:#92989B;stroke-miterlimit:10;" width="13.667" height="7"/>
		<rect x="182.333" y="197.844" style="fill:none;stroke:#92989B;stroke-miterlimit:10;" width="13.667" height="24"/>
		<rect x="182.333" y="190.844" style="fill:none;stroke:#92989B;stroke-miterlimit:10;" width="13.667" height="7"/>
		<rect x="198.333" y="197.844" style="fill:none;stroke:#92989B;stroke-miterlimit:10;" width="13.667" height="24"/>
		<rect x="198.333" y="190.844" style="fill:none;stroke:#92989B;stroke-miterlimit:10;" width="13.667" height="7"/>
		<rect x="214.333" y="197.844" style="fill:none;stroke:#92989B;stroke-miterlimit:10;" width="13.667" height="24"/>
		<rect x="214.333" y="190.844" style="fill:none;stroke:#92989B;stroke-miterlimit:10;" width="13.667" height="7"/>
		<rect x="230.333" y="197.844" style="fill:none;stroke:#92989B;stroke-miterlimit:10;" width="13.667" height="24"/>
		<rect x="230.333" y="190.844" style="fill:none;stroke:#92989B;stroke-miterlimit:10;" width="13.667" height="7"/>
		<rect x="246.333" y="197.844" style="fill:none;stroke:#92989B;stroke-miterlimit:10;" width="13.667" height="24"/>
		<rect x="246.333" y="190.844" style="fill:none;stroke:#92989B;stroke-miterlimit:10;" width="13.667" height="7"/>
		<rect x="262.333" y="197.844" style="fill:none;stroke:#92989B;stroke-miterlimit:10;" width="13.667" height="24"/>
		<rect x="262.333" y="190.844" style="fill:none;stroke:#92989B;stroke-miterlimit:10;" width="13.667" height="7"/>
		<rect x="278.333" y="197.844" style="fill:none;stroke:#92989B;stroke-miterlimit:10;" width="13.667" height="24"/>
		<rect x="278.333" y="190.844" style="fill:none;stroke:#92989B;stroke-miterlimit:10;" width="13.667" height="7"/>
		<rect x="294.333" y="197.844" style="fill:none;stroke:#92989B;stroke-miterlimit:10;" width="13.667" height="24"/>
		<rect x="294.333" y="190.844" style="fill:none;stroke:#92989B;stroke-miterlimit:10;" width="13.667" height="7"/>
		<rect x="310.333" y="197.844" style="fill:none;stroke:#92989B;stroke-miterlimit:10;" width="13.667" height="24"/>
		<rect x="310.333" y="190.844" style="fill:none;stroke:#92989B;stroke-miterlimit:10;" width="13.667" height="7"/>
		<rect x="326.333" y="197.844" style="fill:none;stroke:#92989B;stroke-miterlimit:10;" width="13.667" height="24"/>
		<rect x="326.333" y="190.844" style="fill:none;stroke:#92989B;stroke-miterlimit:10;" width="13.667" height="7"/>
		<rect x="342.333" y="197.844" style="fill:none;stroke:#92989B;stroke-miterlimit:10;" width="13.667" height="24"/>
		<rect x="342.333" y="190.844" style="fill:none;stroke:#92989B;stroke-miterlimit:10;" width="13.667" height="7"/>
		<rect x="358.333" y="197.844" style="fill:none;stroke:#92989B;stroke-miterlimit:10;" width="13.667" height="24"/>
		<rect x="358.333" y="190.844" style="fill:none;stroke:#92989B;stroke-miterlimit:10;" width="13.667" height="7"/>
		<rect x="374.333" y="197.844" style="fill:none;stroke:#92989B;stroke-miterlimit:10;" width="13.667" height="24"/>
		<rect x="374.333" y="190.844" style="fill:none;stroke:#92989B;stroke-miterlimit:10;" width="13.667" height="7"/>
		<rect x="390.333" y="197.844" style="fill:none;stroke:#92989B;stroke-miterlimit:10;" width="13.667" height="24"/>
		<rect x="390.333" y="190.844" style="fill:none;stroke:#92989B;stroke-miterlimit:10;" width="13.667" height="7"/>
		<rect x="406.333" y="197.844" style="fill:none;stroke:#92989B;stroke-miterlimit:10;" width="13.667" height="24"/>
		<rect x="406.333" y="190.844" style="fill:none;stroke:#92989B;stroke-miterlimit:10;" width="13.667" height="7"/>
		<g>
			<path style="fill:none;stroke:#92989B;stroke-miterlimit:10;" d="M109.333,262.177H94c-3.682,0-6.667,2.985-6.667,6.667v13.333
				H116v-13.333C116,265.162,113.015,262.177,109.333,262.177z"/>
			<rect x="94" y="254.511" style="fill:none;stroke:#92989B;stroke-miterlimit:10;" width="16" height="7.667"/>
		</g>
		<g>
			<path style="fill:none;stroke:#92989B;stroke-miterlimit:10;" d="M109.333,323.844H94c-3.682,0-6.667,2.985-6.667,6.667v13.333
				H116v-13.333C116,326.829,113.015,323.844,109.333,323.844z"/>
			<rect x="94" y="316.177" style="fill:none;stroke:#92989B;stroke-miterlimit:10;" width="16" height="7.667"/>
		</g>
		<g>
			<path style="fill:none;stroke:#92989B;stroke-miterlimit:10;" d="M149.333,323.844H134c-3.682,0-6.667,2.985-6.667,6.667v13.333
				H156v-13.333C156,326.829,153.015,323.844,149.333,323.844z"/>
			<rect x="134" y="316.177" style="fill:none;stroke:#92989B;stroke-miterlimit:10;" width="16" height="7.667"/>
		</g>
		<g>
			<path style="fill:none;stroke:#92989B;stroke-miterlimit:10;" d="M189.333,323.844H174c-3.682,0-6.667,2.985-6.667,6.667v13.333
				H196v-13.333C196,326.829,193.015,323.844,189.333,323.844z"/>
			<rect x="174" y="316.177" style="fill:none;stroke:#92989B;stroke-miterlimit:10;" width="16" height="7.667"/>
		</g>
		<g>
			<path style="fill:none;stroke:#92989B;stroke-miterlimit:10;" d="M229.333,323.844H214c-3.682,0-6.667,2.985-6.667,6.667v13.333
				H236v-13.333C236,326.829,233.015,323.844,229.333,323.844z"/>
			<rect x="214" y="316.177" style="fill:none;stroke:#92989B;stroke-miterlimit:10;" width="16" height="7.667"/>
		</g>
		<g>
			<path style="fill:none;stroke:#92989B;stroke-miterlimit:10;" d="M269.333,323.844H254c-3.682,0-6.667,2.985-6.667,6.667v13.333
				H276v-13.333C276,326.829,273.015,323.844,269.333,323.844z"/>
			<rect x="254" y="316.177" style="fill:none;stroke:#92989B;stroke-miterlimit:10;" width="16" height="7.667"/>
		</g>
		<g>
			<path style="fill:none;stroke:#92989B;stroke-miterlimit:10;" d="M309.333,323.844H294c-3.682,0-6.667,2.985-6.667,6.667v13.333
				H316v-13.333C316,326.829,313.015,323.844,309.333,323.844z"/>
			<rect x="294" y="316.177" style="fill:none;stroke:#92989B;stroke-miterlimit:10;" width="16" height="7.667"/>
		</g>
		<g>
			<path style="fill:none;stroke:#92989B;stroke-miterlimit:10;" d="M141.333,262.177H126c-3.682,0-6.667,2.985-6.667,6.667v13.333
				H148v-13.333C148,265.162,145.015,262.177,141.333,262.177z"/>
			<rect x="126" y="254.511" style="fill:none;stroke:#92989B;stroke-miterlimit:10;" width="16" height="7.667"/>
		</g>
		<g>
			<path style="fill:none;stroke:#92989B;stroke-miterlimit:10;" d="M173.333,262.177H158c-3.682,0-6.667,2.985-6.667,6.667v13.333
				H180v-13.333C180,265.162,177.015,262.177,173.333,262.177z"/>
			<rect x="158" y="254.511" style="fill:none;stroke:#92989B;stroke-miterlimit:10;" width="16" height="7.667"/>
		</g>
		<g>
			<path style="fill:none;stroke:#92989B;stroke-miterlimit:10;" d="M205.333,262.177H190c-3.682,0-6.667,2.985-6.667,6.667v13.333
				H212v-13.333C212,265.162,209.015,262.177,205.333,262.177z"/>
			<rect x="190" y="254.511" style="fill:none;stroke:#92989B;stroke-miterlimit:10;" width="16" height="7.667"/>
		</g>
		<g>
			<path style="fill:none;stroke:#92989B;stroke-miterlimit:10;" d="M237.333,262.177H222c-3.682,0-6.667,2.985-6.667,6.667v13.333
				H244v-13.333C244,265.162,241.015,262.177,237.333,262.177z"/>
			<rect x="222" y="254.511" style="fill:none;stroke:#92989B;stroke-miterlimit:10;" width="16" height="7.667"/>
		</g>
		<g>
			<path style="fill:none;stroke:#92989B;stroke-miterlimit:10;" d="M269.333,262.177H254c-3.682,0-6.667,2.985-6.667,6.667v13.333
				H276v-13.333C276,265.162,273.015,262.177,269.333,262.177z"/>
			<rect x="254" y="254.511" style="fill:none;stroke:#92989B;stroke-miterlimit:10;" width="16" height="7.667"/>
		</g>
		<g>
			<path style="fill:none;stroke:#92989B;stroke-miterlimit:10;" d="M301.333,262.177H286c-3.682,0-6.667,2.985-6.667,6.667v13.333
				H308v-13.333C308,265.162,305.015,262.177,301.333,262.177z"/>
			<rect x="286" y="254.511" style="fill:none;stroke:#92989B;stroke-miterlimit:10;" width="16" height="7.667"/>
		</g>
		<g>
			<path style="fill:none;stroke:#92989B;stroke-miterlimit:10;" d="M333.333,262.177H318c-3.682,0-6.667,2.985-6.667,6.667v13.333
				H340v-13.333C340,265.162,337.015,262.177,333.333,262.177z"/>
			<rect x="318" y="254.511" style="fill:none;stroke:#92989B;stroke-miterlimit:10;" width="16" height="7.667"/>
		</g>
		<rect x="88.129" y="385.368" style="fill:none;stroke:#92989B;stroke-miterlimit:10;" width="49.167" height="19.481"/>
		<rect x="139.152" y="385.368" style="fill:none;stroke:#92989B;stroke-miterlimit:10;" width="49.167" height="19.481"/>
		<rect x="190.175" y="385.368" style="fill:none;stroke:#92989B;stroke-miterlimit:10;" width="49.167" height="19.481"/>
		<rect x="241.198" y="385.368" style="fill:none;stroke:#92989B;stroke-miterlimit:10;" width="49.167" height="19.481"/>
		<rect x="292.22" y="385.368" style="fill:none;stroke:#92989B;stroke-miterlimit:10;" width="49.167" height="19.481"/>
		<rect x="343.243" y="385.368" style="fill:none;stroke:#92989B;stroke-miterlimit:10;" width="49.167" height="19.481"/>
	</g>
</g>
<g id="Boxes">
	<g>
		<path style="fill:#263238;stroke:#263238;stroke-linecap:round;stroke-linejoin:round;stroke-miterlimit:10;" d="M273.216,421.489
			l0.531-4.778l-18.509-1.133l6.846,8.801c-0.859,1.328-1.363,2.907-1.363,4.606c0,4.693,3.804,8.497,8.497,8.497
			c4.693,0,8.497-3.804,8.497-8.497C277.714,425.738,275.892,422.919,273.216,421.489z"/>
		<path style="fill:#263238;stroke:#263238;stroke-linecap:round;stroke-linejoin:round;stroke-miterlimit:10;" d="M370.529,421.489
			l0.531-4.778l-18.509-1.133l6.846,8.801c-0.859,1.328-1.363,2.907-1.363,4.606c0,4.693,3.804,8.497,8.497,8.497
			c4.693,0,8.497-3.804,8.497-8.497C375.028,425.738,373.206,422.919,370.529,421.489z"/>
		<path style="fill:#263238;stroke:#263238;stroke-linecap:round;stroke-linejoin:round;stroke-miterlimit:10;" d="M451.311,421.489
			l0.531-4.778l-18.509-1.133l6.846,8.801c-0.859,1.328-1.363,2.907-1.363,4.606c0,4.693,3.804,8.497,8.497,8.497
			s8.497-3.804,8.497-8.497C455.809,425.738,453.987,422.919,451.311,421.489z"/>
		<g>
			<path style="fill:none;stroke:#263238;stroke-width:4;stroke-linecap:round;stroke-linejoin:round;stroke-miterlimit:10;" d="
				M278.018,196.981h-44.145c-8.391,0-15.193,6.802-15.193,15.192v165.81h74.53v-165.81
				C293.21,203.783,286.408,196.981,278.018,196.981z"/>
			
				<line style="fill:none;stroke:#263238;stroke-width:4;stroke-linecap:round;stroke-linejoin:round;stroke-miterlimit:10;" x1="218.68" y1="234.246" x2="293.21" y2="234.246"/>
			
				<line style="fill:none;stroke:#263238;stroke-width:4;stroke-linecap:round;stroke-linejoin:round;stroke-miterlimit:10;" x1="254.379" y1="234.559" x2="254.379" y2="377.357"/>
		</g>
		<g>
			<g>
				
					<rect x="251.514" y="330.095" style="fill:#C6FF00;stroke:#263238;stroke-linecap:round;stroke-linejoin:round;stroke-miterlimit:10;" width="83.445" height="66.495"/>
				
					<rect x="303.667" y="330.095" style="fill:#C6FF00;stroke:#263238;stroke-linecap:round;stroke-linejoin:round;stroke-miterlimit:10;" width="31.292" height="66.495"/>
			</g>
			<path style="fill:#263238;stroke:#263238;stroke-linecap:round;stroke-linejoin:round;stroke-miterlimit:10;" d="
				M283.458,347.045h-12.386c-2.88,0-5.215-2.335-5.215-5.215v0c0-2.88,2.335-5.215,5.215-5.215h12.386
				c2.88,0,5.215,2.335,5.215,5.215v0C288.673,344.71,286.338,347.045,283.458,347.045z"/>
		</g>
		<g>
			<g>
				
					<rect x="310.186" y="330.095" style="fill:#C6FF00;stroke:#263238;stroke-linecap:round;stroke-linejoin:round;stroke-miterlimit:10;" width="83.445" height="66.495"/>
				
					<rect x="362.34" y="330.095" style="fill:#C6FF00;stroke:#263238;stroke-linecap:round;stroke-linejoin:round;stroke-miterlimit:10;" width="31.292" height="66.495"/>
			</g>
			<path style="fill:#263238;stroke:#263238;stroke-linecap:round;stroke-linejoin:round;stroke-miterlimit:10;" d="M342.13,347.045
				h-12.386c-2.88,0-5.215-2.335-5.215-5.215v0c0-2.88,2.335-5.215,5.215-5.215h12.386c2.88,0,5.215,2.335,5.215,5.215v0
				C347.346,344.71,345.011,347.045,342.13,347.045z"/>
		</g>
		<g>
			<g>
				
					<rect x="271.666" y="264.045" style="fill:#C6FF00;stroke:#263238;stroke-linecap:round;stroke-linejoin:round;stroke-miterlimit:10;" width="83.445" height="66.495"/>
				
					<rect x="323.82" y="264.045" style="fill:#C6FF00;stroke:#263238;stroke-linecap:round;stroke-linejoin:round;stroke-miterlimit:10;" width="31.292" height="66.495"/>
			</g>
			<path style="fill:#263238;stroke:#263238;stroke-linecap:round;stroke-linejoin:round;stroke-miterlimit:10;" d="M303.61,280.995
				h-12.386c-2.88,0-5.215-2.335-5.215-5.215l0,0c0-2.88,2.335-5.215,5.215-5.215h12.386c2.88,0,5.215,2.335,5.215,5.215l0,0
				C308.826,278.66,306.49,280.995,303.61,280.995z"/>
		</g>
		<g>
			<g>
				
					<rect x="301.108" y="197.291" style="fill:#C6FF00;stroke:#263238;stroke-linecap:round;stroke-linejoin:round;stroke-miterlimit:10;" width="83.445" height="66.495"/>
				
					<rect x="353.261" y="197.291" style="fill:#C6FF00;stroke:#263238;stroke-linecap:round;stroke-linejoin:round;stroke-miterlimit:10;" width="31.292" height="66.495"/>
			</g>
			<path style="fill:#263238;stroke:#263238;stroke-linecap:round;stroke-linejoin:round;stroke-miterlimit:10;" d="
				M333.052,214.241h-12.386c-2.88,0-5.215-2.335-5.215-5.215l0,0c0-2.88,2.335-5.215,5.215-5.215h12.386
				c2.88,0,5.215,2.335,5.215,5.215l0,0C338.267,211.906,335.932,214.241,333.052,214.241z"/>
		</g>
		<g>
			<g>
				
					<rect x="329.966" y="264.045" style="fill:#C6FF00;stroke:#263238;stroke-linecap:round;stroke-linejoin:round;stroke-miterlimit:10;" width="83.445" height="66.495"/>
				
					<rect x="382.12" y="264.045" style="fill:#C6FF00;stroke:#263238;stroke-linecap:round;stroke-linejoin:round;stroke-miterlimit:10;" width="31.292" height="66.495"/>
			</g>
			<path style="fill:#263238;stroke:#263238;stroke-linecap:round;stroke-linejoin:round;stroke-miterlimit:10;" d="M361.91,280.995
				h-12.386c-2.88,0-5.215-2.335-5.215-5.215l0,0c0-2.88,2.335-5.215,5.215-5.215h12.386c2.88,0,5.215,2.335,5.215,5.215l0,0
				C367.126,278.66,364.791,280.995,361.91,280.995z"/>
		</g>
		<g>
			<g>
				
					<rect x="367.555" y="330.095" style="fill:#C6FF00;stroke:#263238;stroke-linecap:round;stroke-linejoin:round;stroke-miterlimit:10;" width="83.445" height="66.495"/>
				
					<rect x="419.708" y="330.095" style="fill:#C6FF00;stroke:#263238;stroke-linecap:round;stroke-linejoin:round;stroke-miterlimit:10;" width="31.292" height="66.495"/>
			</g>
			<path style="fill:#263238;stroke:#263238;stroke-linecap:round;stroke-linejoin:round;stroke-miterlimit:10;" d="
				M399.499,347.045h-12.386c-2.88,0-5.215-2.335-5.215-5.215v0c0-2.88,2.335-5.215,5.215-5.215h12.386
				c2.88,0,5.215,2.335,5.215,5.215v0C404.714,344.71,402.379,347.045,399.499,347.045z"/>
		</g>
		<g>
			<path style="fill:none;stroke:#263238;stroke-width:4;stroke-linecap:round;stroke-linejoin:round;stroke-miterlimit:10;" d="
				M443.079,196.981h-44.145c-8.391,0-15.192,6.802-15.192,15.192v165.81h74.53v-165.81
				C458.272,203.783,451.47,196.981,443.079,196.981z"/>
			
				<line style="fill:none;stroke:#263238;stroke-width:4;stroke-linecap:round;stroke-linejoin:round;stroke-miterlimit:10;" x1="383.741" y1="234.246" x2="458.272" y2="234.246"/>
			
				<line style="fill:none;stroke:#263238;stroke-width:4;stroke-linecap:round;stroke-linejoin:round;stroke-miterlimit:10;" x1="419.441" y1="234.559" x2="419.441" y2="377.357"/>
		</g>
		<g>
			
				<ellipse transform="matrix(0.2488 -0.9685 0.9685 0.2488 -236.8481 552.5768)" style="fill:#263238;stroke:#263238;stroke-linecap:round;stroke-linejoin:round;stroke-miterlimit:10;" cx="237.824" cy="428.985" rx="8.497" ry="8.497"/>
			<path style="fill:#FFFFFF;stroke:#263238;stroke-linecap:round;stroke-linejoin:round;stroke-miterlimit:10;" d="
				M223.845,415.578l11.486,14.768c0.99,1.273,2.775,1.606,4.158,0.777l0,0c0.853-0.512,1.419-1.393,1.529-2.382l1.337-12.029
				L223.845,415.578z"/>
		</g>
		<g>
			
				<ellipse transform="matrix(0.2306 -0.9731 0.9731 0.2306 -162.4842 652.4807)" style="fill:#263238;stroke:#263238;stroke-linecap:round;stroke-linejoin:round;stroke-miterlimit:10;" cx="331.346" cy="428.985" rx="8.497" ry="8.497"/>
			<path style="fill:#FFFFFF;stroke:#263238;stroke-linecap:round;stroke-linejoin:round;stroke-miterlimit:10;" d="
				M317.366,415.578l11.486,14.768c0.99,1.273,2.775,1.606,4.158,0.777l0,0c0.853-0.512,1.419-1.393,1.529-2.382l1.337-12.029
				L317.366,415.578z"/>
		</g>
		<g>
			
				<ellipse transform="matrix(0.2306 -0.9731 0.9731 0.2306 -107.3739 722.1772)" style="fill:#263238;stroke:#263238;stroke-linecap:round;stroke-linejoin:round;stroke-miterlimit:10;" cx="402.973" cy="428.985" rx="8.497" ry="8.497"/>
			<path style="fill:#FFFFFF;stroke:#263238;stroke-linecap:round;stroke-linejoin:round;stroke-miterlimit:10;" d="
				M388.993,415.578l11.486,14.768c0.99,1.273,2.775,1.606,4.158,0.777l0,0c0.853-0.512,1.419-1.393,1.529-2.382l1.336-12.029
				L388.993,415.578z"/>
		</g>
		
			<rect x="218.053" y="378.2" style="fill:#FFFFFF;stroke:#263238;stroke-linecap:round;stroke-linejoin:round;stroke-miterlimit:10;" width="240.169" height="38.158"/>
		
			<rect x="383.618" y="378.2" style="fill:#C4C4C4;stroke:#263238;stroke-linecap:round;stroke-linejoin:round;stroke-miterlimit:10;" width="74.604" height="38.158"/>
	</g>
</g>
<g id="Character_2">
	<g>
		<path style="fill:#FFFFFF;stroke:#263238;stroke-linecap:round;stroke-linejoin:round;stroke-miterlimit:10;" d="M247.113,222.362
			c0,0-4.057,3.043-6.085,6.423c-2.028,3.381-19.946,27.722-19.946,27.722l6.423,9.466l19.608-9.466c0,0,0.338-12.509,1.69-20.622"
			/>
		<path style="fill:#FFFFFF;stroke:#263238;stroke-linecap:round;stroke-linejoin:round;stroke-miterlimit:10;" d="M233.336,269.502
			c0,0,5.409-1.69,7.099-6.761c1.69-5.071-0.338-9.128-6.085-12.847c-5.747-3.719-10.142-1.69-13.185,1.352
			c-3.043,3.043-3.043,9.804-0.338,13.523C223.533,268.487,230.294,269.164,233.336,269.502z"/>
		<path style="fill:#FFFFFF;stroke:#263238;stroke-linecap:round;stroke-linejoin:round;stroke-miterlimit:10;" d="M231.308,276.939
			c0,0,6.423-11.832,6.423-16.903c0-5.071-8.452-8.452-13.523-6.761c-5.071,1.69-3.719,10.142-3.043,13.523
			c0.676,3.381,1.69,9.466,1.352,13.184c-0.338,3.719-2.028,5.071,0.676,6.085C225.899,287.081,229.618,281.672,231.308,276.939z"/>
		<g>
			<path style="fill:#FFFFFF;stroke:#263238;stroke-linecap:round;stroke-linejoin:round;stroke-miterlimit:10;" d="
				M261.312,430.949c0,0-12.17,6.761-15.213,9.128c-3.043,2.366-4.395,4.057-1.014,5.071c3.381,1.014,8.114,1.69,12.17,0.338
				c4.057-1.352,6.085-2.705,8.452-3.719c2.366-1.014,5.071-0.676,5.071-5.409c0-4.733,0-4.733,0-4.733L261.312,430.949z"/>
			<path style="fill:#FFFFFF;stroke:#263238;stroke-linecap:round;stroke-linejoin:round;stroke-miterlimit:10;" d="
				M270.624,438.051c-1.105,0.273-2.451,0.616-3.903,1.012c-3.719,1.014-6.423,4.733-11.832,5.071
				c-3.746,0.234-8.623-0.99-11.27-1.766c-0.916,1.203-0.697,2.131,1.467,2.78c3.381,1.014,8.113,1.69,12.17,0.338
				c4.057-1.352,6.085-2.705,8.452-3.719C267.744,440.895,270.026,441.015,270.624,438.051z"/>
		</g>
		<g>
			<path style="fill:#FFFFFF;stroke:#263238;stroke-linecap:round;stroke-linejoin:round;stroke-miterlimit:10;" d="
				M274.159,433.316c0,0-9.804,9.466-14.199,11.832c-4.395,2.366,11.156,3.043,15.889,2.704c4.733-0.338,5.747-2.704,8.114-4.395
				c2.366-1.69,3.043-4.057,3.043-6.085s-1.352-3.043-1.352-3.043L274.159,433.316z"/>
			<path style="fill:#FFFFFF;stroke:#263238;stroke-linecap:round;stroke-linejoin:round;stroke-miterlimit:10;" d="
				M275.849,447.853c4.733-0.338,5.747-2.704,8.114-4.395c2.366-1.69,3.043-4.057,3.043-6.085c0-0.003-0.001-0.005-0.001-0.007
				c-2.261,2.862-6.679,7.548-11.832,8.121c-6.085,0.676-15.213-0.338-15.213-0.338
				C255.565,447.514,271.116,448.191,275.849,447.853z"/>
		</g>
		<path style="fill:#263238;stroke:#263238;stroke-linecap:round;stroke-linejoin:round;stroke-miterlimit:10;" d="M247.451,288.623
			c0,0-4.733,42.596-3.043,64.571c1.69,21.974,16.903,77.755,16.903,77.755l9.466,0.676c0,0,0.676-33.469,1.014-52.4
			c0.338-18.932,3.381-84.178,3.381-84.178L247.451,288.623z"/>
		<path style="fill:#263238;stroke:#263238;stroke-linecap:round;stroke-linejoin:round;stroke-miterlimit:10;" d="M293.09,295.723
			c0,0,4.733,6.423,4.395,16.227c-0.338,9.804-3.719,22.989-3.719,29.412c0,6.423-2.028,22.312-2.028,27.721
			c0,5.409-2.028,18.594-2.028,31.102c0,12.508-4.057,34.145-4.057,34.145l-11.494-1.014c0,0-4.057-34.145-5.409-46.653
			c-1.352-12.508-2.367-33.13-2.367-34.821c0-1.69,0.676-57.471,0.676-57.471L293.09,295.723z"/>
		<g>
			<path style="fill:#263238;stroke:#263238;stroke-linecap:round;stroke-linejoin:round;stroke-miterlimit:10;" d="
				M260.275,181.368c0,0-6.696,0.893-8.035-8.035c-1.339-8.927,11.159-16.962,22.318-19.64c11.159-2.678,19.64-2.678,25.443,10.713
				c5.803,13.391-2.678,29.014-2.678,29.014s9.82,16.069,10.713,27.675c0.893,11.606-4.464,17.408-4.464,17.408l-11.159-4.91
				c0,0,7.142-24.104,0.893-38.834c0,0-11.159,1.339-12.945-2.678c-1.785-4.017-7.588-16.069-8.927-16.516
				C270.095,175.119,260.275,181.368,260.275,181.368z"/>
			<path style="fill:none;stroke:#858585;stroke-linecap:round;stroke-linejoin:round;stroke-miterlimit:10;" d="M275.575,167.103
				c0,0,6.101-9.151,13.625-10.575"/>
			<path style="fill:none;stroke:#858585;stroke-linecap:round;stroke-linejoin:round;stroke-miterlimit:10;" d="M278.422,168.527
				c0,0,6.711,7.525,12.812,12.609c6.101,5.084,6.101,5.084,6.101,5.084"/>
			<path style="fill:none;stroke:#858585;stroke-linecap:round;stroke-linejoin:round;stroke-miterlimit:10;" d="M283.303,163.239
				c0,0,12.812,5.491,15.049,17.896"/>
			<path style="fill:none;stroke:#858585;stroke-linecap:round;stroke-linejoin:round;stroke-miterlimit:10;" d="M276.592,164.663
				c0,0-22.98,5.694-22.37,9.761"/>
			<path style="fill:none;stroke:#858585;stroke-linecap:round;stroke-linejoin:round;stroke-miterlimit:10;" d="M253.002,171.374
				c0,0,13.422-16.066,30.301-13.625"/>
		</g>
		<path style="fill:#FFFFFF;stroke:#263238;stroke-linecap:round;stroke-linejoin:round;stroke-miterlimit:10;" d="M268.75,213.911
			c0,0-21.636,6.423-21.636,8.452s0,65.923,0.676,67.951c0.676,2.028,31.778,7.438,35.497,7.099c3.719-0.338,7.776-0.676,9.804-1.69
			c2.028-1.014,12.846-59.838,14.537-63.557c1.69-3.719-0.338-8.114-3.381-10.142c-3.043-2.028-27.383-7.437-27.383-7.437
			S271.792,213.573,268.75,213.911z"/>
		<path style="fill:#C6FF00;stroke:#263238;stroke-linecap:round;stroke-linejoin:round;stroke-miterlimit:10;" d="M256.917,217.967
			c0,0-7.775,39.892-9.466,56.457c-1.69,16.565-6.085,79.108-6.085,79.108s9.128,5.409,23.327,5.409c14.199,0,25.355,0,25.355,0
			s0-64.909,0-69.98c0-5.071,0-6.423,0-6.423l7.437-0.338l0.676-3.043l-8.79-3.719c0,0,1.014-30.426,1.69-42.258
			c0.676-11.832,1.014-14.875,1.014-14.875l-3.381-1.014l-5.747,34.821l-26.369-6.085l4.395-29.412L256.917,217.967z"/>
		<path style="fill:#FFFFFF;stroke:#263238;stroke-linecap:round;stroke-linejoin:round;stroke-miterlimit:10;" d="M270.778,209.178
			c0,0-5.747,1.014-8.114,4.733c-2.367,3.719-8.114,18.932-3.719,19.608c4.395,0.676,9.804-6.761,12.508-6.761
			c2.705,0,5.071,11.156,11.494,10.48c6.423-0.676,7.099-14.537,5.747-21.974S273.145,207.826,270.778,209.178z"/>
		<path style="fill:#FFFFFF;stroke:#263238;stroke-linecap:round;stroke-linejoin:round;stroke-miterlimit:10;" d="M266.721,200.05
			c0,0,1.352,15.213,1.352,21.636c0,6.423-1.352,9.128,2.705,9.128c4.057,0,13.523-12.508,13.523-18.255c0-5.747,0-14.199,0-14.199
			S272.13,200.726,266.721,200.05z"/>
		<path style="fill:#FFFFFF;stroke:#263238;stroke-linecap:round;stroke-linejoin:round;stroke-miterlimit:10;" d="M302.556,221.01
			c0,0,6.761,2.705,8.79,6.085c2.028,3.381,14.086,46.315,14.086,46.315l-16.903,9.804l-10.705-31.778c0,0-0.676-7.775-0.338-13.185
			"/>
		<path style="fill:#FFFFFF;stroke:#263238;stroke-linecap:round;stroke-linejoin:round;stroke-miterlimit:10;" d="M303.45,277.13
			c0,0-0.564-7.438,1.41-10.818c1.974-3.381,13.818-9.128,18.613-8.114c4.794,1.014,5.076,11.832,2.256,14.875
			C322.908,276.116,306.552,281.863,303.45,277.13z"/>
		<g>
			<g>
				<polygon style="fill:#FFFFFF;stroke:#263238;stroke-linecap:round;stroke-linejoin:round;stroke-miterlimit:10;" points="
					229.948,289.431 277.658,302.123 265.844,320.695 206.87,300.41 				"/>
				<polygon style="fill:#696969;stroke:#263238;stroke-linecap:round;stroke-linejoin:round;stroke-miterlimit:10;" points="
					206.21,289.431 229.948,276.983 229.948,289.431 206.21,302.458 				"/>
				<polygon style="fill:#8C8C8C;stroke:#263238;stroke-linecap:round;stroke-linejoin:round;stroke-miterlimit:10;" points="
					229.948,289.431 281.477,303.616 282.634,290.878 229.948,276.983 				"/>
				<g>
					<path style="fill:#FFFFFF;stroke:#263238;stroke-linecap:round;stroke-linejoin:round;stroke-miterlimit:10;" d="
						M238.4,288.662c0,3.662-2.969,6.631-6.631,6.631c-3.662,0-6.631-2.969-6.631-6.631c0-3.662,2.969-6.631,6.631-6.631
						C235.431,282.031,238.4,285,238.4,288.662z"/>
					
						<circle style="fill:#FFFFFF;stroke:#263238;stroke-linecap:round;stroke-linejoin:round;stroke-miterlimit:10;" cx="243.727" cy="293.445" r="6.631"/>
					
						<circle style="fill:#FFFFFF;stroke:#263238;stroke-linecap:round;stroke-linejoin:round;stroke-miterlimit:10;" cx="255.25" cy="294.75" r="6.631"/>
					
						<circle style="fill:#FFFFFF;stroke:#263238;stroke-linecap:round;stroke-linejoin:round;stroke-miterlimit:10;" cx="266.99" cy="298.88" r="6.631"/>
					<path style="fill:#FFFFFF;stroke:#263238;stroke-linecap:round;stroke-linejoin:round;stroke-miterlimit:10;" d="
						M264.272,303.011c0,3.662-2.969,6.631-6.631,6.631c-3.662,0-6.631-2.969-6.631-6.631c0-3.662,2.969-6.631,6.631-6.631
						C261.303,296.38,264.272,299.349,264.272,303.011z"/>
					<path style="fill:#FFFFFF;stroke:#263238;stroke-linecap:round;stroke-linejoin:round;stroke-miterlimit:10;" d="
						M227.964,294.097c0,3.662-2.969,6.631-6.631,6.631c-3.662,0-6.631-2.969-6.631-6.631c0-3.662,2.969-6.631,6.631-6.631
						C224.996,287.466,227.964,290.435,227.964,294.097z"/>
					
						<circle style="fill:#FFFFFF;stroke:#263238;stroke-linecap:round;stroke-linejoin:round;stroke-miterlimit:10;" cx="232.421" cy="298.228" r="6.631"/>
					<path style="fill:#FFFFFF;stroke:#263238;stroke-linecap:round;stroke-linejoin:round;stroke-miterlimit:10;" d="
						M251.01,301.272c0,3.662-2.969,6.631-6.631,6.631c-3.662,0-6.631-2.969-6.631-6.631c0-3.662,2.969-6.631,6.631-6.631
						C248.041,294.641,251.01,297.61,251.01,301.272z"/>
				</g>
				<polygon style="fill:#696969;stroke:#263238;stroke-linecap:round;stroke-linejoin:round;stroke-miterlimit:10;" points="
					282.634,290.878 265.844,305.932 265.844,320.695 281.477,303.616 				"/>
			</g>
			<polygon style="fill:#8C8C8C;stroke:#263238;stroke-linecap:round;stroke-linejoin:round;stroke-miterlimit:10;" points="
				265.844,305.932 206.21,289.431 206.21,302.458 265.844,320.695 			"/>
		</g>
		<path style="fill:#FFFFFF;stroke:#263238;stroke-linecap:round;stroke-linejoin:round;stroke-miterlimit:10;" d="M304.818,270.485
			l-12.742,11.009c0,0-6.728-1.223-8.868,0.306c-2.141,1.529-7.951,7.645-8.868,9.174c-0.917,1.529,0.917,2.752,2.141,1.835
			c1.223-0.917,6.422-3.975,6.422-3.975s-0.917,10.091-1.835,11.926s-5.09,6.242-3.561,6.242s6.008-1.043,7.231-1.961
			c1.223-0.917,2.446-3.669,2.446-3.669s5.81-2.752,5.81-3.67c0-0.917,2.141-4.893,2.141-4.893l2.752-4.893
			c0,0,15.799-3.67,20.081-6.728c4.281-3.058,11.926-8.257,9.48-14.372C325.001,260.7,319.191,258.865,304.818,270.485z"/>
		<path style="fill:#FFFFFF;stroke:#263238;stroke-linecap:round;stroke-linejoin:round;stroke-miterlimit:10;" d="M229.87,277.018
			c0.379-1.71-1.011-3.286-2.759-3.392c-1.21-0.073-2.609,0.108-3.438,1.103c-1.69,2.028-5.071,9.466-3.381,11.494
			c1.69,2.028,5.071-6.761,5.071-6.761S229.283,279.668,229.87,277.018z"/>
		<g>
			<path style="fill:#FFFFFF;stroke:#263238;stroke-linecap:round;stroke-linejoin:round;stroke-miterlimit:10;" d="M274.113,168.87
				l-15.623,8.927c0,0-1.339,12.498,0,21.426c1.339,8.927,8.927,12.498,16.069,12.498s12.945-6.249,13.391-8.481
				c0.446-2.232,0.893-4.464,0.893-4.464s6.695-0.898,7.141-7.594c0.446-6.695-3.57-7.583-4.909-6.244
				c-1.339,1.339-2.678,2.678-2.678,2.678S278.576,180.476,274.113,168.87z"/>
			<g>
				<path style="fill:#263238;" d="M266.93,187.015c0,1.269-0.588,2.297-1.313,2.297c-0.725,0-1.313-1.028-1.313-2.297
					c0-1.268,0.588-2.297,1.313-2.297C266.343,184.718,266.93,185.746,266.93,187.015z"/>
				<path style="fill:#263238;" d="M277.322,188.406c0,1.269-0.588,2.297-1.313,2.297c-0.725,0-1.313-1.028-1.313-2.297
					s0.588-2.297,1.313-2.297C276.734,186.109,277.322,187.137,277.322,188.406z"/>
				<path style="fill:#FFFFFF;stroke:#263238;stroke-linecap:round;stroke-linejoin:round;stroke-miterlimit:10;" d="
					M268.984,187.433c0,0-1,3.75-1.5,5.5s0,4,3,3.25"/>
				<path style="fill:#FFFFFF;stroke:#263238;stroke-linecap:round;stroke-linejoin:round;stroke-miterlimit:10;" d="
					M269.881,200.252c0,0,3.864,1.017,7.525-3.457"/>
				<path style="fill:#FFFFFF;stroke:#263238;stroke-linecap:round;stroke-linejoin:round;stroke-miterlimit:10;" d="
					M262.234,182.183c0,0,2-2.25,5-0.25"/>
				<path style="fill:#FFFFFF;stroke:#263238;stroke-linecap:round;stroke-linejoin:round;stroke-miterlimit:10;" d="
					M272.984,182.683c0,0,4.75-2,6.75,1"/>
			</g>
		</g>
	</g>
</g>
<g id="Character_1">
	<g>
		<g>
			<path style="fill:#FFFFFF;stroke:#263238;stroke-linecap:round;stroke-linejoin:round;stroke-miterlimit:10;" d="M150.526,436.47
				c0,0,4.326,8.652,11.536,12.978s15.141,3.244,15.141-2.163c0-5.407-5.407-9.733-9.733-12.617
				C163.143,431.783,152.689,429.62,150.526,436.47z"/>
			<path style="fill:#FFFFFF;stroke:#263238;stroke-linecap:round;stroke-linejoin:round;stroke-miterlimit:10;" d="
				M177.166,446.699c-2.263,1.412-6.02,3.197-10.058,2.748c-4.131-0.459-10.451-5.738-14.5-9.515c1.949,2.9,5.192,6.958,9.453,9.515
				c7.21,4.326,15.141,3.244,15.141-2.163C177.203,447.087,177.181,446.894,177.166,446.699z"/>
		</g>
		<g>
			<path style="fill:#FFFFFF;stroke:#263238;stroke-linecap:round;stroke-linejoin:round;stroke-miterlimit:10;" d="
				M133.583,433.586c0,0-4.326,8.652-11.536,12.978s-15.141,3.244-15.141-2.163c0-5.407,5.407-9.733,9.733-12.617
				S131.42,426.736,133.583,433.586z"/>
			<path style="fill:#FFFFFF;stroke:#263238;stroke-linecap:round;stroke-linejoin:round;stroke-miterlimit:10;" d="
				M106.943,443.815c2.263,1.412,6.02,3.197,10.058,2.748c4.131-0.459,10.451-5.738,14.5-9.515c-1.949,2.9-5.192,6.958-9.453,9.515
				c-7.21,4.326-15.141,3.244-15.141-2.163C106.907,444.203,106.929,444.01,106.943,443.815z"/>
		</g>
		<path style="fill:#263238;stroke:#263238;stroke-linecap:round;stroke-linejoin:round;stroke-miterlimit:10;" d="M101.5,296.239
			c0,0-2.523,15.862,0.721,27.397s4.326,18.385,4.326,29.2c0,10.815,3.605,50.469,5.047,56.958
			c1.442,6.489,3.605,25.234,3.605,25.234s9.012,3.605,12.978,2.163c3.965-1.442,5.047-4.326,5.047-4.326l5.407-87.239l1.081-16.583
			h2.163c0,0,3.605,71.377,5.047,82.192s1.802,24.874,1.802,24.874s4.326,2.163,6.849,2.163c2.523,0,11.536-1.442,11.896-3.605
			c0.36-2.163,0.36-5.768,0-7.21c-0.36-1.442-1.081-6.128-1.081-6.128s6.128-63.086,6.128-69.214c0-6.128-0.721-53.713-0.721-53.713
			l-1.442-2.163c0,0-10.454,3.965-29.2,3.965c-18.745,0-32.444-5.407-34.607-6.849C104.383,291.913,101.139,294.076,101.5,296.239z"
			/>
		<path style="fill:#FFFFFF;stroke:#263238;stroke-linecap:round;stroke-linejoin:round;stroke-miterlimit:10;" d="M127.455,198.186
			c0,0-18.745,6.849-21.629,12.257c-2.884,5.407-5.047,83.273-4.326,85.797c0.721,2.523,22.35,9.733,39.293,9.733
			c16.943,0,32.084-6.128,32.805-9.373c0.721-3.244-0.721-78.947-4.326-85.797c-3.605-6.849-11.536-12.617-21.629-14.78
			C137.549,193.86,127.455,198.186,127.455,198.186z"/>
		<path style="fill:#C6FF00;stroke:#263238;stroke-linecap:round;stroke-linejoin:round;stroke-miterlimit:10;" d="M110.872,205.395
			c0,0,6.849,27.397,8.291,34.607c1.442,7.21,0.721,40.014,0.721,40.014l-19.466-1.442l0.36,3.965l19.106,3.965l-5.047,67.772
			c0,0,17.664,6.489,33.886,5.768c16.222-0.721,27.397-8.291,27.397-8.291s-2.884-45.422-2.884-74.261
			c0-28.839-1.442-52.631-1.442-56.957s-2.661-12.003-6.987-15.608c0,0,1.58,7.677,2.301,15.247
			c0.721,7.57-0.361,16.943-0.361,16.943l-41.456-0.36l-9.012-34.607L110.872,205.395z"/>
		<path style="fill:#FFFFFF;stroke:#263238;stroke-linecap:round;stroke-linejoin:round;stroke-miterlimit:10;" d="M106.907,209
			c0,0-9.012,5.768-12.617,10.094c-3.605,4.326-10.815,49.387-10.815,52.992s5.047,5.047,7.931,5.047
			c2.884,0,10.454-2.884,11.896-7.931c1.442-5.047,10.094-30.281,10.094-30.281s0.36-6.849,0.36-9.733"/>
		<g>
			<g>
				<path style="fill:#FFFFFF;stroke:#263238;stroke-linecap:round;stroke-linejoin:round;stroke-miterlimit:10;" d="
					M181.11,243.461c-3.987-1.313-7.67-1.008-8.227,0.681l-12.01,36.463l14.439,4.755l12.01-36.463
					C187.878,247.208,185.097,244.774,181.11,243.461z"/>
				<path style="fill:#FFFFFF;stroke:#263238;stroke-linecap:round;stroke-linejoin:round;stroke-miterlimit:10;" d="
					M175.312,285.361c-0.557,1.69-4.24,1.995-8.227,0.681c-3.987-1.313-6.768-3.747-6.212-5.437c0.556-1.689,4.24-1.995,8.227-0.681
					C173.087,281.238,175.868,283.672,175.312,285.361z"/>
				<path style="fill:#263238;stroke:#263238;stroke-linecap:round;stroke-linejoin:round;stroke-miterlimit:10;" d="
					M181.11,243.461c-3.987-1.313-7.67-1.008-8.227,0.681l-2.336,7.094c2.71-0.381,7.874-0.073,14.277,5.246l2.498-7.584
					C187.878,247.208,185.097,244.774,181.11,243.461z"/>
			</g>
			<g>
				<path style="fill:#FFFFFF;stroke:#263238;stroke-linecap:round;stroke-linejoin:round;stroke-miterlimit:10;" d="
					M180.689,268.898c0,0-1.836,0.612-3.467,1.428c-1.632,0.816-1.02,1.428-0.204,1.428c0.816,0,3.671,0.204,5.099-0.816
					C183.544,269.918,182.729,268.694,180.689,268.898z"/>
				<path style="fill:#FFFFFF;stroke:#263238;stroke-linecap:round;stroke-linejoin:round;stroke-miterlimit:10;" d="
					M185.005,265.546c0,0,1.031,1.804-0.258,2.834c-1.288,1.031-7.214,1.288-8.245,0.515c-1.031-0.773,1.803-2.061,3.607-2.319
					C181.914,266.319,185.005,265.546,185.005,265.546z"/>
				<path style="fill:#FFFFFF;stroke:#263238;stroke-linecap:round;stroke-linejoin:round;stroke-miterlimit:10;" d="
					M185.597,263.181c0,0,1.031,1.803-0.258,2.834c-1.288,1.031-7.214,1.288-8.245,0.515c-1.031-0.773,1.804-2.061,3.607-2.319
					C182.505,263.954,185.597,263.181,185.597,263.181z"/>
				<path style="fill:#FFFFFF;stroke:#263238;stroke-linecap:round;stroke-linejoin:round;stroke-miterlimit:10;" d="
					M183.793,260.604c0,0-2.319,0.773-4.38,1.804c-2.061,1.031-1.288,1.804-0.258,1.804c1.031,0,4.638,0.258,6.441-1.031
					C187.4,261.893,186.37,260.347,183.793,260.604z"/>
			</g>
		</g>
		<g>
			<polygon style="fill:#828282;stroke:#263238;stroke-linecap:round;stroke-linejoin:round;stroke-miterlimit:10;" points="
				98.116,282.947 116.463,285.138 112.903,312.521 92.366,307.592 88.532,303.484 96.747,290.888 			"/>
			<polygon style="fill:#828282;stroke:#263238;stroke-linecap:round;stroke-linejoin:round;stroke-miterlimit:10;" points="
				88.532,303.484 110.438,308.139 116.463,285.138 112.903,312.521 92.366,307.592 			"/>
			<polygon style="fill:#5C5C5C;stroke:#263238;stroke-linecap:round;stroke-linejoin:round;stroke-miterlimit:10;" points="
				110.438,308.139 112.903,312.521 91.27,307.866 88.532,303.484 			"/>
			<polygon style="fill:#FFFFFF;stroke:#263238;stroke-linecap:round;stroke-linejoin:round;stroke-miterlimit:10;" points="
				95.232,304.671 98.116,297.734 105.783,299.377 103.045,306.497 			"/>
		</g>
		<g>
			<path style="fill:#FFFFFF;stroke:#263238;stroke-linecap:round;stroke-linejoin:round;stroke-miterlimit:10;" d="
				M133.583,192.057c0,0-12.257,5.407-11.896,9.012c0.361,3.605,6.849,24.153,10.815,25.234c3.965,1.081,11.896-9.373,11.896-9.373
				s6.489,8.291,10.454,7.57c3.965-0.721,2.523-4.686,1.442-16.583c-1.081-11.896-5.047-11.536-10.815-14.42
				C139.712,190.615,133.583,192.057,133.583,192.057z"/>
			<g>
				<path style="fill:#263238;stroke:#263238;stroke-linecap:round;stroke-linejoin:round;stroke-miterlimit:10;" d="
					M159.899,162.137c0,0,5.768-1.803,7.21-7.21c1.442-5.407-6.128-18.025-17.304-21.99c-11.175-3.965-24.513-2.523-31.002,7.21
					c-6.489,9.733-6.489,18.745-4.326,25.234c2.163,6.489,5.768,11.175,7.21,11.896c1.442,0.721,2.523-4.686,9.373-6.489
					c6.849-1.802,14.059-6.489,16.943-9.373c2.884-2.884,3.605-5.047,3.605-5.047L159.899,162.137z"/>
				<path style="fill:#FFFFFF;stroke:#263238;stroke-linecap:round;stroke-linejoin:round;stroke-miterlimit:10;" d="
					M131.06,189.894c0,0-1.081,8.291,1.802,14.42c2.884,6.128,7.21,14.059,10.454,14.059s7.57-8.291,9.012-13.338
					c1.442-5.047,1.803-13.338,1.803-13.338S141.874,196.023,131.06,189.894z"/>
				<path style="fill:#FFFFFF;stroke:#263238;stroke-linecap:round;stroke-linejoin:round;stroke-miterlimit:10;" d="
					M126.734,167.544l10.094-9.373l0.721,3.965c0,0,9.012-4.326,11.536-7.931c2.524-3.605,2.524-5.047,2.524-5.047l9.012,10.454
					c0,0,1.442,19.466-0.361,25.595c-1.802,6.128-2.163,12.257-11.175,13.699c-9.012,1.442-18.385-4.686-21.269-10.094
					c-2.884-5.407-3.965-8.652-3.965-8.652s-6.849-5.047-6.489-11.175C117.722,162.857,123.129,163.218,126.734,167.544z"/>
				<g>
					<path style="fill:#263238;" d="M154.079,169.316c0,1.269,0.588,2.297,1.313,2.297c0.725,0,1.313-1.028,1.313-2.297
						s-0.588-2.297-1.313-2.297C154.666,167.019,154.079,168.048,154.079,169.316z"/>
					<path style="fill:#263238;" d="M141.063,170.707c0,1.268,0.588,2.297,1.313,2.297s1.313-1.028,1.313-2.297
						c0-1.269-0.588-2.297-1.313-2.297S141.063,169.439,141.063,170.707z"/>
					<path style="fill:#FFFFFF;stroke:#263238;stroke-linecap:round;stroke-linejoin:round;stroke-miterlimit:10;" d="
						M152.668,169.735c0,0,1.314,5.246,1.97,7.694c0.657,2.448,0,5.596-3.941,4.547"/>
					<path style="fill:#FFFFFF;stroke:#263238;stroke-linecap:round;stroke-linejoin:round;stroke-miterlimit:10;" d="
						M158.775,164.485c0,0-2-2.25-5-0.25"/>
					<path style="fill:#FFFFFF;stroke:#263238;stroke-linecap:round;stroke-linejoin:round;stroke-miterlimit:10;" d="
						M145.4,164.985c0,0-4.75-2-6.75,1"/>
					<path style="fill:#FFFFFF;stroke:#263238;stroke-linecap:round;stroke-linejoin:round;stroke-miterlimit:10;" d="
						M152.648,187.255c0,0-4.537,1.601-11.21-2.669"/>
					<path style="fill:#FFFFFF;stroke:#263238;stroke-linecap:round;stroke-linejoin:round;stroke-miterlimit:10;" d="
						M118.753,171.508c0,0,1.068-5.338,3.47-2.669c2.402,2.669,2.936,4.003,2.936,4.003s-4.27-0.534-2.669,2.402"/>
				</g>
			</g>
		</g>
		<g>
			<path style="fill:#263238;stroke:#263238;stroke-linecap:round;stroke-linejoin:round;stroke-miterlimit:10;" d="
				M127.264,279.814c0,0-1.33,4.878-0.591,5.173c0.739,0.296,5.617,1.182,6.799,0.591c1.183-0.591,0-2.217,0-2.217l5.764-23.205
				l-10.339-0.687L127.264,279.814z"/>
			<path style="fill:#FFFFFF;stroke:#263238;stroke-linecap:round;stroke-linejoin:round;stroke-miterlimit:10;" d="M82.722,266.255
				c0,0,8.185-5.694,16.725-5.338c8.541,0.356,9.608,5.694,9.608,9.252s-17.793,12.455-21.707,12.455
				C83.434,282.625,77.384,275.508,82.722,266.255z"/>
			<path style="fill:#FFFFFF;stroke:#263238;stroke-linecap:round;stroke-linejoin:round;stroke-miterlimit:10;" d="
				M125.292,268.481c0,0-15.862-3.244-21.99-3.965c-6.128-0.721-16.943,2.884-19.106,9.012c-2.163,6.128,4.686,9.733,10.094,11.175
				c5.407,1.442,31.723-3.605,31.723-3.605s12.257,0.721,14.42-2.884c2.163-3.605,3.605-11.175,3.605-11.175
				s5.768-2.163,4.326-5.047c-1.442-2.884-17.304-3.244-19.467-2.523C126.734,260.19,125.292,268.481,125.292,268.481z"/>
			<g>
				<path style="fill:#263238;stroke:#263238;stroke-linecap:round;stroke-linejoin:round;stroke-miterlimit:10;" d="M138.497,253.8
					h-8.573c-1.714,0-3.104,1.39-3.104,3.104c0,1.626,1.254,2.944,2.846,3.078l-0.037,0.026h0.296h8.573h10.938l9.607-6.208H138.497
					z"/>
				<path style="fill:#5C5C5C;stroke:#263238;stroke-linecap:round;stroke-linejoin:round;stroke-miterlimit:10;" d="
					M158.007,260.008h-8.573c-1.714,0-3.104-1.39-3.104-3.104l0,0c0-1.714,1.39-3.104,3.104-3.104h8.573
					c1.714,0,3.104,1.39,3.104,3.104l0,0C161.111,258.618,159.722,260.008,158.007,260.008z"/>
			</g>
		</g>
	</g>
</g>
</svg>
