<?xml version="1.0" encoding="utf-8"?>
<!-- Generator: Adobe Illustrator 27.5.0, SVG Export Plug-In . SVG Version: 6.00 Build 0)  -->
<svg version="1.1" xmlns="http://www.w3.org/2000/svg" xmlns:xlink="http://www.w3.org/1999/xlink" x="0px" y="0px"
	 viewBox="0 0 750 500" style="enable-background:new 0 0 750 500;" xml:space="preserve">
<g id="Background_Complete">
	<g>
		<g>
			<rect x="53.193" y="75.467" style="fill:#EBEBEB;" width="119.58" height="214.818"/>
		</g>
		<g>
			<rect x="57.971" y="81.697" style="fill:#FAFAFA;" width="108.792" height="202.189"/>
		</g>
		<g>
			<polygon style="fill:#F5F5F5;" points="166.763,84.078 57.971,222.466 57.971,81.697 166.763,81.697 			"/>
		</g>
		<g>
			<rect x="57.971" y="139.861" style="fill:#EBEBEB;" width="111.155" height="2.153"/>
		</g>
		<g>
			<rect x="57.971" y="188.01" style="fill:#EBEBEB;" width="111.155" height="2.153"/>
		</g>
		<g>
			<rect x="57.971" y="236.159" style="fill:#EBEBEB;" width="111.155" height="2.153"/>
		</g>
		<g>
			
				<rect x="38.026" y="212.529" transform="matrix(6.123234e-17 -1 1 6.123234e-17 -102.9109 327.6447)" style="fill:#EBEBEB;" width="148.682" height="5.497"/>
		</g>
		<g>
			<rect x="78.92" y="81.697" style="fill:#EBEBEB;" width="2.49" height="59.24"/>
		</g>
		<g>
			<rect x="100.396" y="81.697" style="fill:#EBEBEB;" width="2.49" height="59.24"/>
		</g>
		<g>
			<rect x="121.872" y="81.697" style="fill:#EBEBEB;" width="2.49" height="59.24"/>
		</g>
		<g>
			<rect x="143.349" y="81.697" style="fill:#EBEBEB;" width="2.49" height="59.24"/>
		</g>
		<g>
			<rect x="48.135" y="71.824" style="fill:#F5F5F5;" width="5.058" height="219.791"/>
		</g>
		<g>
			<polygon style="fill:#E0E0E0;" points="177.831,292.221 172.773,290.285 172.773,71.824 177.831,71.824 			"/>
		</g>
		<g>
			<rect x="48.135" y="69.606" style="fill:#E0E0E0;" width="129.696" height="5.861"/>
		</g>
		<g>
			<rect x="44.547" y="292.944" style="fill:#E0E0E0;" width="136.708" height="5.461"/>
		</g>
		<g>
			<polygon style="fill:#EBEBEB;" points="172.773,290.285 181.255,292.944 44.547,292.944 53.193,290.285 			"/>
		</g>
	</g>
	<g>
		<g>
			<g>
				<path style="fill:#EBEBEB;" d="M687.157,209.38c0,0-8.452-0.608-7.674,18.352c0.778,18.96,2.713,29.059,2.713,29.059
					s-0.248,4.204-3.504,3.379c-3.256-0.825-9.381-4.917-12.406-1.858c-3.137,3.172-2.022,8.037,2.14,13.767
					c4.161,5.73,12.818,18.62,13.597,19.788c0.764,1.147,1.071,3.298-1.237,3.091c-2.308-0.207-17.887-5.487-19.95,2.056
					c-2.063,7.542,12.154,21.602,13.678,23.168c1.525,1.567,1.607,2.556,0.988,3.504c-0.619,0.948-5.688-1.32-10.18-2.641
					c-4.492-1.32-9.933-2.064-10.759,2.388c-0.826,4.451,5.436,17.478,28.885,31.169l11.281,5.633l10.678-6.811
					c21.962-15.968,26.889-29.555,25.623-33.902c-1.267-4.346-6.606-3.063-10.944-1.3c-4.338,1.763-9.155,4.527-9.865,3.646
					c-0.71-0.881-0.727-1.874,0.633-3.585c1.36-1.711,14.099-17.122,11.292-24.42c-2.807-7.298-17.78-0.486-20.055-0.05
					c-2.276,0.437-2.186-1.734-1.54-2.952c0.658-1.24,7.982-14.931,11.549-21.049c3.567-6.118,4.191-11.07,0.752-13.912
					c-3.316-2.741-9.001,1.943-12.158,3.09c-3.157,1.147-3.825-3.011-3.825-3.011s0.915-10.242-0.208-29.185
					c-1.122-18.943-9.674-17.414-9.674-17.414"/>
			</g>
			<g>
				<g>
					<path style="fill:#E0E0E0;" d="M687.825,226.361c0,0,0.023,0.134,0.045,0.396c0.022,0.281,0.052,0.667,0.09,1.164
						c0.071,1.044,0.173,2.549,0.304,4.478c0.259,3.889,0.592,9.518,0.976,16.476c0.773,13.915,1.677,33.147,2.605,54.389
						c0.928,21.25,1.784,40.483,2.479,54.401c0.353,6.944,0.639,12.57,0.838,16.481c0.096,1.93,0.171,3.437,0.223,4.481
						c0.02,0.498,0.036,0.885,0.047,1.166c0.008,0.263,0.001,0.398,0.001,0.398s-0.023-0.134-0.045-0.396
						c-0.022-0.28-0.052-0.667-0.09-1.164c-0.071-1.044-0.173-2.548-0.304-4.477c-0.259-3.888-0.591-9.517-0.976-16.475
						c-0.773-13.915-1.677-33.148-2.605-54.398c-0.928-21.242-1.783-40.474-2.479-54.392c-0.353-6.944-0.64-12.57-0.839-16.482
						c-0.096-1.931-0.171-3.437-0.223-4.482c-0.02-0.498-0.036-0.885-0.047-1.166C687.818,226.497,687.825,226.361,687.825,226.361z
						"/>
				</g>
			</g>
			<g>
				<g>
					<path style="fill:#E0E0E0;" d="M674.623,264.381c0.021-0.021,0.27,0.188,0.702,0.584c0.434,0.394,1.044,0.984,1.79,1.72
						c1.489,1.475,3.491,3.566,5.657,5.914c2.119,2.319,4.035,4.415,5.518,6.037c0.659,0.714,1.219,1.322,1.679,1.821
						c0.398,0.429,0.609,0.677,0.588,0.698c-0.021,0.021-0.271-0.186-0.706-0.579c-0.433-0.396-1.043-0.986-1.781-1.729
						c-1.475-1.49-3.449-3.606-5.614-5.954c-2.135-2.302-4.065-4.384-5.559-5.995c-0.663-0.711-1.226-1.316-1.689-1.813
						C674.81,264.651,674.602,264.402,674.623,264.381z"/>
				</g>
			</g>
			<g>
				<g>
					<path style="fill:#E0E0E0;" d="M691.675,280.782c-0.085-0.084,4.041-4.404,9.214-9.649c5.175-5.246,9.437-9.43,9.522-9.346
						s-4.04,4.403-9.215,9.65C696.023,276.681,691.759,280.866,691.675,280.782z"/>
				</g>
			</g>
			<g>
				<g>
					<path style="fill:#E0E0E0;" d="M691.628,313.473c-0.014-0.026,0.267-0.203,0.786-0.5c0.602-0.338,1.339-0.751,2.207-1.238
						c1.862-1.046,4.428-2.5,7.202-4.205c2.779-1.7,5.241-3.323,7.016-4.512c0.828-0.552,1.53-1.021,2.105-1.404
						c0.5-0.328,0.784-0.499,0.802-0.475c0.018,0.024-0.234,0.24-0.704,0.611c-0.47,0.37-1.161,0.893-2.029,1.518
						c-1.733,1.255-4.177,2.924-6.965,4.629c-2.783,1.711-5.381,3.127-7.284,4.106c-0.953,0.486-1.729,0.87-2.274,1.119
						C691.948,313.373,691.642,313.499,691.628,313.473z"/>
				</g>
			</g>
			<g>
				<g>
					<path style="fill:#E0E0E0;" d="M672.939,302.032c0.015-0.026,0.292,0.106,0.78,0.366c0.488,0.26,1.187,0.649,2.045,1.137
						c1.717,0.976,4.075,2.35,6.664,3.89c2.591,1.541,4.924,2.956,6.601,3.999c0.839,0.522,1.514,0.95,1.975,1.254
						c0.461,0.305,0.709,0.485,0.694,0.511c-0.015,0.026-0.292-0.106-0.78-0.366c-0.488-0.26-1.187-0.648-2.045-1.136
						c-1.717-0.976-4.075-2.35-6.665-3.89c-2.59-1.54-4.922-2.955-6.6-3.999c-0.839-0.522-1.514-0.95-1.975-1.255
						C673.172,302.238,672.924,302.058,672.939,302.032z"/>
				</g>
			</g>
			<g>
				<g>
					<path style="fill:#E0E0E0;" d="M669.232,330.887c0.015-0.026,0.368,0.146,0.992,0.48c0.695,0.383,1.575,0.869,2.626,1.448
						c2.207,1.239,5.242,2.977,8.58,4.919c3.339,1.943,6.35,3.723,8.518,5.029c1.023,0.627,1.88,1.152,2.556,1.567
						c0.599,0.378,0.923,0.6,0.908,0.626c-0.015,0.026-0.368-0.147-0.992-0.48c-0.695-0.383-1.575-0.869-2.625-1.448
						c-2.208-1.239-5.242-2.977-8.581-4.92c-3.338-1.942-6.348-3.722-8.516-5.028c-1.023-0.627-1.88-1.152-2.557-1.567
						C669.541,331.134,669.217,330.912,669.232,330.887z"/>
				</g>
			</g>
			<g>
				<g>
					<path style="fill:#E0E0E0;" d="M692.928,344.457c-0.015-0.026,0.335-0.259,0.981-0.657c0.718-0.437,1.638-0.998,2.742-1.67
						c2.314-1.41,5.504-3.368,8.966-5.627c3.466-2.254,6.551-4.375,8.774-5.924c1.061-0.737,1.947-1.352,2.637-1.831
						c0.625-0.43,0.979-0.656,0.997-0.632c0.018,0.024-0.303,0.296-0.897,0.767c-0.595,0.471-1.467,1.139-2.558,1.944
						c-2.181,1.615-5.244,3.78-8.717,6.038c-3.468,2.263-6.69,4.183-9.047,5.528c-1.18,0.669-2.141,1.201-2.814,1.552
						C693.321,344.299,692.943,344.483,692.928,344.457z"/>
				</g>
			</g>
		</g>
		<g>
			<g>
				<g>
					<polygon style="fill:#E0E0E0;" points="709.883,363.925 678.674,363.925 688.86,441.032 699.697,441.032 					"/>
				</g>
			</g>
			<g>
				<g>
					<g>
						<path style="fill:#F5F5F5;" d="M680.293,373.404c-0.012,0.008,0.034,0.109,0.167,0.275c0.133,0.164,0.377,0.377,0.753,0.539
							c0.74,0.322,2.039,0.348,3.296-0.405c1.26-0.695,2.358-2.061,4.047-2.664c1.675-0.64,3.75-0.525,5.739,0.114
							c2.012,0.623,3.76,1.641,5.344,2.589c1.587,0.944,3.041,1.786,4.346,2.332c1.295,0.566,2.424,0.826,3.205,0.926
							c0.392,0.052,0.697,0.068,0.906,0.061c0.208,0,0.316-0.009,0.317-0.026c0.018-0.102-1.766-0.086-4.281-1.291
							c-1.26-0.576-2.675-1.438-4.25-2.405c-1.567-0.967-3.357-2.031-5.435-2.673c-2.053-0.66-4.261-0.78-6.057-0.066
							c-0.898,0.342-1.651,0.879-2.28,1.41c-0.637,0.527-1.208,1.024-1.786,1.384c-1.141,0.737-2.341,0.768-3.04,0.527
							C680.564,373.781,680.334,373.36,680.293,373.404z"/>
					</g>
				</g>
			</g>
			<g>
				<g>
					<g>
						<path style="fill:#F5F5F5;" d="M681.432,387.605c0.042,0.026,0.247-0.318,0.735-0.827c0.497-0.495,1.31-1.143,2.492-1.581
							c1.171-0.449,2.675-0.716,4.34-0.654c1.672,0.058,3.494,0.425,5.431,0.74c1.934,0.325,3.849,0.47,5.56,0.23
							c1.711-0.219,3.196-0.712,4.375-1.249c1.182-0.539,2.056-1.129,2.631-1.564c0.576-0.437,0.85-0.73,0.833-0.75
							c-0.058-0.084-1.264,0.995-3.608,1.984c-1.17,0.483-2.626,0.926-4.287,1.113c-1.662,0.206-3.502,0.055-5.424-0.267
							c-1.921-0.312-3.772-0.672-5.497-0.706c-1.727-0.039-3.284,0.276-4.489,0.789c-1.216,0.501-2.038,1.228-2.505,1.782
							c-0.225,0.288-0.388,0.518-0.472,0.692C681.457,387.505,681.417,387.596,681.432,387.605z"/>
					</g>
				</g>
			</g>
			<g>
				<g>
					<g>
						<path style="fill:#F5F5F5;" d="M706.348,395.208c0.012-0.023-0.277-0.218-0.86-0.447c-0.581-0.23-1.468-0.465-2.586-0.555
							c-1.118-0.089-2.457-0.017-3.911,0.224c-1.456,0.236-3.015,0.638-4.654,0.986c-1.637,0.345-3.217,0.577-4.648,0.525
							c-1.43-0.05-2.702-0.363-3.69-0.798c-2.008-0.881-2.723-2.165-2.799-2.083c-0.019,0.012,0.122,0.333,0.528,0.815
							c0.402,0.481,1.104,1.094,2.119,1.595c1.013,0.498,2.332,0.862,3.821,0.94c1.492,0.081,3.117-0.146,4.773-0.495
							c1.657-0.352,3.205-0.766,4.629-1.022c1.423-0.261,2.723-0.367,3.81-0.326C705.071,394.639,706.316,395.301,706.348,395.208z"
							/>
					</g>
				</g>
			</g>
			<g>
				<g>
					<g>
						<path style="fill:#F5F5F5;" d="M684.19,405.902c0.015,0.082,1.114-0.695,3.03-0.306c0.939,0.169,1.989,0.645,3.17,1.182
							c1.176,0.548,2.594,1.018,4.115,1.134c3.066,0.295,5.793-0.696,7.466-1.73c0.857-0.508,1.454-1.055,1.858-1.429
							c0.38-0.404,0.575-0.637,0.55-0.661c-0.068-0.075-0.888,0.848-2.588,1.779c-1.671,0.925-4.303,1.817-7.24,1.534
							c-2.955-0.169-5.223-1.931-7.271-2.164c-0.999-0.149-1.833-0.006-2.354,0.204C684.397,405.651,684.174,405.884,684.19,405.902
							z"/>
					</g>
				</g>
			</g>
			<g>
				<g>
					<g>
						<path style="fill:#F5F5F5;" d="M685.928,420.702c0,0.058,1.047,0.051,2.602-0.517c1.569-0.524,3.51-1.727,5.778-2.628
							c1.138-0.434,2.278-0.701,3.316-0.695c1.038,0.005,1.965,0.258,2.667,0.608c1.434,0.714,1.849,1.728,1.928,1.664
							c0.023-0.01-0.041-0.264-0.296-0.658c-0.252-0.392-0.73-0.903-1.462-1.324c-0.73-0.417-1.713-0.728-2.829-0.76
							c-1.12-0.033-2.326,0.239-3.505,0.688c-2.35,0.937-4.23,2.174-5.728,2.768C686.919,420.488,685.916,420.62,685.928,420.702z"
							/>
					</g>
				</g>
			</g>
			<g>
				<g>
					<g>
						<path style="fill:#F5F5F5;" d="M687.458,427.587c-0.017,0.064,0.731,0.333,1.976,0.642c1.244,0.309,2.99,0.64,4.939,0.833
							c1.951,0.19,3.727,0.206,5.008,0.145c1.281-0.06,2.067-0.179,2.063-0.244c-0.008-0.154-3.163-0.019-7.021-0.407
							C690.565,428.185,687.496,427.438,687.458,427.587z"/>
					</g>
				</g>
			</g>
		</g>
	</g>
	<g>
		<g>
			<rect x="595.807" y="84.303" style="fill:#E0E0E0;" width="96.363" height="63.356"/>
		</g>
		<g>
			<rect x="599.159" y="86.894" style="fill:#FAFAFA;" width="89.609" height="57.932"/>
		</g>
		<g>
			<rect x="629.347" y="108.011" style="fill:#E0E0E0;" width="29.233" height="15.941"/>
		</g>
	</g>
</g>
<g id="Background_Simple" style="display:none;">
	<g style="display:inline;">
		<path style="fill:#F5F5F5;" d="M676.547,217.54c-3.427-28.335-24.19-53.851-51.237-62.964
			c-30.815-10.383-64.409-0.235-95.107,10.492c-30.697,10.727-63.46,22.221-95.008,14.341
			c-43.225-10.796-69.295-53.497-104.096-81.315c-37.222-29.753-87.366-42.721-134.346-34.744
			c-26.738,4.54-53.252,16.298-70.169,37.497c-14.693,18.411-31.107,47.564-31.821,71.108
			c-1.297,42.791,10.063,82.953,51.648,130.822c124.642,129.62,270.372,109.693,401.806,83.991
			c32.578-6.371,66.57-30.948,94.022-59.454C674.549,293.764,680.532,250.496,676.547,217.54z"/>
	</g>
</g>
<g id="Floor">
	<g>
		<g>
			<path style="fill:#263238;" d="M719.248,442.054c0,0.144-154.138,0.26-344.232,0.26c-190.16,0-344.265-0.116-344.265-0.26
				s154.104-0.26,344.265-0.26C565.111,441.793,719.248,441.91,719.248,442.054z"/>
		</g>
	</g>
</g>
<g id="Device">
	<g>
		<g>
			<path style="fill:#EBEBEB;" d="M480.234,251.005H290.096V38.248h206.358v196.536
				C496.453,243.743,489.191,251.005,480.234,251.005z"/>
		</g>
		<g>
			<g>
				<g>
					<path style="fill:#455A64;" d="M479.413,101.569c0,0.431-37.298,0.781-83.296,0.781c-46.014,0-83.304-0.35-83.304-0.781
						c0-0.431,37.29-0.781,83.304-0.781C442.115,100.788,479.413,101.138,479.413,101.569z"/>
				</g>
			</g>
			<g>
				<g>
					<path style="fill:#455A64;" d="M397.103,115.981c0,0.432-18.427,0.781-41.153,0.781c-22.734,0-41.157-0.35-41.157-0.781
						c0-0.431,18.423-0.781,41.157-0.781C378.675,115.2,397.103,115.55,397.103,115.981z"/>
				</g>
			</g>
			<g>
				<g>
					<path style="fill:#455A64;" d="M430.027,114.646c0,0.432-4.881,0.781-10.9,0.781c-6.021,0-10.901-0.35-10.901-0.781
						c0-0.431,4.88-0.781,10.901-0.781C425.146,113.865,430.027,114.215,430.027,114.646z"/>
				</g>
			</g>
			<g>
				<g>
					<path style="fill:#455A64;" d="M483.862,113.757c0,0.432-9.662,0.781-21.578,0.781c-11.92,0-21.58-0.35-21.58-0.781
						c0-0.431,9.66-0.781,21.58-0.781C474.2,112.976,483.862,113.325,483.862,113.757z"/>
				</g>
			</g>
			<g>
				<g>
					<path style="fill:#455A64;" d="M390.229,129.774c0,0.432-17.331,0.781-38.706,0.781c-21.382,0-38.71-0.35-38.71-0.781
						c0-0.431,17.328-0.781,38.71-0.781C372.897,128.993,390.229,129.342,390.229,129.774z"/>
				</g>
			</g>
			<g>
				<g>
					<path style="fill:#455A64;" d="M483.862,129.376c0,0.432-18.925,0.781-42.265,0.781c-23.348,0-42.269-0.35-42.269-0.781
						c0-0.431,18.921-0.781,42.269-0.781C464.937,128.595,483.862,128.945,483.862,129.376z"/>
				</g>
			</g>
			<g>
				<g>
					<path style="fill:#455A64;" d="M483.862,143.255c0,0.432-8.426,0.781-18.818,0.781c-10.396,0-18.82-0.35-18.82-0.781
						c0-0.431,8.425-0.781,18.82-0.781C475.435,142.474,483.862,142.824,483.862,143.255z"/>
				</g>
			</g>
		</g>
		<g>
			<g>
				<path style="fill:#E8505B;" d="M405.999,86.12c0,0.432-20.419,0.781-45.601,0.781c-25.191,0-45.605-0.35-45.605-0.781
					c0-0.431,20.414-0.781,45.605-0.781C385.58,85.339,405.999,85.689,405.999,86.12z"/>
			</g>
		</g>
	</g>
	<g>
		<g>
			<g>
				<g>
					<g>
						<g>
							<g>
								<path style="fill:#263238;" d="M532.864,440.889H133.333c-8.045,0-14.567-6.522-14.567-14.567V171.984
									c0-8.045,6.522-14.567,14.567-14.567h399.531c8.045,0,14.567,6.522,14.567,14.567v254.338
									C547.431,434.367,540.909,440.889,532.864,440.889z"/>
							</g>
						</g>
					</g>
					<g>
						<g>
							<g>
								<path style="fill:#263238;" d="M548.067,444.727H119.237c-9.829,0-17.798-7.968-17.798-17.798v-7.006h464.426v7.006
									C565.865,436.759,557.897,444.727,548.067,444.727z"/>
							</g>
						</g>
					</g>
					<g>
						<g>
							<g>
								<rect x="130.872" y="168.679" style="fill:#455A64;" width="404.454" height="239.388"/>
							</g>
						</g>
					</g>
					<g>
						<g>
							<g>
								<g>
									<path style="fill:#455A64;" d="M291.44,419.923c-0.008-0.004,0.143-0.009,0.446-0.013c0.33-0.003,0.78-0.008,1.359-0.014
										c1.232-0.007,3.006-0.017,5.282-0.03c4.642-0.019,11.324-0.046,19.597-0.08c16.68-0.036,39.769-0.085,65.524-0.141
										l0.483-0.001l-0.244,0.418c-0.824,1.413-1.71,2.93-2.601,4.456c-0.934,1.6-1.862,3.189-2.751,4.711l-0.081,0.138l-0.159,0
										c-35.638-0.067-66.072-0.124-81.095-0.152l-0.07,0l-0.036-0.059c-1.848-3.005-3.271-5.319-4.247-6.906
										c-0.461-0.755-0.815-1.336-1.068-1.749C291.546,420.112,291.44,419.923,291.44,419.923s0.145,0.21,0.402,0.607
										c0.268,0.414,0.645,0.997,1.135,1.753c0.995,1.549,2.447,3.807,4.332,6.74l-0.106-0.059
										c15.022-0.028,45.457-0.085,81.095-0.152l-0.239,0.137c0.888-1.522,1.816-3.112,2.75-4.711
										c0.891-1.526,1.777-3.043,2.602-4.456l0.239,0.417c-25.65-0.055-48.645-0.105-65.257-0.141
										c-8.312-0.034-15.026-0.061-19.689-0.08c-2.311-0.013-4.112-0.023-5.364-0.03c-0.599-0.006-1.064-0.01-1.405-0.013
										C291.616,419.932,291.44,419.923,291.44,419.923z"/>
								</g>
							</g>
						</g>
					</g>
				</g>
			</g>
		</g>
		<g>
			<g>
				<line style="fill:#263238;" x1="118.766" y1="419.923" x2="547.431" y2="419.923"/>
			</g>
			<g>
				<g>
					<path style="fill:#455A64;" d="M547.431,419.923c0,0.144-95.968,0.26-214.322,0.26c-118.396,0-214.343-0.117-214.343-0.26
						c0-0.144,95.947-0.26,214.343-0.26C451.463,419.663,547.431,419.779,547.431,419.923z"/>
				</g>
			</g>
		</g>
	</g>
	<g>
		<g>
			<path style="fill:#263238;" d="M438.031,120.871L438.031,120.871c6.613,0,11.974,5.361,11.974,11.974v24.571h-35.806v-22.668
				c0-7.664,6.213-13.878,13.878-13.878H438.031z"/>
		</g>
		<g>
			<g>
				<path style="fill:#263238;" d="M438.031,120.871c0,0.144-33.784,0.231-75.449,0.194c-41.679-0.037-75.456-0.183-75.455-0.327
					c0-0.144,33.777-0.231,75.456-0.194C404.247,120.581,438.031,120.727,438.031,120.871z"/>
			</g>
		</g>
		<g>
			<path style="fill:#FAFAFA;" d="M437.716,120.841l-14.932-0.103l-21.69,0.132H241.753c-13.531,0-24.499,10.969-24.499,24.499
				v258.747v4.525h206.357V134.303C424.216,120.871,437.716,120.841,437.716,120.841z"/>
		</g>
		<g>
			<path style="fill:#263238;" d="M437.716,120.841l-124.426,0.272l-62.214,0.047l-7.777,0.005
				c-1.303-0.025-2.579,0.051-3.857,0.119c-1.265,0.179-2.544,0.319-3.773,0.688c-4.982,1.234-9.449,4.222-12.698,8.166
				c-1.62,1.986-2.878,4.249-3.799,6.631c-0.201,0.606-0.479,1.189-0.619,1.815l-0.477,1.859c-0.195,1.264-0.436,2.524-0.445,3.807
				c-0.11,5.152-0.025,10.36-0.047,15.537l0.167,248.854l-0.497-0.497l206.357,0.134l-0.363,0.363l0.1-148.004l0.119-74
				l0.072-36.999l0.018-9.25l0.009-4.625c0.003-0.771-0.024-1.542,0.097-2.31c0.095-0.766,0.126-1.544,0.363-2.285
				c0.682-2.998,2.4-5.823,4.997-7.534c1.262-0.885,2.672-1.561,4.15-2.004C434.646,121.181,436.175,120.89,437.716,120.841z
				 M437.716,120.841c-1.542,0.054-3.068,0.352-4.538,0.807c-1.474,0.448-2.879,1.129-4.134,2.017
				c-2.583,1.717-4.28,4.535-4.948,7.521c-0.233,0.738-0.26,1.512-0.352,2.275c-0.117,0.762-0.088,1.535-0.088,2.305l0.009,4.625
				l0.018,9.25l0.072,37.001l0.119,74.001l0.1,147.998l0,0.363l-0.364,0l-206.357,0.134l-0.498,0l0-0.498l0.167-248.854
				c0.029-5.19-0.051-10.356,0.068-15.567c0.013-1.316,0.26-2.61,0.463-3.906l0.492-1.907c0.145-0.642,0.429-1.24,0.637-1.862
				c0.948-2.443,2.243-4.763,3.907-6.797c3.336-4.04,7.921-7.095,13.028-8.355c1.26-0.376,2.571-0.519,3.867-0.699
				c1.311-0.07,2.623-0.144,3.913-0.117l7.777,0.005l62.213,0.047L437.716,120.841z"/>
		</g>
		<g>
			<path style="fill:#E8505B;" d="M248.339,168.24h36.01l0.058,12.062h-1.723c-0.565-4.315-2.181-7.234-4.848-8.758
				c-1.5-0.84-3.738-1.298-6.718-1.377v31.508c0,2.202,0.385,3.663,1.154,4.384c0.769,0.722,2.37,1.082,4.804,1.082v1.518h-21.319
				v-1.518c2.336,0,3.889-0.365,4.658-1.096c0.768-0.731,1.153-2.188,1.153-4.37v-31.508c-2.92,0.079-5.159,0.537-6.717,1.377
				c-2.862,1.563-4.479,4.481-4.848,8.758h-1.724L248.339,168.24z"/>
		</g>
		<g>
			<g>
				<path style="fill:#E8505B;" d="M395.295,170.959c0,0.431-19.864,0.781-44.362,0.781c-24.506,0-44.366-0.35-44.366-0.781
					c0-0.431,19.86-0.781,44.366-0.781C375.431,170.178,395.295,170.528,395.295,170.959z"/>
			</g>
		</g>
		<g>
			<g>
				<path style="fill:#455A64;" d="M342.653,185.135c0,0.432-7.68,0.781-17.152,0.781c-9.475,0-17.154-0.35-17.154-0.781
					c0-0.431,7.679-0.781,17.154-0.781C334.973,184.354,342.653,184.704,342.653,185.135z"/>
			</g>
		</g>
		<g>
			<g>
				<path style="fill:#455A64;" d="M299.413,228.379c0,0.432-14.586,0.781-32.574,0.781c-17.995,0-32.578-0.35-32.578-0.781
					c0-0.431,14.583-0.781,32.578-0.781C284.827,227.598,299.413,227.947,299.413,228.379z"/>
			</g>
		</g>
		<g>
			<g>
				<path style="fill:#E8505B;" d="M373.19,228.379c0,0.432-14.586,0.781-32.574,0.781c-17.995,0-32.578-0.35-32.578-0.781
					c0-0.431,14.583-0.781,32.578-0.781C358.605,227.598,373.19,227.947,373.19,228.379z"/>
			</g>
		</g>
		<g>
			<g>
				<path style="fill:#455A64;" d="M299.413,239.927c0,0.432-14.586,0.781-32.574,0.781c-17.995,0-32.578-0.35-32.578-0.781
					c0-0.431,14.583-0.781,32.578-0.781C284.827,239.146,299.413,239.496,299.413,239.927z"/>
			</g>
		</g>
		<g>
			<g>
				<path style="fill:#E8505B;" d="M299.413,251.476c0,0.432-14.586,0.781-32.574,0.781c-17.995,0-32.578-0.35-32.578-0.781
					c0-0.431,14.583-0.781,32.578-0.781C284.827,250.695,299.413,251.044,299.413,251.476z"/>
			</g>
		</g>
		<g>
			<g>
				<path style="fill:#455A64;" d="M342.653,208.658c0,0.432-7.68,0.781-17.152,0.781c-9.475,0-17.154-0.35-17.154-0.781
					c0-0.431,7.679-0.781,17.154-0.781C334.973,207.877,342.653,208.227,342.653,208.658z"/>
			</g>
		</g>
		<g>
			<g>
				<path style="fill:#455A64;" d="M402.151,228.379c0,0.432-5.12,0.781-11.435,0.781c-6.317,0-11.436-0.35-11.436-0.781
					c0-0.431,5.119-0.781,11.436-0.781C397.031,227.598,402.151,227.947,402.151,228.379z"/>
			</g>
		</g>
		<g>
			<g>
				<path style="fill:#455A64;" d="M408.27,185.135c0,0.432-13.178,0.781-29.431,0.781c-16.258,0-29.434-0.35-29.434-0.781
					c0-0.431,13.175-0.781,29.434-0.781C395.091,184.354,408.27,184.704,408.27,185.135z"/>
			</g>
		</g>
		<g>
			<g>
				<path style="fill:#455A64;" d="M405.613,196.396c0,0.432-21.776,0.781-48.631,0.781c-26.865,0-48.636-0.35-48.636-0.781
					c0-0.431,21.771-0.781,48.636-0.781C383.837,195.615,405.613,195.965,405.613,196.396z"/>
			</g>
		</g>
		<g>
			<g>
				<path style="fill:#455A64;" d="M402.151,239.927c0,0.432-21.069,0.781-47.054,0.781c-25.993,0-47.058-0.35-47.058-0.781
					c0-0.431,21.065-0.781,47.058-0.781C381.081,239.146,402.151,239.496,402.151,239.927z"/>
			</g>
		</g>
		<g>
			<g>
				<path style="fill:#E8505B;" d="M402.151,273.361c0,0.431-19.771,0.781-44.153,0.781c-24.391,0-44.158-0.35-44.158-0.781
					c0-0.431,19.766-0.781,44.158-0.781C382.38,272.579,402.151,272.929,402.151,273.361z"/>
			</g>
		</g>
		<g>
			<g>
				<path style="fill:#455A64;" d="M402.151,284.6c0,0.432-19.771,0.781-44.153,0.781c-24.391,0-44.158-0.35-44.158-0.781
					c0-0.431,19.766-0.781,44.158-0.781C382.38,283.819,402.151,284.169,402.151,284.6z"/>
			</g>
		</g>
		<g>
			<g>
				<path style="fill:#455A64;" d="M402.151,295.84c0,0.432-19.771,0.781-44.153,0.781c-24.391,0-44.158-0.35-44.158-0.781
					c0-0.431,19.766-0.781,44.158-0.781C382.38,295.059,402.151,295.409,402.151,295.84z"/>
			</g>
		</g>
		<g>
			<g>
				<path style="fill:#455A64;" d="M402.151,307.079c0,0.431-19.771,0.781-44.153,0.781c-24.391,0-44.158-0.35-44.158-0.781
					c0-0.431,19.766-0.781,44.158-0.781C382.38,306.298,402.151,306.648,402.151,307.079z"/>
			</g>
		</g>
		<g>
			<g>
				<path style="fill:#455A64;" d="M364.679,318.319c0,0.216-2.845,0.411-7.445,0.553c-4.6,0.141-10.955,0.229-17.973,0.229
					c-7.021,0-13.376-0.087-17.976-0.229c-4.6-0.141-7.445-0.337-7.445-0.553c0-0.216,2.845-0.411,7.445-0.552
					c4.6-0.141,10.955-0.229,17.976-0.229c7.018,0,13.373,0.087,17.973,0.229C361.834,317.908,364.679,318.103,364.679,318.319z"/>
			</g>
		</g>
		<g>
			<g>
				<path style="fill:#455A64;" d="M386.15,252.08c0,0.431-17.029,0.781-38.031,0.781c-21.009,0-38.034-0.35-38.034-0.781
					c0-0.431,17.025-0.781,38.034-0.781C369.121,251.299,386.15,251.649,386.15,252.08z"/>
			</g>
		</g>
		<g>
			<g>
				<g>
					<g>
						<polygon style="fill:#E0E0E0;" points="297.871,274.63 302.557,361.388 217.727,372.013 217.661,273.894 						"/>
					</g>
				</g>
			</g>
			<g>
				<g>
					<g>
						
							<rect x="199.274" y="257.439" transform="matrix(0.0064 -1 1 0.0064 -71.2768 558.2645)" style="fill:#F5F5F5;" width="92.037" height="115.122"/>
					</g>
				</g>
			</g>
			<g>
				
					<rect x="204.993" y="261.483" transform="matrix(0.0064 -1 1 0.0064 -71.3508 558.189)" style="fill:#E8505B;" width="80.449" height="107.034"/>
			</g>
			<g style="opacity:0.2;">
				<polygon points="191.443,354.88 229.148,305.115 252.104,336.549 267.918,319.925 298.475,355.567 				"/>
			</g>
			<g style="opacity:0.2;">
				<g>
					<g>
						<path d="M262.175,299.201c-0.03,4.654-3.827,8.403-8.482,8.373c-4.654-0.03-8.403-3.827-8.373-8.482
							c0.03-4.654,3.827-8.403,8.482-8.373S262.205,294.546,262.175,299.201z"/>
					</g>
				</g>
			</g>
		</g>
		<g>
			<g>
				<path style="fill:#263238;" d="M313.644,383.104c0,0.983-0.797,1.78-1.78,1.78c-0.983,0-1.78-0.797-1.78-1.78
					s0.797-1.78,1.78-1.78C312.848,381.324,313.644,382.121,313.644,383.104z"/>
			</g>
			<g>
				<path style="fill:#263238;" d="M324.208,383.104c0,0.983-0.797,1.78-1.78,1.78s-1.78-0.797-1.78-1.78s0.797-1.78,1.78-1.78
					S324.208,382.121,324.208,383.104z"/>
			</g>
			<g>
				<path style="fill:#263238;" d="M334.771,383.104c0,0.983-0.797,1.78-1.78,1.78c-0.983,0-1.78-0.797-1.78-1.78
					s0.797-1.78,1.78-1.78C333.974,381.324,334.771,382.121,334.771,383.104z"/>
			</g>
		</g>
		<g>
			<g>
				<path style="fill:#E8505B;" d="M373.686,341.74c0,0.431-14.586,0.781-32.574,0.781c-17.995,0-32.578-0.35-32.578-0.781
					c0-0.431,14.583-0.781,32.578-0.781C359.1,340.959,373.686,341.309,373.686,341.74z"/>
			</g>
		</g>
		<g>
			<g>
				<path style="fill:#455A64;" d="M402.646,353.289c0,0.432-21.069,0.781-47.054,0.781c-25.993,0-47.058-0.35-47.058-0.781
					c0-0.431,21.065-0.781,47.058-0.781C381.577,352.508,402.646,352.857,402.646,353.289z"/>
			</g>
		</g>
	</g>
</g>
<g id="Box">
	<g>
		<g>
			<g>
				<g>
					<g>
						
							<rect x="616.47" y="365.799" transform="matrix(0.0064 -1 1 0.0064 239.5887 1042.0752)" style="fill:#F5F5F5;" width="55.439" height="69.345"/>
					</g>
				</g>
			</g>
			
				<rect x="619.915" y="368.235" transform="matrix(0.0064 -1 1 0.0064 239.5433 1042.0292)" style="fill:#E8505B;" width="48.459" height="64.473"/>
			<polygon style="opacity:0.2;" points="611.753,424.493 634.464,394.517 648.292,413.451 657.818,403.438 676.224,424.907 			"/>
			<g style="opacity:0.2;">
				<g>
					<path d="M654.358,390.954c-0.018,2.804-2.305,5.062-5.109,5.044s-5.062-2.305-5.044-5.109c0.018-2.804,2.305-5.062,5.109-5.044
						C652.118,385.863,654.376,388.151,654.358,390.954z"/>
				</g>
			</g>
		</g>
		<g>
			<g>
				<g>
					<g>
						
							<rect x="606.301" y="360.01" transform="matrix(0.0064 -1 1 0.0064 235.2729 1026.1539)" style="fill:#F5F5F5;" width="55.439" height="69.345"/>
					</g>
				</g>
			</g>
			
				<rect x="609.746" y="362.446" transform="matrix(0.0064 -1 1 0.0064 235.2285 1026.1084)" style="fill:#E8505B;" width="48.459" height="64.473"/>
			<polygon style="opacity:0.2;" points="601.584,418.704 624.295,388.728 638.123,407.662 647.649,397.649 666.055,419.118 			"/>
			<g style="opacity:0.2;">
				<g>
					<path d="M644.189,385.165c-0.018,2.804-2.305,5.062-5.109,5.044c-2.804-0.018-5.062-2.305-5.044-5.109
						c0.018-2.804,2.305-5.062,5.109-5.044C641.949,380.074,644.207,382.362,644.189,385.165z"/>
				</g>
			</g>
		</g>
		<g>
			<g>
				<g>
					<g>
						
							<rect x="597.245" y="355.226" transform="matrix(0.0064 -1 1 0.0064 231.0597 1012.3452)" style="fill:#F5F5F5;" width="55.439" height="69.345"/>
					</g>
				</g>
			</g>
			
				<rect x="600.689" y="357.661" transform="matrix(0.0064 -1 1 0.0064 231.0154 1012.2997)" style="fill:#E8505B;" width="48.459" height="64.473"/>
			<polygon style="opacity:0.2;" points="592.528,413.92 615.239,383.944 629.067,402.878 638.593,392.865 656.999,414.334 			"/>
			<g style="opacity:0.2;">
				<g>
					<path d="M635.133,380.381c-0.018,2.804-2.305,5.062-5.109,5.044c-2.804-0.018-5.062-2.305-5.044-5.109
						c0.018-2.804,2.305-5.062,5.109-5.044C632.893,375.29,635.151,377.578,635.133,380.381z"/>
				</g>
			</g>
		</g>
		<g>
			<g>
				<g>
					<g>
						
							<rect x="587.076" y="361.181" transform="matrix(0.0064 -1 1 0.0064 215.0014 1008.0927)" style="fill:#F5F5F5;" width="55.439" height="69.345"/>
					</g>
				</g>
			</g>
			
				<rect x="590.52" y="363.616" transform="matrix(0.0064 -1 1 0.0064 214.957 1008.0473)" style="fill:#455A64;" width="48.459" height="64.473"/>
			<polygon style="opacity:0.2;" points="582.358,419.875 605.07,389.898 618.898,408.833 628.424,398.819 646.83,420.289 			"/>
			<g style="opacity:0.2;">
				<g>
					<path d="M624.964,386.336c-0.018,2.804-2.305,5.062-5.109,5.044c-2.804-0.018-5.062-2.305-5.044-5.109
						c0.018-2.804,2.305-5.062,5.109-5.044C622.724,381.245,624.982,383.532,624.964,386.336z"/>
				</g>
			</g>
		</g>
		<g>
			<rect x="649.645" y="388.526" style="fill:#263238;" width="40.035" height="53.528"/>
			<path style="fill:#E8505B;" d="M572.971,388.526v53.528h80.07v-53.528H572.971z M621.518,401.194h-17.023
				c-2.035,0-3.684-1.649-3.684-3.684c0-2.035,1.65-3.684,3.684-3.684h17.023c2.035,0,3.684,1.649,3.684,3.684
				C625.202,399.544,623.553,401.194,621.518,401.194z"/>
		</g>
	</g>
</g>
<g id="Character">
	<g>
		<g>
			<g>
				<g>
					<path style="fill:#455A64;" d="M521.054,436.459l-74.457-4.559c-0.469-1.065-0.782-1.686-0.782-1.686l-20.18,0.402
						l-6.566-0.402c0,0-0.1,0.2-0.26,0.538l-67.74,1.35c-13.505,0-27.705,8.24-27.704,18.768
						c-0.171,10.021,4.682,20.897,16.783,20.651l92.295-0.31l92.295,0.31c12.101,0.246,15.301-7.051,15.319-15.707
						C541.47,439.69,531.371,436.593,521.054,436.459z"/>
				</g>
				<g>
					<g>
						<path style="fill:#263238;" d="M348.618,471.526c0,0,0.15-0.017,0.444-0.026c0.316-0.006,0.749-0.014,1.305-0.025
							c1.172-0.011,2.861-0.027,5.028-0.047c4.395-0.019,10.725-0.047,18.571-0.081c15.746-0.021,37.567-0.049,61.973-0.082
							l-0.259,0.276c-0.126-2.024-0.262-4.189-0.398-6.371c-0.278-4.465-0.551-8.857-0.811-13.034l0.229,0.24
							c-22.669-2.522-42.7-4.751-57.09-6.353c-7.165-0.82-12.924-1.479-16.917-1.936c-1.965-0.235-3.495-0.418-4.558-0.546
							c-0.502-0.065-0.893-0.116-1.18-0.153c-0.265-0.037-0.4-0.06-0.399-0.068c0.001-0.008,0.138-0.001,0.405,0.02
							c0.288,0.026,0.681,0.061,1.185,0.106c1.065,0.106,2.598,0.259,4.568,0.456c3.997,0.42,9.762,1.026,16.934,1.78
							c14.395,1.558,34.432,3.727,57.108,6.181l0.216,0.023l0.014,0.217c0.262,4.177,0.537,8.569,0.816,13.034
							c0.136,2.182,0.271,4.347,0.397,6.371l0.017,0.276l-0.277,0c-24.406-0.032-46.226-0.061-61.973-0.082
							c-7.845-0.034-14.176-0.062-18.571-0.081c-2.167-0.02-3.856-0.036-5.028-0.047c-0.556-0.011-0.989-0.019-1.305-0.025
							C348.768,471.543,348.618,471.526,348.618,471.526z"/>
					</g>
				</g>
				<g>
					<g>
						<path style="fill:#263238;" d="M367.648,445.049c-0.057,0.07-0.983-0.676-2.609-1.668c-1.622-0.994-3.991-2.172-6.778-2.979
							c-2.792-0.798-5.424-1.058-7.327-1.078c-1.905-0.024-3.085,0.116-3.096,0.027c-0.005-0.036,0.286-0.101,0.818-0.189
							c0.531-0.096,1.31-0.171,2.275-0.206c1.928-0.075,4.626,0.131,7.474,0.945c2.844,0.823,5.239,2.081,6.833,3.169
							c0.799,0.542,1.419,1.02,1.818,1.383C367.459,444.812,367.671,445.022,367.648,445.049z"/>
					</g>
				</g>
				<g>
					<g>
						<path style="fill:#263238;" d="M515.274,441.088c0.033,0.14-14.653,3.691-32.797,7.931
							c-18.15,4.241-32.886,7.565-32.919,7.424c-0.033-0.14,14.65-3.69,32.8-7.932C500.503,444.272,515.241,440.948,515.274,441.088
							z"/>
					</g>
				</g>
				<g>
					<g>
						<path style="fill:#263238;" d="M502.856,439.653c0.049,0.162-2.837,0.744-5.754,2.755c-2.943,1.975-4.543,4.446-4.676,4.341
							c-0.052-0.033,0.275-0.691,1.001-1.628c0.723-0.935,1.882-2.12,3.382-3.144c1.502-1.019,3.03-1.662,4.165-1.991
							C502.112,439.655,502.845,439.593,502.856,439.653z"/>
					</g>
				</g>
			</g>
			<g>
				<path style="fill:#FFBE9D;" d="M475.141,355.121l23.584,41.054c2.912,5.07,3.091,11.261,0.477,16.49l0,0
					c-3.034,6.069-9.312,9.827-16.094,9.636l-36.214-1.022l-0.954-13.169l31.895-6.108l-21.504-37.218L475.141,355.121z"/>
			</g>
			<g>
				<path style="fill:#FFBE9D;" d="M387.244,425.375l33.3,8.821l0.724-9.986l-30.688-17.824l22.413-41.602l-18.811-9.663
					l-23.584,41.054l0,0c-5.709,10.604-0.375,23.786,11.101,27.437L387.244,425.375z"/>
			</g>
			<g>
				<path style="fill:#E8505B;" d="M465.128,381.48l22.761-11.986c0,0-3.788-8.017-9.751-16.261
					c-7.052-9.749-17.983-16.566-30.395-19.16c-0.001,0-0.001,0-0.002-0.001l-26.18,0.309c-3.733,0.402-6.786,1.114-9.336,2.149
					l0.019-0.101c-14.208,3.133-29.974,34.121-29.974,34.121l20.712,10.904l0.458,3.258c0.603,4.288,2.477,8.318,5.398,11.609
					l-6.032,39.669l67.221,1.39l-8.559-28.409L465.128,381.48z"/>
			</g>
			<g>
				<g>
					<path style="fill:#263238;" d="M409.446,396.537c-0.018,0.022-0.391-0.226-1.001-0.758c-0.614-0.526-1.44-1.371-2.286-2.556
						c-1.688-2.349-3.196-6.325-2.805-10.815c0.316-2.212,0.945-4.219,1.537-6.03c0.603-1.809,1.214-3.411,1.747-4.748
						c0.534-1.337,0.993-2.407,1.327-3.139c0.334-0.732,0.54-1.128,0.573-1.114c0.033,0.014-0.109,0.436-0.385,1.191
						c-0.313,0.854-0.705,1.923-1.17,3.193c-0.487,1.35-1.06,2.96-1.634,4.765c-0.563,1.804-1.172,3.811-1.476,5.946
						c-0.203,2.12,0.08,4.226,0.566,6.02c0.482,1.813,1.261,3.333,2.027,4.525C408.051,395.387,409.531,396.452,409.446,396.537z"/>
				</g>
			</g>
			<g>
				<g>
					<polygon style="fill:#263238;" points="399.37,445.57 395.575,401.323 477.457,401.323 472.03,446.121 					"/>
				</g>
				<g>
					<path style="fill:#FAFAFA;" d="M441.73,424.92c0,2.879-2.334,5.214-5.214,5.214c-2.879,0-5.214-2.334-5.214-5.214
						c0-2.88,2.334-5.214,5.214-5.214C439.395,419.706,441.73,422.041,441.73,424.92z"/>
				</g>
			</g>
			<g>
				<g>
					<polygon style="fill:#FFBE9D;" points="435.083,454.214 448.985,456.154 448.985,471.266 436.199,470.936 					"/>
				</g>
				<g>
					<g>
						<path style="fill:#E8505B;" d="M448.985,456.154h6.25c1.216,0,2.411,0.32,3.465,0.929l3.296,1.903
							c1.08,0.624,4.572,2.365,5.76,2.747c3.801,1.221,10.195,2.865,11.541,3.903c3.845,2.965,2.676,6.471,0.564,6.837
							c-1.855,0.322-30.876-1.208-30.876-1.208V456.154z"/>
					</g>
					<g>
						<g>
							<path style="fill:#263238;" d="M459.253,470.017c-0.133,0.03-0.612-1.712-0.674-3.928c-0.071-2.215,0.302-3.984,0.437-3.961
								c0.15,0.02,0.013,1.781,0.084,3.946C459.16,468.239,459.401,469.989,459.253,470.017z"/>
						</g>
					</g>
					<g>
						<g>
							<path style="fill:#263238;" d="M462.218,469.934c-0.144-0.001-0.248-1.617-0.232-3.608c0.016-1.992,0.145-3.605,0.289-3.604
								c0.144,0.001,0.248,1.616,0.232,3.608C462.491,468.321,462.362,469.935,462.218,469.934z"/>
						</g>
					</g>
					<g>
						<g>
							<path style="fill:#263238;" d="M465.721,470.533c-0.143,0.011-0.389-1.645-0.55-3.698c-0.16-2.054-0.174-3.728-0.03-3.739
								c0.143-0.011,0.389,1.644,0.55,3.698C465.851,468.848,465.865,470.522,465.721,470.533z"/>
						</g>
					</g>
					<g>
						<g>
							<path style="fill:#263238;" d="M456.547,465.994c-0.008,0.027-0.481-0.068-1.282-0.403c-0.796-0.335-1.931-0.917-3.122-1.929
								c-0.296-0.254-0.596-0.532-0.893-0.838c-0.293-0.308-0.609-0.657-0.797-1.128c-0.189-0.467-0.193-1.076,0.175-1.552
								c0.184-0.237,0.482-0.393,0.776-0.427c0.297-0.038,0.58,0.015,0.843,0.095c2.026,0.69,3.768,2.682,4.086,5.134
								c0.306,2.478-1.025,4.784-2.778,5.938c-0.438,0.285-0.901,0.546-1.432,0.643c-0.262,0.046-0.542,0.051-0.816-0.039
								c-0.276-0.092-0.508-0.3-0.631-0.555c-0.242-0.546-0.027-1.064,0.184-1.44c0.224-0.396,0.529-0.695,0.803-0.965
								c1.129-1.093,2.272-1.69,3.073-2.013c0.809-0.321,1.287-0.394,1.294-0.366c0.012,0.041-0.444,0.18-1.212,0.551
								c-0.76,0.372-1.84,1.003-2.895,2.088c-0.263,0.275-0.532,0.557-0.713,0.901c-0.185,0.334-0.302,0.752-0.147,1.053
								c0.151,0.32,0.551,0.427,0.976,0.335c0.421-0.08,0.843-0.318,1.248-0.591c1.601-1.08,2.812-3.228,2.529-5.475
								c-0.279-2.237-1.903-4.104-3.714-4.741c-0.44-0.152-0.89-0.13-1.119,0.164c-0.239,0.292-0.27,0.747-0.126,1.108
								c0.31,0.748,1,1.326,1.529,1.843C454.675,465.406,456.605,465.892,456.547,465.994z"/>
						</g>
					</g>
				</g>
				<g>
					<g>
						<path style="fill:#263238;" d="M479.861,472.474c-0.043-0.046,0.415-0.247,0.762-0.949c0.353-0.693,0.285-1.929-0.41-3.152
							c-0.681-1.227-2.095-2.291-3.861-2.911c-1.767-0.636-3.875-0.943-6.003-1.606c-4.27-1.274-7.879-3.141-10.326-4.705
							c-1.227-0.782-2.174-1.482-2.814-1.982c-0.634-0.508-0.969-0.809-0.947-0.836c0.023-0.03,0.399,0.216,1.067,0.672
							c0.674,0.447,1.646,1.097,2.888,1.832c2.477,1.472,6.066,3.262,10.283,4.52c2.094,0.655,4.182,0.969,6.02,1.655
							c1.83,0.67,3.325,1.833,4.018,3.185c0.7,1.323,0.717,2.68,0.267,3.421c-0.21,0.371-0.466,0.587-0.644,0.711
							C479.974,472.444,479.869,472.487,479.861,472.474z"/>
					</g>
				</g>
			</g>
			<g>
				<g>
					<path style="fill:#F5F5F5;" d="M470.395,344.934c0.007,0.001,0.007,0.073-0.001,0.213c-0.012,0.166-0.027,0.37-0.046,0.624
						c-0.053,0.584-0.127,1.389-0.221,2.417c-0.216,2.147-0.524,5.219-0.911,9.078l-0.023,0.234l-0.21-0.11
						c-3.35-1.764-7.444-3.919-12.071-6.355l0.286-0.08c-1.99,3.357-4.204,7.094-6.557,11.063l-0.14,0.237l-0.219-0.168
						c-3.451-2.646-7.176-5.503-11.042-8.467l0.317-0.002c-1.535,1.203-3.162,2.479-4.81,3.77c-2.226,1.743-4.416,3.458-6.556,5.134
						l-0.241,0.188l-0.145-0.268c-2.177-4.027-4.27-7.899-6.246-11.555l0.312,0.106c-4.814,2.145-9.262,4.127-13.245,5.902
						l-0.243,0.108l-0.044-0.261c-0.771-4.54-1.441-8.491-1.999-11.781l0.204,0.115c-3.229,1.231-5.791,2.209-7.584,2.892
						c-0.856,0.317-1.528,0.566-2.018,0.747c-0.211,0.074-0.382,0.133-0.522,0.182c-0.118,0.039-0.179,0.055-0.182,0.049
						c-0.003-0.007,0.054-0.036,0.167-0.088c0.136-0.059,0.303-0.132,0.508-0.221c0.483-0.199,1.145-0.472,1.989-0.82
						c1.781-0.715,4.326-1.736,7.533-3.023l0.171-0.069l0.033,0.183c0.589,3.285,1.295,7.229,2.108,11.762l-0.287-0.152
						c3.975-1.795,8.413-3.8,13.215-5.969l0.205-0.092l0.108,0.198c1.985,3.651,4.087,7.519,6.273,11.54l-0.386-0.08
						c2.14-1.677,4.328-3.393,6.553-5.138c1.648-1.291,3.276-2.566,4.811-3.768l0.158-0.124l0.159,0.123
						c3.86,2.972,7.579,5.836,11.025,8.49l-0.359,0.069c2.37-3.958,4.602-7.685,6.607-11.033l0.106-0.177l0.18,0.097
						c4.608,2.475,8.683,4.663,12.018,6.455l-0.233,0.123c0.45-3.852,0.808-6.919,1.058-9.062c0.129-1.025,0.23-1.827,0.303-2.408
						c0.036-0.251,0.065-0.454,0.089-0.619C470.372,345.004,470.388,344.934,470.395,344.934z"/>
				</g>
			</g>
			<g>
				<g>
					<path style="fill:#F5F5F5;" d="M480.112,356.067c0.008,0.002-0.011,0.101-0.056,0.293c-0.053,0.216-0.122,0.496-0.21,0.849
						c-0.203,0.775-0.489,1.869-0.856,3.272c-0.774,2.876-1.887,7.009-3.276,12.167l-0.053,0.197l-0.186-0.089
						c-4.011-1.925-8.792-4.22-14.106-6.771l0.277-0.072c-3.603,5.138-7.609,10.851-11.882,16.945l-0.174,0.248l-0.213-0.216
						c-3.628-3.677-7.469-7.57-11.419-11.574c-0.804-0.816-1.604-1.627-2.397-2.431l0.323,0.038
						c-5.355,3.358-10.518,6.596-15.389,9.65l-0.22,0.138l-0.128-0.225c-2.972-5.249-5.756-10.167-8.296-14.652l0.26,0.098
						c-6.085,2.095-11.432,3.935-15.823,5.447l-0.15,0.052l-0.051-0.149c-1.499-4.346-2.686-7.792-3.511-10.183
						c-0.39-1.161-0.694-2.064-0.91-2.707c-0.092-0.289-0.166-0.52-0.224-0.7c-0.048-0.158-0.069-0.239-0.062-0.242
						c0.007-0.003,0.042,0.074,0.104,0.227c0.068,0.177,0.155,0.402,0.264,0.686c0.235,0.637,0.565,1.531,0.988,2.68
						c0.857,2.379,2.091,5.809,3.649,10.134l-0.202-0.097c4.38-1.542,9.715-3.421,15.785-5.558l0.17-0.06l0.09,0.158
						c2.556,4.477,5.358,9.384,8.349,14.622l-0.347-0.087c4.866-3.061,10.025-6.306,15.376-9.671l0.177-0.111l0.147,0.149
						c0.793,0.804,1.593,1.615,2.397,2.431c3.947,4.007,7.785,7.904,11.409,11.583l-0.387,0.032
						c4.292-6.081,8.316-11.781,11.935-16.908l0.108-0.154l0.168,0.082c5.297,2.585,10.063,4.91,14.062,6.861l-0.238,0.108
						c1.452-5.14,2.616-9.259,3.426-12.126c0.404-1.392,0.719-2.479,0.942-3.248c0.106-0.348,0.19-0.624,0.255-0.837
						C480.07,356.16,480.104,356.065,480.112,356.067z"/>
				</g>
			</g>
		</g>
		<g>
			<g>
				<path style="fill:#263238;" d="M470.025,286.306c-3.998,0.445-8.16-0.868-11.177-3.528c3.643,1.839,8.496-0.685,9.778-4.559
					c1.282-3.874,0.231-11.083-2.95-13.64c-3.026-2.432-7.223-3.364-10.973-2.36c-3.75,1.004-7.724,6.705-8.951,10.389l0.07,0.112
					c-0.577-0.23-1.158-0.445-1.744-0.641c-4.153-1.395-8.591-2.07-12.943-1.566c-4.352,0.504-8.614,2.234-11.83,5.209
					l25.428,40.871c4.619-0.407,8.71-3.522,11.13-7.476c2.42-3.955,3.349-8.66,3.577-13.291c0.057-1.161,0.054-2.336,0.006-3.509
					c2.726,0.438,5.452,0.876,8.178,1.315c-1.46-1.964-3.322-3.628-5.437-4.86C464.948,289.824,468.364,288.749,470.025,286.306z"/>
			</g>
			<g>
				<g>
					<g>
						<g>
							<g>
								<g>
									<g>
										<g>
											<g>
												<g>
													<g>
														<g>
															<g>
																<path style="fill:#FFBE9D;" d="M437.884,349.738c6.897-0.148,12.433-5.74,12.513-12.638l0.591-50.848l0,0
																	c0.042-2.101-1.531-3.884-3.621-4.105l-21.477-5.428c-6.878-0.728-11.452,7.742-11.887,14.645
																	c-0.483,7.669-0.771,17.051,0.138,22.774c1.827,11.506,10.646,12.97,10.646,12.97
																	c0.002-0.03,0.006,4.453,0.033,9.905C424.854,344.159,430.74,349.892,437.884,349.738L437.884,349.738z"/>
															</g>
														</g>
													</g>
												</g>
											</g>
											<g>
												<g>
													<g>
														<g>
															<g>
																<g>
																	<path style="fill:#263238;" d="M418.465,298.811c-0.027,0.779,0.61,1.445,1.423,1.489
																		c0.812,0.043,1.493-0.551,1.521-1.33c0.027-0.779-0.61-1.446-1.421-1.49
																		C419.174,297.436,418.492,298.032,418.465,298.811z"/>
																</g>
															</g>
														</g>
													</g>
												</g>
												<g>
													<g>
														<g>
															<g>
																<g>
																	<g>
																		<path style="fill:#263238;" d="M416.038,296.244c0.183,0.193,1.301-0.635,2.889-0.631
																			c1.586-0.019,2.751,0.798,2.924,0.604c0.085-0.086-0.102-0.433-0.609-0.803c-0.499-0.368-1.351-0.726-2.341-0.721
																			c-0.989,0.005-1.821,0.37-2.299,0.742C416.113,295.81,415.948,296.158,416.038,296.244z"/>
																	</g>
																</g>
															</g>
														</g>
													</g>
												</g>
											</g>
											<g>
												<g>
													<g>
														<g>
															<g>
																<g>
																	<path style="fill:#263238;" d="M433.571,298.811c-0.028,0.779,0.61,1.445,1.423,1.489
																		c0.812,0.043,1.493-0.551,1.521-1.33c0.028-0.779-0.61-1.446-1.422-1.49
																		C434.28,297.436,433.598,298.032,433.571,298.811z"/>
																</g>
															</g>
														</g>
													</g>
												</g>
												<g>
													<g>
														<g>
															<g>
																<g>
																	<g>
																		<path style="fill:#263238;" d="M431.646,296.54c0.183,0.192,1.303-0.635,2.889-0.631
																			c1.586-0.019,2.752,0.798,2.924,0.604c0.084-0.086-0.1-0.433-0.609-0.803c-0.5-0.368-1.351-0.726-2.34-0.722
																			c-0.989,0.006-1.821,0.37-2.3,0.742C431.723,296.106,431.557,296.454,431.646,296.54z"/>
																	</g>
																</g>
															</g>
														</g>
													</g>
												</g>
											</g>
											<g>
												<g>
													<g>
														<g>
															<g>
																<g>
																	<path style="fill:#263238;" d="M425.884,308.317c0.007-0.09-0.98-0.261-2.579-0.465
																		c-0.405-0.042-0.789-0.122-0.858-0.399c-0.095-0.293,0.074-0.73,0.271-1.202c0.381-0.981,0.78-2.01,1.199-3.087
																		c1.665-4.396,2.871-8.011,2.693-8.076c-0.178-0.065-1.672,3.444-3.337,7.841c-0.401,1.084-0.784,2.117-1.149,3.106
																		c-0.153,0.461-0.417,0.984-0.21,1.591c0.109,0.303,0.407,0.523,0.667,0.593c0.26,0.079,0.488,0.084,0.689,0.096
																		C424.879,308.4,425.878,308.407,425.884,308.317z"/>
																</g>
															</g>
														</g>
													</g>
												</g>
											</g>
											<g>
												<g>
													<g>
														<g>
															<g>
																<path style="fill:#EB996E;" d="M424.787,327.107c0,0,7.741,0.499,15.41-4.111c0,0-3.739,7.904-15.255,6.827
																	L424.787,327.107z"/>
															</g>
														</g>
													</g>
												</g>
											</g>
											<g>
												<g>
													<g>
														<g>
															<g>
																<path style="fill:#EB996E;" d="M426.555,312.143c0.571-0.755,1.572-1.17,2.565-1.063
																	c0.689,0.074,1.385,0.406,1.804,0.967c0.419,0.561,0.506,1.358,0.126,1.893c-0.428,0.603-1.324,0.742-2.082,0.526
																	c-0.758-0.215-1.41-0.714-2.029-1.211c-0.171-0.138-0.346-0.281-0.454-0.469c-0.107-0.188-0.13-0.435,0.002-0.591"
																	/>
															</g>
														</g>
													</g>
												</g>
											</g>
											<g>
												<g>
													<g>
														<g>
															<g>
																<g>
																	<path style="fill:#263238;" d="M430.557,309.415c-0.258-0.015-0.262,1.709-1.737,2.932
																		c-1.473,1.227-3.31,1.034-3.323,1.275c-0.024,0.108,0.409,0.335,1.185,0.356c0.761,0.026,1.872-0.218,2.774-0.967
																		c0.9-0.75,1.287-1.751,1.346-2.458C430.867,309.832,430.675,309.405,430.557,309.415z"/>
																</g>
															</g>
														</g>
													</g>
												</g>
											</g>
										</g>
									</g>
								</g>
								<g>
									<g>
										<g>
											<g>
												<g>
													<path style="fill:#263238;" d="M430.932,293.76c0.157,0.432,1.742,0.227,3.605,0.452
														c1.868,0.187,3.37,0.733,3.617,0.345c0.11-0.185-0.152-0.591-0.759-1.009c-0.602-0.418-1.563-0.814-2.681-0.939
														c-1.118-0.122-2.143,0.055-2.821,0.331C431.209,293.216,430.865,293.555,430.932,293.76z"/>
												</g>
											</g>
										</g>
									</g>
								</g>
								<g>
									<g>
										<g>
											<g>
												<g>
													<path style="fill:#263238;" d="M416.259,293.314c0.279,0.361,1.373-0.014,2.689-0.031
														c1.315-0.064,2.429,0.242,2.686-0.135c0.112-0.183-0.063-0.544-0.55-0.886c-0.479-0.34-1.282-0.618-2.186-0.591
														c-0.904,0.029-1.687,0.356-2.145,0.725C416.289,292.767,416.136,293.138,416.259,293.314z"/>
												</g>
											</g>
										</g>
									</g>
								</g>
							</g>
						</g>
						<g>
							<g>
								<path style="fill:#FFBE9D;" d="M449.713,300.552c0.872-0.604,2.091-0.38,3.009,0.151c2.114,1.223,3.165,4.019,2.381,6.332
									c-0.785,2.313-3.321,3.891-5.742,3.575"/>
							</g>
						</g>
						<g>
							<g>
								<g>
									<path style="fill:#EB996E;" d="M450.517,307.177c0.033-0.082,0.447,0.098,1.002-0.157c0.547-0.217,1.045-1.025,0.987-1.966
										c-0.032-0.954-0.649-1.637-1.228-1.845c-0.576-0.236-1-0.121-1.024-0.21c-0.04-0.057,0.391-0.362,1.151-0.192
										c0.366,0.086,0.792,0.304,1.125,0.702c0.33,0.392,0.544,0.936,0.571,1.514c0.083,1.16-0.645,2.213-1.44,2.394
										C450.88,307.622,450.456,307.223,450.517,307.177z"/>
								</g>
							</g>
						</g>
					</g>
				</g>
			</g>
			<g>
				<g>
					<path style="fill:#455A64;" d="M453.662,309.506c0.015-0.018,0.198,0.112,0.527,0.372c0.385,0.314,0.851,0.695,1.409,1.151
						c1.273,1.081,2.962,2.516,4.965,4.217l0.167,0.142l-0.141,0.17c-1.849,2.22-3.909,5-6.224,7.904
						c-0.524,0.655-1.048,1.296-1.557,1.896l-0.426,0.501l-0.029-0.656c-0.209-4.685-0.37-8.832-0.462-11.809
						c-0.034-1.416-0.062-2.591-0.084-3.508c-0.009-0.824,0.002-1.277,0.035-1.278c0.033-0.001,0.086,0.448,0.153,1.269
						c0.063,0.915,0.144,2.088,0.241,3.501c0.184,2.973,0.408,7.117,0.634,11.802l-0.455-0.155c0.495-0.604,1.015-1.24,1.544-1.887
						c2.307-2.894,4.393-5.661,6.294-7.865l0.026,0.311c-1.955-1.758-3.603-3.242-4.845-4.359c-0.527-0.493-0.967-0.904-1.331-1.244
						C453.801,309.688,453.647,309.524,453.662,309.506z"/>
				</g>
			</g>
			<g>
				<path style="fill:#263238;" d="M430.394,271.689c-2.816,0.117-5.654,0.237-8.39,0.917c-2.735,0.68-5.394,1.967-7.254,4.084
					c-1.861,2.117-2.809,5.146-2.004,7.847c0.804,2.701,3.577,4.817,6.37,4.443c2.121-0.284,4.155-1.854,6.202-1.23
					c1.934,0.589,2.999,2.949,4.987,3.317c1.963,0.363,3.71-1.399,5.699-1.572c2.194-0.19,4.098,1.61,5.075,3.584
					c0.977,1.974,1.347,4.204,2.328,6.176c0.627,1.26,1.601,2.468,2.964,2.82c1.251,0.323,2.612-0.161,3.587-1.009
					c0.975-0.848,1.613-2.019,2.101-3.215c2.072-5.086,1.623-11.129-1.177-15.853c-2.8-4.724-7.886-8.019-13.342-8.643"/>
			</g>
			<g>
				<g>
					<path style="fill:#E8505B;" d="M458.429,283.91c-0.09,0.026-0.357-0.928-1.064-2.336c-0.7-1.408-1.925-3.236-3.702-4.849
						c-1.785-1.606-3.728-2.639-5.199-3.193c-1.472-0.561-2.448-0.73-2.432-0.822c0.006-0.035,0.253-0.02,0.699,0.038
						c0.448,0.049,1.086,0.194,1.855,0.437c1.538,0.477,3.582,1.495,5.426,3.154c1.837,1.666,3.056,3.596,3.686,5.078
						c0.319,0.741,0.528,1.361,0.622,1.801C458.424,283.656,458.464,283.901,458.429,283.91z"/>
				</g>
			</g>
			<g>
				<g>
					<path style="fill:#455A64;" d="M467.231,267.055c-0.045,0.092-1.009-0.542-2.771-0.859c-1.737-0.333-4.311-0.199-6.749,1.016
						c-2.439,1.223-4.158,3.102-5.216,4.538c-1.067,1.449-1.565,2.462-1.644,2.422c-0.03-0.015,0.06-0.284,0.274-0.748
						c0.213-0.465,0.562-1.12,1.069-1.885c1-1.518,2.734-3.513,5.285-4.793c2.558-1.275,5.268-1.351,7.054-0.91
						c0.902,0.212,1.596,0.508,2.043,0.762C467.026,266.849,467.247,267.029,467.231,267.055z"/>
				</g>
			</g>
			<g>
				<g>
					<path style="fill:#455A64;" d="M456.168,280.574c0.058-0.001,0.152,0.905,0.018,2.367c-0.131,1.459-0.551,3.468-1.438,5.534
						c-0.893,2.064-2.066,3.749-3.037,4.846c-0.97,1.102-1.694,1.655-1.733,1.612c-0.136-0.111,2.569-2.597,4.291-6.664
						C456.044,284.225,455.994,280.551,456.168,280.574z"/>
				</g>
			</g>
			<g>
				<g>
					<path style="fill:#455A64;" d="M456.5,280.818c0.034-0.01,0.132,0.223,0.281,0.659c0.158,0.433,0.317,1.083,0.45,1.897
						c0.274,1.624,0.305,3.954-0.311,6.413c-0.626,2.457-1.76,4.492-2.773,5.792c-0.504,0.653-0.953,1.149-1.297,1.455
						c-0.338,0.313-0.535,0.472-0.561,0.446c-0.066-0.065,0.647-0.785,1.559-2.117c0.914-1.326,1.959-3.321,2.567-5.704
						c0.597-2.385,0.625-4.637,0.451-6.238C456.697,281.817,456.411,280.844,456.5,280.818z"/>
				</g>
			</g>
		</g>
	</g>
</g>
<g id="Speech_Bubble">
	<g>
		<g>
			<path style="fill:#EBEBEB;" d="M486.76,283.441c-2.906,0.917-4.166,5.059-2.261,7.439c1.904,2.379,6.222,2.058,7.753-0.577
				c1.531-2.635-0.328-6.546-3.338-7.022"/>
		</g>
		<g>
			<path style="fill:#EBEBEB;" d="M500.279,263.795c-3.334,1.052-4.779,5.804-2.594,8.533c2.185,2.73,7.138,2.361,8.894-0.662
				c1.756-3.023-0.376-7.509-3.83-8.055"/>
		</g>
		<g>
			<g>
				<path style="fill:#F5F5F5;" d="M529.152,177.19c-9.046-0.764-18.197,1.256-24.4,7.884c-6.203,6.629-9.16,16.163-7.798,25.138
					c-9.622,3.998-14.868,16.234-11.13,25.96c3.738,9.726,15.828,15.299,25.651,11.824c4.415,11.188,15.016,19.698,26.893,21.588
					c11.878,1.891,24.597-2.907,32.267-12.171c9.437,2.133,20.028,1.994,27.957-3.551c7.928-5.545,11.516-17.746,5.474-25.303
					c10.871-2.647,16.396-16.224,13.172-26.938c-3.224-10.714-12.874-18.403-23.181-22.756c-6.812-2.878-15.305-4.38-21.117,0.192
					c-4.652-7.157-12.884-11.854-21.412-12.219C542.999,166.477,534.397,170.456,529.152,177.19"/>
			</g>
			<g>
				<g>
					<path style="fill:#263238;" d="M529.152,177.19c0,0,0.178-0.241,0.548-0.699c0.359-0.466,0.946-1.118,1.755-1.937
						c1.634-1.602,4.293-3.846,8.355-5.606c2.024-0.87,4.388-1.619,7.06-1.997c2.668-0.356,5.649-0.383,8.75,0.268
						c3.103,0.608,6.313,1.865,9.361,3.787c3.026,1.946,5.897,4.587,8.107,7.957l-0.256-0.042c2.338-1.817,5.387-2.858,8.559-2.937
						c3.173-0.116,6.445,0.48,9.641,1.538c3.2,1.066,6.364,2.532,9.444,4.331c3.075,1.804,6.076,3.961,8.756,6.605
						c2.704,2.611,5.051,5.747,6.764,9.302c0.819,1.795,1.502,3.675,1.926,5.655c0.356,1.983,0.569,4.027,0.405,6.081
						c-0.264,4.093-1.525,8.242-3.908,11.791c-1.208,1.749-2.624,3.418-4.395,4.694c-1.752,1.289-3.754,2.26-5.897,2.822l0.136-0.4
						c1.301,1.656,2.224,3.623,2.686,5.71c0.467,2.087,0.493,4.277,0.157,6.418c-0.679,4.288-2.816,8.379-5.976,11.528
						c-3.203,3.152-7.47,5.104-11.903,6.081c-4.457,0.975-9.121,0.995-13.704,0.404c-1.673-0.204-3.323-0.531-4.943-0.876
						l0.258-0.088c-8.305,9.957-21.889,14.428-33.79,12.006c-5.958-1.196-11.421-4.008-15.856-7.781
						c-4.442-3.775-7.881-8.537-9.937-13.721l0.302,0.137c-5.691,1.965-11.907,0.959-16.786-1.755
						c-4.929-2.687-8.622-7.309-9.822-12.448c-1.225-5.136-0.228-10.422,2.032-14.673c2.266-4.275,5.847-7.587,9.907-9.299
						l-0.109,0.193c-0.614-4.164-0.281-8.218,0.623-11.876c0.947-3.654,2.457-6.924,4.314-9.673
						c0.912-1.388,1.952-2.612,2.987-3.751c1.084-1.095,2.177-2.104,3.347-2.911c2.296-1.677,4.696-2.734,6.896-3.465
						c4.437-1.434,8.093-1.557,10.511-1.572C527.888,177.016,529.152,177.19,529.152,177.19c0,0-0.319-0.003-0.939-0.035
						c-0.62-0.041-1.545-0.064-2.758-0.061c-2.412,0.048-6.053,0.204-10.449,1.658c-2.179,0.74-4.553,1.802-6.816,3.474
						c-1.154,0.805-2.23,1.808-3.297,2.896c-1.02,1.133-2.045,2.35-2.943,3.729c-1.829,2.73-3.312,5.974-4.237,9.593
						c-0.883,3.623-1.198,7.633-0.581,11.743l0.021,0.138l-0.13,0.055c-3.972,1.688-7.479,4.946-9.696,9.151
						c-2.211,4.181-3.174,9.375-1.966,14.388c1.18,5.011,4.792,9.524,9.628,12.151c4.786,2.654,10.873,3.621,16.406,1.702
						l0.217-0.075l0.085,0.213c2.032,5.105,5.428,9.799,9.814,13.519c4.378,3.718,9.769,6.487,15.635,7.66
						c11.713,2.382,25.121-2.037,33.289-11.839l0.101-0.121l0.157,0.033c1.606,0.342,3.239,0.666,4.896,0.868
						c4.537,0.585,9.143,0.563,13.525-0.395c4.355-0.955,8.547-2.882,11.654-5.942c3.079-3.064,5.172-7.066,5.834-11.241
						c0.689-4.155-0.183-8.539-2.731-11.734l-0.24-0.301l0.377-0.099c2.076-0.544,4.016-1.482,5.719-2.732
						c1.721-1.238,3.103-2.864,4.285-4.571c2.332-3.464,3.576-7.535,3.839-11.548c0.164-2.014-0.044-4.017-0.389-5.958
						c-0.411-1.932-1.08-3.787-1.883-5.552c-1.681-3.5-3.988-6.597-6.657-9.183c-2.645-2.618-5.614-4.761-8.66-6.557
						c-3.05-1.79-6.194-3.254-9.355-4.315c-3.161-1.054-6.389-1.647-9.501-1.542c-3.113,0.071-6.076,1.079-8.357,2.837l-0.152,0.117
						l-0.104-0.16c-2.17-3.33-4.997-5.949-7.982-7.883c-3.007-1.911-6.178-3.167-9.246-3.782c-3.066-0.657-6.016-0.644-8.662-0.306
						c-2.651,0.361-5.001,1.09-7.017,1.941c-4.046,1.72-6.711,3.927-8.362,5.501c-0.817,0.804-1.415,1.443-1.786,1.898
						C529.357,176.97,529.152,177.19,529.152,177.19z"/>
				</g>
			</g>
		</g>
		<g>
			<g>
				<path style="fill:#455A64;" d="M590.987,208.362c0,0.432-17.733,0.781-39.604,0.781c-21.878,0-39.607-0.35-39.607-0.781
					c0-0.431,17.73-0.781,39.607-0.781C573.254,207.581,590.987,207.931,590.987,208.362z"/>
			</g>
		</g>
		<g>
			<g>
				<path style="fill:#455A64;" d="M590.987,216.956c0,0.432-17.733,0.781-39.604,0.781c-21.878,0-39.607-0.35-39.607-0.781
					c0-0.431,17.73-0.781,39.607-0.781C573.254,216.175,590.987,216.524,590.987,216.956z"/>
			</g>
		</g>
		<g>
			<g>
				<path style="fill:#455A64;" d="M590.987,225.549c0,0.432-17.733,0.781-39.604,0.781c-21.878,0-39.607-0.35-39.607-0.781
					c0-0.431,17.73-0.781,39.607-0.781C573.254,224.768,590.987,225.118,590.987,225.549z"/>
			</g>
		</g>
		<g>
			<g>
				<path style="fill:#455A64;" d="M590.987,234.143c0,0.431-17.733,0.781-39.604,0.781c-21.878,0-39.607-0.35-39.607-0.781
					c0-0.431,17.73-0.781,39.607-0.781C573.254,233.362,590.987,233.712,590.987,234.143z"/>
			</g>
		</g>
	</g>
</g>
</svg>
