<svg xmlns="http://www.w3.org/2000/svg" xmlns:xlink="http://www.w3.org/1999/xlink" width="4896" zoomAndPan="magnify" viewBox="0 0 3672 2448.000005" height="3264" preserveAspectRatio="xMidYMid meet" version="1.0"><path fill="#000000" d="M 3557.074219 248.019531 C 3556.605469 246.867188 3556.109375 245.730469 3555.582031 244.601562 C 3555.054688 243.476562 3554.503906 242.363281 3553.921875 241.261719 C 3553.339844 240.164062 3552.730469 239.078125 3552.097656 238.007812 C 3551.460938 236.9375 3550.800781 235.886719 3550.113281 234.847656 C 3549.425781 233.8125 3548.710938 232.792969 3547.976562 231.792969 C 3547.238281 230.792969 3546.476562 229.808594 3545.6875 228.84375 C 3544.902344 227.882812 3544.089844 226.9375 3543.257812 226.015625 C 3542.425781 225.09375 3541.570312 224.191406 3540.691406 223.308594 C 3539.8125 222.429688 3538.914062 221.570312 3537.992188 220.734375 C 3537.070312 219.898438 3536.128906 219.085938 3535.167969 218.296875 C 3534.207031 217.507812 3533.226562 216.742188 3532.230469 216 C 3531.230469 215.261719 3530.210938 214.542969 3529.179688 213.855469 C 3528.144531 213.164062 3527.09375 212.5 3526.023438 211.863281 C 3524.957031 211.222656 3523.875 210.613281 3522.777344 210.027344 C 3521.679688 209.445312 3520.566406 208.886719 3519.441406 208.359375 C 3518.316406 207.828125 3517.179688 207.328125 3516.027344 206.855469 C 3514.875 206.382812 3513.714844 205.9375 3512.542969 205.523438 C 3511.371094 205.109375 3510.1875 204.722656 3508.996094 204.367188 C 3507.804688 204.011719 3506.605469 203.683594 3505.398438 203.386719 C 3504.191406 203.089844 3502.976562 202.824219 3501.753906 202.585938 C 3500.535156 202.351562 3499.308594 202.144531 3498.078125 201.96875 C 3496.84375 201.792969 3495.609375 201.648438 3494.371094 201.535156 C 3493.132812 201.417969 3491.894531 201.335938 3490.648438 201.28125 C 3489.40625 201.230469 3488.164062 201.207031 3486.921875 201.214844 C 3485.675781 201.226562 3484.433594 201.265625 3483.191406 201.335938 C 3481.953125 201.40625 3480.710938 201.507812 3479.476562 201.640625 C 3478.238281 201.773438 3477.007812 201.933594 3475.777344 202.128906 C 3474.550781 202.320312 3473.328125 202.542969 3472.109375 202.796875 C 3470.890625 203.050781 3469.679688 203.335938 3468.476562 203.648438 C 3467.273438 203.964844 3466.078125 204.308594 3464.894531 204.679688 C 3463.707031 205.054688 3462.53125 205.457031 3461.363281 205.890625 C 3460.199219 206.320312 3459.042969 206.78125 3457.898438 207.269531 C 3456.753906 207.757812 3455.625 208.277344 3454.507812 208.820312 C 3453.390625 209.367188 3452.285156 209.9375 3451.195312 210.539062 C 3450.105469 211.140625 3449.03125 211.765625 3447.972656 212.417969 C 3446.914062 213.070312 3445.875 213.75 3444.851562 214.457031 C 3443.824219 215.160156 3442.816406 215.890625 3441.828125 216.644531 C 3440.839844 217.402344 3439.871094 218.179688 3438.921875 218.984375 C 3437.972656 219.785156 3437.042969 220.613281 3436.136719 221.460938 C 3435.226562 222.308594 3434.339844 223.179688 3433.472656 224.074219 C 3432.609375 224.96875 3431.765625 225.882812 3430.945312 226.816406 C 3430.125 227.75 3429.328125 228.707031 3428.554688 229.679688 C 3427.78125 230.65625 3427.035156 231.648438 3426.308594 232.660156 C 3425.585938 233.671875 3424.890625 234.699219 3424.214844 235.746094 C 3423.542969 236.792969 3422.898438 237.855469 3422.277344 238.933594 C 3421.65625 240.011719 3421.066406 241.105469 3420.5 242.214844 C 3419.933594 243.320312 3419.394531 244.441406 3418.886719 245.578125 C 3418.375 246.710938 3417.894531 247.859375 3417.441406 249.015625 C 3416.988281 250.175781 3416.566406 251.34375 3416.171875 252.523438 C 3415.773438 253.703125 3415.410156 254.890625 3415.074219 256.089844 C 3414.738281 257.285156 3414.429688 258.492188 3414.15625 259.703125 C 3413.878906 260.917969 3413.632812 262.136719 3413.417969 263.359375 C 3413.203125 264.585938 3413.015625 265.816406 3412.859375 267.050781 C 3412.707031 268.285156 3412.582031 269.523438 3412.488281 270.761719 C 3412.394531 272.003906 3412.332031 273.242188 3412.300781 274.488281 C 3412.269531 275.730469 3412.269531 276.972656 3412.300781 278.21875 C 3412.328125 279.460938 3412.390625 280.703125 3412.480469 281.945312 C 3412.574219 283.183594 3412.695312 284.421875 3412.847656 285.65625 C 3413 286.890625 3413.183594 288.121094 3413.398438 289.347656 C 3413.613281 290.570312 3413.855469 291.789062 3414.132812 293.003906 C 3414.40625 294.214844 3414.710938 295.421875 3415.042969 296.621094 C 3415.378906 297.820312 3415.742188 299.007812 3416.136719 300.1875 C 3416.53125 301.367188 3416.953125 302.535156 3417.402344 303.695312 C 3417.855469 304.855469 3418.335938 306.003906 3418.84375 307.136719 C 3551.195312 616.757812 3553.300781 987.300781 3424.257812 1298.492188 C 3295.210938 1609.683594 3031.710938 1869.945312 2719.125 1994.929688 C 2475.003906 2092.613281 2227.273438 2095.519531 2039.488281 2002.816406 C 1946.867188 1957.101562 1870.882812 1883.613281 1819.996094 1798.964844 C 1925.949219 1782.089844 2041.160156 1746.867188 2131.410156 1663.488281 C 2135.753906 1659.410156 2139.996094 1655.226562 2144.136719 1650.945312 C 2148.277344 1646.660156 2152.3125 1642.277344 2156.238281 1637.796875 C 2160.167969 1633.316406 2163.980469 1628.742188 2167.6875 1624.074219 C 2171.390625 1619.410156 2174.980469 1614.65625 2178.457031 1609.816406 C 2181.929688 1604.972656 2185.28125 1600.050781 2188.519531 1595.046875 C 2191.753906 1590.042969 2194.863281 1584.964844 2197.851562 1579.808594 C 2200.839844 1574.652344 2203.699219 1569.429688 2206.433594 1564.132812 C 2209.164062 1558.839844 2211.769531 1553.484375 2214.242188 1548.0625 C 2216.714844 1542.640625 2219.054688 1537.164062 2221.261719 1531.628906 C 2223.46875 1526.09375 2225.539062 1520.507812 2227.476562 1514.871094 C 2229.410156 1509.238281 2231.207031 1503.558594 2232.867188 1497.835938 C 2234.523438 1492.113281 2236.042969 1486.351562 2237.421875 1480.554688 C 2238.800781 1474.757812 2240.039062 1468.933594 2241.136719 1463.074219 C 2242.230469 1457.21875 2243.183594 1451.339844 2243.992188 1445.433594 C 2244.800781 1439.53125 2245.46875 1433.613281 2245.992188 1427.675781 C 2246.511719 1421.742188 2246.890625 1415.796875 2247.121094 1409.84375 C 2249.527344 1331.644531 2223.464844 1259.960938 2173.613281 1208.027344 C 2107.855469 1139.320312 2012.523438 1114.257812 1912.082031 1139.21875 C 1776.523438 1172.941406 1655.664062 1288.933594 1618.042969 1421.304688 C 1612.527344 1441.203125 1608.183594 1461.351562 1605.011719 1481.753906 C 1601.839844 1502.15625 1599.859375 1522.671875 1599.070312 1543.304688 C 1598.285156 1563.9375 1598.695312 1584.542969 1600.300781 1605.128906 C 1601.910156 1625.714844 1604.703125 1646.136719 1608.6875 1666.394531 C 1157.800781 1679.761719 700.667969 1528.445312 346.113281 1249.402344 C 400.445312 1257.109375 454.875 1264.058594 509.40625 1270.253906 C 550.972656 1274.933594 592.597656 1279.164062 634.273438 1282.953125 C 638.859375 1283.324219 643.441406 1283.257812 648.011719 1282.757812 C 652.585938 1282.257812 657.070312 1281.328125 661.46875 1279.976562 C 665.867188 1278.621094 670.097656 1276.867188 674.160156 1274.710938 C 678.222656 1272.550781 682.046875 1270.03125 685.632812 1267.144531 C 689.035156 1264.082031 692.144531 1260.746094 694.960938 1257.132812 C 697.777344 1253.523438 700.257812 1249.695312 702.402344 1245.644531 C 704.542969 1241.597656 706.316406 1237.394531 707.722656 1233.035156 C 709.125 1228.675781 710.136719 1224.230469 710.757812 1219.691406 C 711.695312 1201.546875 707.417969 1182.230469 694.953125 1168.359375 C 691.96875 1164.863281 688.6875 1161.675781 685.101562 1158.800781 C 681.515625 1155.921875 677.691406 1153.40625 673.628906 1151.253906 C 669.570312 1149.097656 665.339844 1147.34375 660.949219 1145.988281 C 656.554688 1144.636719 652.074219 1143.703125 647.507812 1143.195312 C 573.394531 1136.511719 499.425781 1128.347656 425.605469 1118.703125 C 351.785156 1109.054688 278.195312 1097.980469 204.839844 1085.484375 C 163.585938 1078.421875 122.375 1070.914062 81.210938 1062.960938 C 79.695312 1062.824219 78.179688 1062.738281 76.65625 1062.703125 C 75.136719 1062.667969 73.617188 1062.679688 72.097656 1062.742188 C 70.578125 1062.804688 69.0625 1062.914062 67.550781 1063.078125 C 66.039062 1063.238281 64.535156 1063.449219 63.035156 1063.707031 C 61.535156 1063.964844 60.046875 1064.273438 58.570312 1064.628906 C 57.089844 1064.984375 55.625 1065.386719 54.171875 1065.839844 C 52.722656 1066.289062 51.285156 1066.785156 49.863281 1067.332031 C 48.445312 1067.875 47.042969 1068.464844 45.664062 1069.101562 C 44.28125 1069.734375 42.921875 1070.414062 41.585938 1071.140625 C 40.246094 1071.863281 38.933594 1072.628906 37.648438 1073.4375 C 36.359375 1074.246094 35.097656 1075.097656 33.867188 1075.988281 C 32.632812 1076.878906 31.433594 1077.808594 30.261719 1078.78125 C 29.089844 1079.75 27.949219 1080.753906 26.84375 1081.796875 C 25.738281 1082.839844 24.664062 1083.917969 23.628906 1085.03125 C 22.59375 1086.144531 21.59375 1087.289062 20.632812 1088.46875 C 19.667969 1089.648438 18.746094 1090.855469 17.863281 1092.09375 C 16.980469 1093.332031 16.136719 1094.597656 15.335938 1095.886719 C 14.535156 1097.179688 13.777344 1098.5 13.0625 1099.839844 C 12.347656 1101.183594 11.675781 1102.546875 11.046875 1103.933594 C 10.421875 1105.316406 9.839844 1106.722656 9.304688 1108.144531 C 8.769531 1109.570312 8.28125 1111.007812 7.839844 1112.464844 C 7.394531 1113.917969 7 1115.386719 6.65625 1116.867188 C 6.308594 1118.347656 6.011719 1119.839844 5.761719 1121.339844 C 5.511719 1122.839844 5.3125 1124.347656 5.160156 1125.859375 C 5.007812 1127.371094 4.90625 1128.890625 4.851562 1130.410156 C 4.796875 1131.929688 4.796875 1133.449219 4.839844 1134.96875 C 4.886719 1136.488281 4.980469 1138.007812 5.125 1139.519531 C 5.269531 1141.035156 5.464844 1142.542969 5.707031 1144.042969 C 5.949219 1145.546875 6.238281 1147.039062 6.578125 1148.519531 C 6.917969 1150.003906 7.304688 1151.472656 7.738281 1152.929688 C 8.175781 1154.386719 8.65625 1155.828125 9.183594 1157.253906 C 9.714844 1158.679688 10.289062 1160.089844 10.90625 1161.476562 C 32.714844 1217.175781 53.664062 1273.292969 73.757812 1329.839844 C 93.851562 1386.382812 113.097656 1443.40625 131.496094 1500.90625 C 141.007812 1530.648438 150.265625 1560.46875 159.265625 1590.367188 C 165.347656 1610.707031 171.328125 1631.117188 177.207031 1651.589844 C 177.722656 1656.199219 178.828125 1660.660156 180.527344 1664.972656 C 182.226562 1669.285156 184.460938 1673.304688 187.230469 1677.023438 C 189.386719 1681.257812 192.058594 1685.136719 195.25 1688.65625 C 198.441406 1692.179688 202.039062 1695.21875 206.042969 1697.773438 C 209.675781 1700.550781 213.597656 1702.820312 217.816406 1704.582031 C 222.035156 1706.34375 226.410156 1707.539062 230.9375 1708.167969 C 235.261719 1709.527344 239.6875 1710.320312 244.214844 1710.554688 C 248.742188 1710.785156 253.226562 1710.445312 257.667969 1709.539062 C 275.679688 1705.792969 293.621094 1696.539062 303.8125 1680.53125 L 312.234375 1664.390625 C 314.300781 1658.722656 315.617188 1652.882812 316.183594 1646.875 C 316.75 1640.867188 316.546875 1634.886719 315.574219 1628.933594 C 294.8125 1556.460938 272.769531 1484.34375 249.449219 1412.582031 C 242.296875 1390.59375 234.980469 1368.660156 227.496094 1346.78125 C 251.59375 1366.285156 276.109375 1385.25 301.042969 1403.675781 C 325.976562 1422.097656 351.304688 1439.964844 377.023438 1457.273438 C 402.742188 1474.582031 428.832031 1491.316406 455.289062 1507.476562 C 481.746094 1523.636719 508.546875 1539.203125 535.6875 1554.183594 C 562.832031 1569.160156 590.292969 1583.535156 618.066406 1597.304688 C 645.84375 1611.074219 673.910156 1624.226562 702.261719 1636.757812 C 730.617188 1649.289062 759.234375 1661.191406 788.113281 1672.464844 C 816.992188 1683.738281 846.105469 1694.367188 875.453125 1704.359375 C 1127.996094 1790.375 1396.875 1828.207031 1657.335938 1814.636719 C 1661.378906 1823.261719 1665.65625 1831.816406 1670.101562 1840.335938 C 1737.664062 1968.964844 1845.15625 2074.464844 1972.761719 2137.460938 C 2198.773438 2249.011719 2491.109375 2247.738281 2774.691406 2134.316406 C 2947.542969 2065.140625 3110.667969 1957.703125 3246.394531 1823.527344 C 3382.121094 1689.351562 3491.519531 1527.675781 3562.855469 1355.671875 C 3634.195312 1183.667969 3671.316406 991.878906 3670.28125 801.09375 C 3669.246094 610.308594 3630.152344 419.257812 3557.074219 248.019531 Z M 1761.054688 1655.300781 C 1745.851562 1590.199219 1745.449219 1523.867188 1762.925781 1462.242188 C 1785.679688 1382.039062 1865.4375 1305.742188 1948.46875 1285.125 C 1997.1875 1272.992188 2036.449219 1282.050781 2065.117188 1311.859375 C 2092.816406 1340.765625 2097.628906 1378.496094 2096.828125 1405.0625 C 2096.828125 1409.476562 2096.394531 1413.886719 2095.957031 1418.429688 C 2095.269531 1424.785156 2094.300781 1431.09375 2093.054688 1437.363281 C 2091.8125 1443.632812 2090.292969 1449.835938 2088.503906 1455.96875 C 2086.714844 1462.105469 2084.65625 1468.152344 2082.335938 1474.105469 C 2080.015625 1480.058594 2077.4375 1485.902344 2074.605469 1491.628906 C 2071.769531 1497.355469 2068.6875 1502.949219 2065.363281 1508.40625 C 2062.035156 1513.863281 2058.476562 1519.164062 2054.6875 1524.308594 C 2050.894531 1529.453125 2046.882812 1534.421875 2042.65625 1539.214844 C 2038.425781 1544.007812 2033.996094 1548.605469 2029.363281 1553.007812 C 1957.625 1619.308594 1853.808594 1643.902344 1761.054688 1655.300781 Z M 1761.054688 1655.300781 " fill-opacity="1" fill-rule="nonzero"/></svg>