<svg xmlns="http://www.w3.org/2000/svg" xmlns:xlink="http://www.w3.org/1999/xlink" width="4896" zoomAndPan="magnify" viewBox="0 0 3672 2448.000005" height="3264" preserveAspectRatio="xMidYMid meet" version="1.0"><defs><clipPath id="af8168b3c6"><path d="M 3596 1049 L 3669.546875 1049 L 3669.546875 1061 L 3596 1061 Z M 3596 1049 " clip-rule="nonzero"/></clipPath><clipPath id="9063dbfe7f"><path d="M 3171 1956 L 3183 1956 L 3183 2026.421875 L 3171 2026.421875 Z M 3171 1956 " clip-rule="nonzero"/></clipPath><clipPath id="7470425fc4"><path d="M 31 420.578125 L 43 420.578125 L 43 491 L 31 491 Z M 31 420.578125 " clip-rule="nonzero"/></clipPath><clipPath id="4a96e5540b"><path d="M 2.453125 449 L 75 449 L 75 461 L 2.453125 461 Z M 2.453125 449 " clip-rule="nonzero"/></clipPath></defs><path fill="#ffdf57" d="M 2325.335938 892.949219 C 2325.335938 892.949219 2326.003906 896.339844 2326.871094 902.261719 C 2327.742188 908.191406 2328.816406 916.644531 2329.738281 926.824219 C 2330.769531 937.003906 2331.484375 948.851562 2332.152344 961.558594 C 2332.714844 974.273438 2333.019531 987.792969 2333.019531 1001.363281 C 2333.019531 1014.9375 2332.714844 1028.457031 2332.152344 1041.167969 C 2331.535156 1053.875 2330.769531 1065.726562 2329.738281 1075.90625 C 2328.816406 1086.082031 2327.742188 1094.539062 2326.871094 1100.464844 C 2326.003906 1106.390625 2325.335938 1109.78125 2325.335938 1109.78125 C 2325.335938 1109.78125 2324.667969 1106.390625 2323.796875 1100.464844 C 2322.925781 1094.539062 2321.796875 1086.082031 2320.929688 1075.90625 C 2319.898438 1065.726562 2319.132812 1053.875 2318.515625 1041.167969 C 2317.953125 1028.457031 2317.648438 1014.9375 2317.648438 1001.363281 C 2317.648438 987.792969 2317.953125 974.273438 2318.515625 961.558594 C 2319.132812 948.851562 2319.898438 937.003906 2320.929688 926.824219 C 2321.851562 916.644531 2322.925781 908.191406 2323.796875 902.261719 C 2324.667969 896.339844 2325.335938 892.949219 2325.335938 892.949219 Z M 2325.335938 892.949219 " fill-opacity="1" fill-rule="evenodd"/><path fill="#ffdf57" d="M 2216.386719 1001.363281 C 2216.386719 1001.363281 2219.886719 1000.695312 2226.074219 999.828125 C 2232.207031 998.957031 2241.027344 997.882812 2251.574219 996.960938 C 2262.117188 995.929688 2274.4375 995.214844 2287.671875 994.546875 C 2300.855469 993.984375 2314.949219 993.675781 2329.046875 993.675781 C 2343.140625 993.675781 2357.1875 993.984375 2370.417969 994.546875 C 2383.597656 995.160156 2395.917969 995.929688 2406.515625 996.960938 C 2417.0625 997.882812 2425.882812 998.957031 2432.019531 999.828125 C 2438.152344 1000.695312 2441.703125 1001.363281 2441.703125 1001.363281 C 2441.703125 1001.363281 2438.203125 1002.03125 2432.019531 1002.902344 C 2425.835938 1003.773438 2417.0625 1004.902344 2406.515625 1005.769531 C 2395.972656 1006.796875 2383.652344 1007.566406 2370.417969 1008.183594 C 2357.234375 1008.746094 2343.140625 1009.050781 2329.046875 1009.050781 C 2314.949219 1009.050781 2300.90625 1008.746094 2287.671875 1008.183594 C 2274.492188 1007.566406 2262.171875 1006.796875 2251.574219 1005.769531 C 2241.027344 1004.847656 2232.207031 1003.773438 2226.074219 1002.902344 C 2219.886719 1002.03125 2216.386719 1001.363281 2216.386719 1001.363281 Z M 2216.386719 1001.363281 " fill-opacity="1" fill-rule="evenodd"/><path fill="#ffdf57" d="M 2277.886719 949.144531 C 2277.886719 949.144531 2285.027344 954.726562 2294.75 963.960938 C 2299.660156 968.53125 2305.183594 974.066406 2310.957031 980.105469 C 2313.789062 983.148438 2316.878906 986.195312 2319.765625 989.496094 C 2322.703125 992.746094 2325.6875 996.042969 2328.625 999.339844 C 2331.515625 1002.742188 2334.398438 1006.09375 2337.234375 1009.4375 C 2340.121094 1012.742188 2342.753906 1016.191406 2345.390625 1019.390625 C 2350.605469 1025.882812 2355.367188 1032.128906 2359.265625 1037.558594 C 2367.164062 1048.367188 2371.722656 1056.234375 2371.722656 1056.234375 C 2371.722656 1056.234375 2364.582031 1050.652344 2354.859375 1041.417969 C 2349.949219 1036.847656 2344.425781 1031.3125 2338.652344 1025.273438 C 2335.820312 1022.230469 2332.730469 1019.183594 2329.839844 1015.886719 C 2326.902344 1012.636719 2323.917969 1009.339844 2320.980469 1005.988281 C 2318.09375 1002.589844 2315.207031 999.238281 2312.371094 995.886719 C 2309.488281 992.589844 2306.851562 989.140625 2304.21875 985.941406 C 2299 979.441406 2294.238281 973.203125 2290.34375 967.769531 C 2282.492188 956.957031 2277.886719 949.144531 2277.886719 949.144531 Z M 2277.886719 949.144531 " fill-opacity="1" fill-rule="evenodd"/><path fill="#ffdf57" d="M 2372.253906 949.144531 C 2372.253906 949.144531 2367.640625 956.957031 2359.789062 967.769531 C 2355.886719 973.203125 2351.175781 979.441406 2345.902344 985.941406 C 2343.269531 989.1875 2340.632812 992.589844 2337.75 995.886719 C 2334.910156 999.238281 2332.023438 1002.589844 2329.136719 1005.988281 C 2326.144531 1009.289062 2323.207031 1012.589844 2320.265625 1015.886719 C 2317.382812 1019.183594 2314.339844 1022.230469 2311.449219 1025.273438 C 2305.675781 1031.3125 2300.152344 1036.796875 2295.238281 1041.417969 C 2285.5625 1050.652344 2278.414062 1056.234375 2278.414062 1056.234375 C 2278.414062 1056.234375 2282.972656 1048.421875 2290.878906 1037.558594 C 2294.78125 1032.128906 2299.496094 1025.882812 2304.765625 1019.390625 C 2307.398438 1016.191406 2310.035156 1012.742188 2312.917969 1009.4375 C 2315.757812 1006.09375 2318.644531 1002.742188 2321.53125 999.339844 C 2324.523438 996.042969 2327.460938 992.746094 2330.402344 989.496094 C 2333.292969 986.195312 2336.378906 983.148438 2339.21875 980.105469 C 2344.992188 974.066406 2350.515625 968.585938 2355.429688 963.960938 C 2365.160156 954.726562 2372.253906 949.144531 2372.253906 949.144531 Z M 2372.253906 949.144531 " fill-opacity="1" fill-rule="evenodd"/><path fill="#ffdf57" d="M 1333.410156 886.585938 C 1333.410156 886.585938 1334.078125 889.980469 1334.949219 895.902344 C 1335.816406 901.828125 1336.894531 910.285156 1337.816406 920.460938 C 1338.84375 930.640625 1339.5625 942.492188 1340.230469 955.199219 C 1340.792969 967.910156 1341.097656 981.429688 1341.097656 995.003906 C 1341.097656 1008.574219 1340.792969 1022.09375 1340.230469 1034.808594 C 1339.613281 1047.515625 1338.84375 1059.363281 1337.816406 1069.542969 C 1336.894531 1079.722656 1335.816406 1088.179688 1334.949219 1094.097656 C 1334.078125 1100.027344 1333.410156 1103.417969 1333.410156 1103.417969 C 1333.410156 1103.417969 1332.742188 1100.027344 1331.875 1094.097656 C 1331.003906 1088.179688 1329.875 1079.722656 1329.003906 1069.542969 C 1327.976562 1059.363281 1327.207031 1047.515625 1326.59375 1034.808594 C 1326.03125 1022.09375 1325.722656 1008.574219 1325.722656 995.003906 C 1325.722656 981.429688 1326.03125 967.910156 1326.59375 955.199219 C 1327.207031 942.492188 1327.976562 930.640625 1329.003906 920.460938 C 1329.929688 910.285156 1331.003906 901.828125 1331.875 895.902344 C 1332.742188 889.980469 1333.410156 886.585938 1333.410156 886.585938 Z M 1333.410156 886.585938 " fill-opacity="1" fill-rule="evenodd"/><path fill="#ffdf57" d="M 1224.996094 995.003906 C 1224.996094 995.003906 1228.484375 994.335938 1234.652344 993.464844 C 1240.777344 992.597656 1249.578125 991.519531 1260.097656 990.597656 C 1270.621094 989.570312 1282.910156 988.851562 1296.113281 988.183594 C 1309.261719 987.625 1323.328125 987.316406 1337.386719 987.316406 C 1351.449219 987.316406 1365.460938 987.625 1378.660156 988.183594 C 1391.8125 988.800781 1404.101562 989.570312 1414.679688 990.597656 C 1425.199219 991.519531 1433.996094 992.597656 1440.121094 993.464844 C 1446.292969 994.335938 1449.78125 995.003906 1449.78125 995.003906 C 1449.78125 995.003906 1446.292969 995.671875 1440.121094 996.539062 C 1433.996094 997.410156 1425.199219 998.539062 1414.679688 999.410156 C 1404.15625 1000.4375 1391.867188 1001.207031 1378.660156 1001.820312 C 1365.511719 1002.382812 1351.449219 1002.691406 1337.386719 1002.691406 C 1323.328125 1002.691406 1309.316406 1002.382812 1296.113281 1001.820312 C 1282.960938 1001.207031 1270.671875 1000.4375 1260.097656 999.410156 C 1249.578125 998.484375 1240.777344 997.410156 1234.652344 996.539062 C 1228.535156 995.671875 1224.996094 995.003906 1224.996094 995.003906 Z M 1224.996094 995.003906 " fill-opacity="1" fill-rule="evenodd"/><path fill="#ffdf57" d="M 1285.960938 942.78125 C 1285.960938 942.78125 1293.105469 948.363281 1302.828125 957.601562 C 1307.734375 962.171875 1313.261719 967.703125 1319.035156 973.742188 C 1321.863281 976.785156 1324.957031 979.835938 1327.84375 983.132812 C 1330.78125 986.382812 1333.765625 989.679688 1336.703125 992.976562 C 1339.59375 996.382812 1342.476562 999.730469 1345.3125 1003.078125 C 1348.203125 1006.378906 1350.832031 1009.832031 1353.46875 1013.027344 C 1358.683594 1019.523438 1363.445312 1025.769531 1367.339844 1031.195312 C 1375.242188 1042.007812 1379.800781 1049.875 1379.800781 1049.875 C 1379.800781 1049.875 1372.660156 1044.292969 1362.9375 1035.054688 C 1358.027344 1030.484375 1352.503906 1024.953125 1346.730469 1018.914062 C 1343.898438 1015.871094 1340.808594 1012.820312 1337.917969 1009.523438 C 1334.980469 1006.273438 1331.996094 1002.976562 1329.058594 999.625 C 1326.167969 996.226562 1323.285156 992.875 1320.449219 989.527344 C 1317.558594 986.230469 1314.929688 982.777344 1312.296875 979.582031 C 1307.078125 973.082031 1302.316406 966.839844 1298.421875 961.410156 C 1290.523438 950.597656 1285.960938 942.78125 1285.960938 942.78125 Z M 1285.960938 942.78125 " fill-opacity="1" fill-rule="evenodd"/><path fill="#ffdf57" d="M 1380.332031 942.78125 C 1380.332031 942.78125 1375.71875 950.597656 1367.867188 961.410156 C 1363.964844 966.839844 1359.25 973.082031 1353.980469 979.582031 C 1351.347656 982.824219 1348.710938 986.230469 1345.828125 989.527344 C 1342.984375 992.875 1340.101562 996.226562 1337.210938 999.625 C 1334.222656 1002.929688 1331.285156 1006.226562 1328.34375 1009.523438 C 1325.460938 1012.820312 1322.414062 1015.871094 1319.527344 1018.914062 C 1313.753906 1024.953125 1308.230469 1030.433594 1303.3125 1035.054688 C 1293.640625 1044.292969 1286.492188 1049.875 1286.492188 1049.875 C 1286.492188 1049.875 1291.050781 1042.058594 1298.957031 1031.195312 C 1302.859375 1025.769531 1307.570312 1019.523438 1312.839844 1013.027344 C 1315.476562 1009.832031 1318.109375 1006.378906 1320.996094 1003.078125 C 1323.835938 999.730469 1326.726562 996.382812 1329.609375 992.976562 C 1332.601562 989.679688 1335.539062 986.382812 1338.480469 983.132812 C 1341.367188 979.835938 1344.460938 976.785156 1347.296875 973.742188 C 1353.070312 967.703125 1358.59375 962.222656 1363.507812 957.601562 C 1373.1875 948.363281 1380.332031 942.78125 1380.332031 942.78125 Z M 1380.332031 942.78125 " fill-opacity="1" fill-rule="evenodd"/><path fill="#fcffb8" d="M 76.675781 931.117188 C 76.675781 931.117188 77.445312 932.84375 78.46875 935.832031 C 79.492188 938.816406 80.71875 943.074219 81.898438 948.191406 C 84.203125 958.421875 85.6875 972.046875 85.6875 985.726562 C 85.6875 999.351562 84.203125 1013.027344 81.898438 1023.261719 C 80.71875 1028.375 79.492188 1032.632812 78.46875 1035.625 C 77.445312 1038.609375 76.675781 1040.332031 76.675781 1040.332031 C 76.675781 1040.332031 75.90625 1038.609375 74.882812 1035.625 C 73.859375 1032.632812 72.628906 1028.375 71.453125 1023.261719 C 69.148438 1013.027344 67.664062 999.402344 67.664062 985.726562 C 67.664062 972.101562 69.199219 958.421875 71.453125 948.191406 C 72.628906 943.074219 73.859375 938.816406 74.882812 935.832031 C 75.90625 932.789062 76.675781 931.117188 76.675781 931.117188 Z M 76.675781 931.117188 " fill-opacity="1" fill-rule="evenodd"/><path fill="#fcffb8" d="M 22.070312 985.988281 C 22.070312 985.988281 23.84375 985.242188 26.941406 984.25 C 30.039062 983.253906 34.5 982.0625 39.777344 980.921875 C 50.433594 978.683594 64.589844 977.242188 78.796875 977.242188 C 93.003906 977.242188 107.160156 978.683594 117.816406 980.921875 C 123.144531 982.0625 127.558594 983.253906 130.652344 984.25 C 133.746094 985.242188 135.523438 985.988281 135.523438 985.988281 C 135.523438 985.988281 133.746094 986.738281 130.652344 987.730469 C 127.558594 988.726562 123.089844 989.917969 117.816406 991.058594 C 107.160156 993.296875 93.003906 994.738281 78.796875 994.738281 C 64.589844 994.738281 50.433594 993.246094 39.777344 991.011719 C 34.449219 989.867188 30.039062 988.671875 26.941406 987.679688 C 23.84375 986.738281 22.070312 985.988281 22.070312 985.988281 Z M 22.070312 985.988281 " fill-opacity="1" fill-rule="evenodd"/><path fill="#fcffb8" d="M 52.820312 959.746094 C 52.820312 959.746094 54.132812 960.101562 56.160156 960.910156 C 58.230469 961.714844 60.960938 962.972656 64.046875 964.734375 C 70.164062 968.261719 77.195312 973.949219 83.113281 980.652344 C 89.027344 987.351562 93.832031 995.007812 96.515625 1001.507812 C 97.875 1004.777344 98.789062 1007.652344 99.292969 1009.820312 C 99.847656 1011.9375 100.003906 1013.292969 100.003906 1013.292969 C 100.003906 1013.292969 98.6875 1012.992188 96.664062 1012.183594 C 94.589844 1011.378906 91.859375 1010.117188 88.773438 1008.355469 C 82.65625 1004.832031 75.625 999.136719 69.761719 992.4375 C 63.894531 985.742188 59.089844 978.085938 56.359375 971.585938 C 54.992188 968.308594 54.082031 965.441406 53.523438 963.324219 C 52.972656 961.109375 52.820312 959.746094 52.820312 959.746094 Z M 52.820312 959.746094 " fill-opacity="1" fill-rule="evenodd"/><path fill="#fcffb8" d="M 100.53125 959.746094 C 100.53125 959.746094 100.378906 961.109375 99.820312 963.226562 C 99.320312 965.347656 98.355469 968.265625 97.039062 971.496094 C 94.296875 978 89.535156 985.660156 83.65625 992.367188 C 77.777344 999.074219 70.730469 1004.773438 64.597656 1008.304688 C 61.507812 1010.066406 58.773438 1011.328125 56.695312 1012.132812 C 54.667969 1012.9375 53.347656 1013.292969 53.347656 1013.292969 C 53.347656 1013.292969 53.503906 1011.929688 54.058594 1009.816406 C 54.5625 1007.695312 55.480469 1004.773438 56.847656 1001.496094 C 59.53125 994.992188 64.34375 987.324219 70.277344 980.621094 C 76.203125 973.914062 83.203125 968.21875 89.332031 964.6875 C 92.425781 962.921875 95.160156 961.660156 97.242188 960.855469 C 99.21875 960.050781 100.53125 959.746094 100.53125 959.746094 Z M 100.53125 959.746094 " fill-opacity="1" fill-rule="evenodd"/><path fill="#fcffb8" d="M 674.160156 721.707031 C 674.160156 721.707031 674.929688 723.429688 675.953125 726.421875 C 676.976562 729.40625 678.207031 733.664062 679.382812 738.777344 C 681.691406 749.011719 683.175781 762.636719 683.175781 776.3125 C 683.175781 789.9375 681.691406 803.617188 679.382812 813.847656 C 678.207031 818.964844 676.976562 823.222656 675.953125 826.207031 C 674.929688 829.195312 674.160156 830.917969 674.160156 830.917969 C 674.160156 830.917969 673.394531 829.195312 672.371094 826.207031 C 671.347656 823.222656 670.117188 818.964844 668.941406 813.847656 C 666.632812 803.617188 665.148438 789.992188 665.148438 776.3125 C 665.148438 762.6875 666.6875 749.011719 668.988281 738.777344 C 670.167969 733.664062 671.394531 729.40625 672.421875 726.421875 C 673.394531 723.378906 674.160156 721.707031 674.160156 721.707031 Z M 674.160156 721.707031 " fill-opacity="1" fill-rule="evenodd"/><path fill="#fcffb8" d="M 619.554688 776.367188 C 619.554688 776.367188 621.320312 775.597656 624.40625 774.574219 C 627.488281 773.546875 631.929688 772.320312 637.183594 771.140625 C 647.785156 768.839844 661.878906 767.355469 676.015625 767.300781 C 690.15625 767.300781 704.25 768.785156 714.855469 771.089844 C 720.15625 772.269531 724.554688 773.5 727.632812 774.519531 C 730.714844 775.542969 732.480469 776.3125 732.480469 776.3125 C 732.480469 776.3125 730.714844 777.082031 727.632812 778.105469 C 724.554688 779.128906 720.105469 780.359375 714.855469 781.535156 C 704.25 783.839844 690.15625 785.324219 676.015625 785.324219 C 661.878906 785.324219 647.785156 783.789062 637.183594 781.488281 C 631.875 780.304688 627.488281 779.082031 624.40625 778.050781 C 621.320312 777.136719 619.554688 776.367188 619.554688 776.367188 Z M 619.554688 776.367188 " fill-opacity="1" fill-rule="evenodd"/><path fill="#fcffb8" d="M 650.304688 750.335938 C 650.304688 750.335938 651.621094 750.691406 653.644531 751.496094 C 655.71875 752.300781 658.449219 753.558594 661.535156 755.324219 C 667.652344 758.851562 674.679688 764.539062 680.597656 771.238281 C 686.515625 777.941406 691.316406 785.597656 694 792.097656 C 695.363281 795.367188 696.273438 798.242188 696.785156 800.402344 C 697.335938 802.523438 697.488281 803.882812 697.488281 803.882812 C 697.488281 803.882812 696.175781 803.578125 694.148438 802.773438 C 692.074219 801.96875 689.34375 800.707031 686.261719 798.945312 C 680.140625 795.421875 673.113281 789.726562 667.25 783.023438 C 661.378906 776.328125 656.578125 768.671875 653.847656 762.175781 C 652.476562 758.898438 651.566406 756.03125 651.011719 753.914062 C 650.457031 751.699219 650.304688 750.335938 650.304688 750.335938 Z M 650.304688 750.335938 " fill-opacity="1" fill-rule="evenodd"/><path fill="#fcffb8" d="M 698.019531 750.335938 C 698.019531 750.335938 697.863281 751.699219 697.308594 753.8125 C 696.804688 755.933594 695.839844 758.855469 694.519531 762.082031 C 691.785156 768.589844 687.023438 776.25 681.144531 782.957031 C 675.265625 789.664062 668.21875 795.363281 662.085938 798.894531 C 658.992188 800.652344 656.257812 801.914062 654.179688 802.71875 C 652.148438 803.527344 650.835938 803.882812 650.835938 803.882812 C 650.835938 803.882812 650.988281 802.519531 651.546875 800.402344 C 652.050781 798.28125 652.960938 795.363281 654.335938 792.085938 C 657.015625 785.582031 661.832031 777.914062 667.761719 771.207031 C 673.691406 764.5 680.6875 758.808594 686.816406 755.277344 C 689.914062 753.511719 692.648438 752.25 694.726562 751.445312 C 696.703125 750.636719 698.019531 750.335938 698.019531 750.335938 Z M 698.019531 750.335938 " fill-opacity="1" fill-rule="evenodd"/><path fill="#fcffb8" d="M 179.789062 1826.023438 C 179.789062 1826.023438 180.539062 1827.746094 181.53125 1830.734375 C 182.527344 1833.722656 183.71875 1837.976562 184.859375 1843.09375 C 187.097656 1853.324219 188.539062 1866.949219 188.539062 1880.628906 C 188.539062 1894.253906 187.097656 1907.933594 184.859375 1918.164062 C 183.71875 1923.28125 182.527344 1927.539062 181.53125 1930.527344 C 180.539062 1933.511719 179.789062 1935.234375 179.789062 1935.234375 C 179.789062 1935.234375 179.042969 1933.511719 178.050781 1930.527344 C 177.054688 1927.539062 175.863281 1923.28125 174.722656 1918.164062 C 172.484375 1907.933594 171.042969 1894.308594 171.042969 1880.628906 C 171.042969 1867.003906 172.53125 1853.324219 174.722656 1843.09375 C 175.863281 1837.976562 177.054688 1833.722656 178.050781 1830.734375 C 179.042969 1827.746094 179.789062 1826.023438 179.789062 1826.023438 Z M 179.789062 1826.023438 " fill-opacity="1" fill-rule="evenodd"/><path fill="#fcffb8" d="M 124.917969 1880.683594 C 124.917969 1880.683594 126.695312 1879.914062 129.792969 1878.890625 C 132.886719 1877.863281 137.351562 1876.636719 142.625 1875.453125 C 153.28125 1873.152344 167.4375 1871.667969 181.644531 1871.617188 C 195.855469 1871.617188 210.011719 1873.101562 220.667969 1875.40625 C 225.992188 1876.585938 230.40625 1877.8125 233.5 1878.835938 C 236.597656 1879.859375 238.375 1880.628906 238.375 1880.628906 C 238.375 1880.628906 236.597656 1881.398438 233.5 1882.421875 C 230.40625 1883.445312 225.941406 1884.675781 220.667969 1885.851562 C 210.011719 1888.15625 195.855469 1889.640625 181.644531 1889.640625 C 167.4375 1889.640625 153.28125 1888.105469 142.625 1885.851562 C 137.300781 1884.675781 132.886719 1883.445312 129.792969 1882.421875 C 126.695312 1881.5 124.917969 1880.683594 124.917969 1880.683594 Z M 124.917969 1880.683594 " fill-opacity="1" fill-rule="evenodd"/><path fill="#fcffb8" d="M 155.667969 1854.121094 C 155.667969 1854.121094 156.984375 1854.476562 159.007812 1855.292969 C 161.082031 1856.105469 163.8125 1857.375 166.898438 1859.15625 C 173.015625 1862.71875 180.046875 1868.46875 185.960938 1875.230469 C 191.878906 1881.996094 196.679688 1889.730469 199.363281 1896.296875 C 200.726562 1899.597656 201.636719 1902.5 202.148438 1904.6875 C 202.699219 1906.824219 202.851562 1908.199219 202.851562 1908.199219 C 202.851562 1908.199219 201.539062 1907.890625 199.511719 1907.078125 C 197.441406 1906.261719 194.710938 1904.996094 191.625 1903.214844 C 185.507812 1899.652344 178.476562 1893.902344 172.613281 1887.132812 C 166.742188 1880.371094 161.941406 1872.640625 159.210938 1866.078125 C 157.84375 1862.769531 156.929688 1859.867188 156.375 1857.730469 C 155.871094 1855.496094 155.667969 1854.121094 155.667969 1854.121094 Z M 155.667969 1854.121094 " fill-opacity="1" fill-rule="evenodd"/><path fill="#fcffb8" d="M 203.382812 1854.121094 C 203.382812 1854.121094 203.230469 1855.496094 202.671875 1857.636719 C 202.167969 1859.773438 201.203125 1862.726562 199.890625 1865.984375 C 197.148438 1872.554688 192.386719 1880.296875 186.507812 1887.066406 C 180.628906 1893.839844 173.582031 1899.59375 167.449219 1903.15625 C 164.359375 1904.9375 161.621094 1906.214844 159.542969 1907.027344 C 157.519531 1907.84375 156.199219 1908.199219 156.199219 1908.199219 C 156.199219 1908.199219 156.351562 1906.824219 156.910156 1904.683594 C 157.414062 1902.546875 158.332031 1899.59375 159.699219 1896.285156 C 162.378906 1889.714844 167.195312 1881.976562 173.125 1875.199219 C 179.054688 1868.429688 186.050781 1862.679688 192.179688 1859.109375 C 195.277344 1857.328125 198.011719 1856.054688 200.089844 1855.238281 C 202.066406 1854.476562 203.382812 1854.121094 203.382812 1854.121094 Z M 203.382812 1854.121094 " fill-opacity="1" fill-rule="evenodd"/><path fill="#fcffb8" d="M 3521.632812 1780.960938 C 3521.632812 1780.960938 3522.375 1782.683594 3523.433594 1785.671875 C 3524.441406 1788.65625 3525.660156 1792.914062 3526.882812 1798.03125 C 3529.160156 1808.261719 3530.644531 1821.886719 3530.644531 1835.566406 C 3530.644531 1849.191406 3529.160156 1862.867188 3526.882812 1873.101562 C 3525.660156 1878.21875 3524.441406 1882.472656 3523.433594 1885.464844 C 3522.375 1888.449219 3521.632812 1890.171875 3521.632812 1890.171875 C 3521.632812 1890.171875 3520.890625 1888.449219 3519.828125 1885.464844 C 3518.824219 1882.472656 3517.601562 1878.21875 3516.382812 1873.101562 C 3514.105469 1862.867188 3512.621094 1849.242188 3512.621094 1835.566406 C 3512.621094 1821.941406 3514.15625 1808.261719 3516.4375 1798.03125 C 3517.65625 1792.914062 3518.875 1788.65625 3519.882812 1785.671875 C 3520.890625 1782.628906 3521.632812 1780.960938 3521.632812 1780.960938 Z M 3521.632812 1780.960938 " fill-opacity="1" fill-rule="evenodd"/><path fill="#fcffb8" d="M 3467.027344 1835.347656 C 3467.027344 1835.347656 3468.777344 1834.605469 3471.851562 1833.609375 C 3474.976562 1832.617188 3479.378906 1831.425781 3484.628906 1830.28125 C 3495.230469 1828.042969 3509.332031 1826.601562 3523.488281 1826.554688 C 3537.644531 1826.554688 3551.746094 1827.996094 3562.347656 1830.234375 C 3567.648438 1831.371094 3571.996094 1832.566406 3575.125 1833.5625 C 3578.199219 1834.554688 3579.949219 1835.300781 3579.949219 1835.300781 C 3579.949219 1835.300781 3578.199219 1836.046875 3575.125 1837.039062 C 3571.996094 1838.035156 3567.597656 1839.230469 3562.347656 1840.367188 C 3551.746094 1842.605469 3537.644531 1844.046875 3523.488281 1844.046875 C 3509.332031 1844.046875 3495.230469 1842.558594 3484.628906 1840.367188 C 3479.324219 1839.230469 3474.976562 1838.035156 3471.851562 1837.039062 C 3468.777344 1836.097656 3467.027344 1835.347656 3467.027344 1835.347656 Z M 3467.027344 1835.347656 " fill-opacity="1" fill-rule="evenodd"/><path fill="#fcffb8" d="M 3497.773438 1809.058594 C 3497.773438 1809.058594 3499.101562 1809.414062 3501.113281 1810.230469 C 3503.183594 1811.039062 3505.941406 1812.3125 3509.015625 1814.09375 C 3515.109375 1817.65625 3522.164062 1823.402344 3528.046875 1830.167969 C 3533.984375 1836.933594 3538.808594 1844.667969 3541.460938 1851.230469 C 3542.839844 1854.535156 3543.738281 1857.433594 3544.269531 1859.625 C 3544.800781 1861.761719 3544.960938 1863.132812 3544.960938 1863.132812 C 3544.960938 1863.132812 3543.632812 1862.828125 3541.621094 1861.960938 C 3539.550781 1861.152344 3536.792969 1859.878906 3533.71875 1858.097656 C 3527.621094 1854.535156 3520.570312 1848.789062 3514.738281 1842.023438 C 3508.855469 1835.257812 3504.03125 1827.523438 3501.328125 1820.960938 C 3499.949219 1817.65625 3499.046875 1814.757812 3498.464844 1812.621094 C 3497.933594 1810.382812 3497.773438 1809.058594 3497.773438 1809.058594 Z M 3497.773438 1809.058594 " fill-opacity="1" fill-rule="evenodd"/><path fill="#fcffb8" d="M 3544.960938 1809.058594 C 3544.960938 1809.058594 3544.800781 1810.429688 3544.269531 1812.574219 C 3543.738281 1814.710938 3542.785156 1817.664062 3541.511719 1820.921875 C 3538.808594 1827.492188 3534.089844 1835.230469 3528.257812 1842 C 3522.480469 1848.777344 3515.484375 1854.53125 3509.4375 1858.09375 C 3506.363281 1859.875 3503.660156 1861.152344 3501.59375 1861.960938 C 3499.628906 1862.777344 3498.304688 1863.132812 3498.304688 1863.132812 C 3498.304688 1863.132812 3498.464844 1861.761719 3498.996094 1859.617188 C 3499.523438 1857.484375 3500.425781 1854.53125 3501.75 1851.222656 C 3504.402344 1844.652344 3509.171875 1836.914062 3515.058594 1830.136719 C 3520.890625 1823.367188 3527.835938 1817.613281 3533.878906 1814.046875 C 3536.953125 1812.265625 3539.65625 1810.992188 3541.726562 1810.175781 C 3543.632812 1809.367188 3544.960938 1809.058594 3544.960938 1809.058594 Z M 3544.960938 1809.058594 " fill-opacity="1" fill-rule="evenodd"/><path fill="#fcffb8" d="M 3314.871094 590.226562 C 3314.871094 590.226562 3315.613281 591.953125 3316.675781 594.941406 C 3317.679688 597.925781 3318.898438 602.183594 3320.121094 607.300781 C 3322.398438 617.53125 3323.882812 631.15625 3323.882812 644.835938 C 3323.882812 658.460938 3322.398438 672.136719 3320.121094 682.371094 C 3318.898438 687.484375 3317.679688 691.742188 3316.675781 694.734375 C 3315.613281 697.71875 3314.871094 699.441406 3314.871094 699.441406 C 3314.871094 699.441406 3314.128906 697.71875 3313.070312 694.734375 C 3312.0625 691.742188 3310.84375 687.484375 3309.621094 682.371094 C 3307.34375 672.136719 3305.859375 658.511719 3305.859375 644.835938 C 3305.859375 631.210938 3307.394531 617.53125 3309.621094 607.300781 C 3310.84375 602.183594 3312.0625 597.925781 3313.070312 594.941406 C 3314.074219 591.953125 3314.871094 590.226562 3314.871094 590.226562 Z M 3314.871094 590.226562 " fill-opacity="1" fill-rule="evenodd"/><path fill="#fcffb8" d="M 3260.265625 644.835938 C 3260.265625 644.835938 3262.015625 644.066406 3265.089844 643.042969 C 3268.21875 642.019531 3272.617188 640.789062 3277.867188 639.613281 C 3288.46875 637.304688 3302.570312 635.820312 3316.726562 635.820312 C 3330.882812 635.820312 3344.984375 637.304688 3355.585938 639.613281 C 3360.886719 640.789062 3365.234375 642.019531 3368.363281 643.042969 C 3371.4375 644.066406 3373.1875 644.835938 3373.1875 644.835938 C 3373.1875 644.835938 3371.4375 645.601562 3368.363281 646.625 C 3365.234375 647.648438 3360.835938 648.878906 3355.585938 650.054688 C 3344.984375 652.363281 3330.882812 653.847656 3316.726562 653.847656 C 3302.570312 653.847656 3288.46875 652.308594 3277.867188 650.007812 C 3272.566406 648.828125 3268.21875 647.601562 3265.089844 646.574219 C 3262.015625 645.601562 3260.265625 644.835938 3260.265625 644.835938 Z M 3260.265625 644.835938 " fill-opacity="1" fill-rule="evenodd"/><path fill="#fcffb8" d="M 3291.015625 618.855469 C 3291.015625 618.855469 3292.339844 619.210938 3294.355469 620.019531 C 3296.421875 620.824219 3299.179688 622.082031 3302.253906 623.84375 C 3308.351562 627.371094 3315.402344 633.058594 3321.285156 639.761719 C 3327.222656 646.460938 3332.046875 654.117188 3334.699219 660.617188 C 3336.078125 663.886719 3336.980469 666.761719 3337.507812 668.929688 C 3338.039062 671.046875 3338.199219 672.402344 3338.199219 672.402344 C 3338.199219 672.402344 3336.871094 672.101562 3334.859375 671.292969 C 3332.789062 670.488281 3330.035156 669.226562 3326.957031 667.46875 C 3320.863281 663.941406 3313.8125 658.246094 3307.980469 651.546875 C 3302.09375 644.851562 3297.269531 637.195312 3294.566406 630.695312 C 3293.1875 627.417969 3292.285156 624.550781 3291.703125 622.433594 C 3291.171875 620.21875 3291.015625 618.855469 3291.015625 618.855469 Z M 3291.015625 618.855469 " fill-opacity="1" fill-rule="evenodd"/><path fill="#fcffb8" d="M 3338.726562 618.855469 C 3338.726562 618.855469 3338.570312 620.21875 3338.039062 622.335938 C 3337.507812 624.457031 3336.554688 627.375 3335.230469 630.605469 C 3332.472656 637.109375 3327.753906 644.769531 3321.871094 651.476562 C 3315.984375 658.183594 3308.933594 663.882812 3302.785156 667.414062 C 3299.707031 669.175781 3296.953125 670.4375 3294.882812 671.242188 C 3292.871094 672.050781 3291.542969 672.402344 3291.542969 672.402344 C 3291.542969 672.402344 3291.703125 671.039062 3292.234375 668.925781 C 3292.761719 666.804688 3293.664062 663.882812 3295.042969 660.605469 C 3297.746094 654.101562 3302.519531 646.433594 3308.457031 639.730469 C 3314.394531 633.023438 3321.390625 627.328125 3327.542969 623.796875 C 3330.617188 622.03125 3333.375 620.769531 3335.441406 619.964844 C 3337.402344 619.210938 3338.726562 618.855469 3338.726562 618.855469 Z M 3338.726562 618.855469 " fill-opacity="1" fill-rule="evenodd"/><path fill="#fcffb8" d="M 3631.851562 1020.183594 C 3631.851562 1020.183594 3633.761719 1024.527344 3635.246094 1031.039062 C 3636.730469 1037.546875 3637.683594 1046.226562 3637.738281 1054.910156 C 3637.738281 1063.59375 3636.78125 1072.273438 3635.296875 1078.785156 C 3633.8125 1085.292969 3631.90625 1089.636719 3631.90625 1089.636719 C 3631.90625 1089.636719 3629.996094 1085.292969 3628.511719 1078.785156 C 3627.027344 1072.273438 3626.074219 1063.59375 3626.074219 1054.910156 C 3626.074219 1046.226562 3627.082031 1037.546875 3628.566406 1031.039062 C 3629.941406 1024.527344 3631.851562 1020.183594 3631.851562 1020.183594 Z M 3631.851562 1020.183594 " fill-opacity="1" fill-rule="evenodd"/><g clip-path="url(#af8168b3c6)"><path fill="#fcffb8" d="M 3596.914062 1054.957031 C 3596.914062 1054.957031 3601.421875 1053.125 3608.261719 1051.730469 C 3615.046875 1050.289062 3624.164062 1049.390625 3633.230469 1049.34375 C 3642.347656 1049.34375 3651.414062 1050.238281 3658.199219 1051.683594 C 3665.039062 1053.070312 3669.546875 1054.910156 3669.546875 1054.910156 C 3669.546875 1054.910156 3665.039062 1056.75 3658.199219 1058.140625 C 3651.414062 1059.582031 3642.296875 1060.476562 3633.230469 1060.476562 C 3624.109375 1060.476562 3615.046875 1059.535156 3608.261719 1058.089844 C 3601.421875 1056.796875 3596.914062 1054.957031 3596.914062 1054.957031 Z M 3596.914062 1054.957031 " fill-opacity="1" fill-rule="evenodd"/></g><path fill="#fcffb8" d="M 3616.53125 1038.210938 C 3616.53125 1038.210938 3619.816406 1039.128906 3623.738281 1041.414062 C 3627.609375 1043.699219 3632.167969 1047.359375 3635.933594 1051.683594 C 3639.75 1056.003906 3642.773438 1060.929688 3644.523438 1065.101562 C 3646.273438 1069.265625 3646.75 1072.671875 3646.75 1072.671875 C 3646.75 1072.671875 3643.460938 1071.753906 3639.539062 1069.46875 C 3635.617188 1067.183594 3631.109375 1063.519531 3627.398438 1059.199219 C 3623.632812 1054.882812 3620.558594 1049.953125 3618.808594 1045.734375 C 3617.058594 1041.613281 3616.53125 1038.210938 3616.53125 1038.210938 Z M 3616.53125 1038.210938 " fill-opacity="1" fill-rule="evenodd"/><path fill="#fcffb8" d="M 3647.277344 1038.210938 C 3647.277344 1038.210938 3646.800781 1041.609375 3645.050781 1045.769531 C 3643.304688 1049.984375 3640.226562 1054.90625 3636.464844 1059.21875 C 3632.699219 1063.535156 3628.195312 1067.1875 3624.269531 1069.472656 C 3620.347656 1071.757812 3617.058594 1072.671875 3617.058594 1072.671875 C 3617.058594 1072.671875 3617.539062 1069.273438 3619.285156 1065.109375 C 3621.035156 1060.894531 3624.109375 1055.976562 3627.875 1051.707031 C 3631.691406 1047.398438 3636.144531 1043.738281 3640.070312 1041.460938 C 3643.9375 1039.121094 3647.277344 1038.210938 3647.277344 1038.210938 Z M 3647.277344 1038.210938 " fill-opacity="1" fill-rule="evenodd"/><path fill="#fcffb8" d="M 2486.453125 1576.320312 C 2486.453125 1576.320312 2488.292969 1580.691406 2489.683594 1587.257812 C 2491.125 1593.816406 2492.019531 1602.5625 2492.066406 1611.308594 C 2492.066406 1620.058594 2491.171875 1628.804688 2489.730469 1635.367188 C 2488.339844 1641.925781 2486.5 1646.300781 2486.5 1646.300781 C 2486.5 1646.300781 2484.664062 1641.925781 2483.273438 1635.367188 C 2481.832031 1628.804688 2480.933594 1620.058594 2480.933594 1611.308594 C 2480.933594 1602.5625 2481.878906 1593.816406 2483.320312 1587.257812 C 2484.613281 1580.691406 2486.453125 1576.320312 2486.453125 1576.320312 Z M 2486.453125 1576.320312 " fill-opacity="1" fill-rule="evenodd"/><path fill="#fcffb8" d="M 2451.777344 1611.363281 C 2451.777344 1611.363281 2456.273438 1609.433594 2463.035156 1607.976562 C 2469.800781 1606.46875 2478.839844 1605.53125 2487.828125 1605.476562 C 2496.867188 1605.476562 2505.851562 1606.417969 2512.617188 1607.925781 C 2519.382812 1609.386719 2523.878906 1611.308594 2523.878906 1611.308594 C 2523.878906 1611.308594 2519.382812 1613.234375 2512.617188 1614.691406 C 2505.851562 1616.203125 2496.8125 1617.140625 2487.828125 1617.140625 C 2478.789062 1617.140625 2469.800781 1616.148438 2463.035156 1614.644531 C 2456.320312 1613.289062 2451.777344 1611.363281 2451.777344 1611.363281 Z M 2451.777344 1611.363281 " fill-opacity="1" fill-rule="evenodd"/><path fill="#fcffb8" d="M 2471.390625 1594.875 C 2471.390625 1594.875 2474.691406 1595.777344 2478.589844 1598.027344 C 2482.5 1600.277344 2487.011719 1603.882812 2490.8125 1608.132812 C 2494.613281 1612.390625 2497.65625 1617.246094 2499.378906 1621.351562 C 2501.15625 1625.453125 2501.609375 1628.804688 2501.609375 1628.804688 C 2501.609375 1628.804688 2498.3125 1627.902344 2494.410156 1625.652344 C 2490.457031 1623.402344 2485.992188 1619.796875 2482.246094 1615.546875 C 2478.492188 1611.289062 2475.398438 1606.4375 2473.671875 1602.28125 C 2471.847656 1598.226562 2471.390625 1594.875 2471.390625 1594.875 Z M 2471.390625 1594.875 " fill-opacity="1" fill-rule="evenodd"/><path fill="#fcffb8" d="M 2501.609375 1594.875 C 2501.609375 1594.875 2501.15625 1598.226562 2499.378906 1602.316406 C 2497.652344 1606.46875 2494.550781 1611.316406 2490.796875 1615.5625 C 2487.035156 1619.808594 2482.515625 1623.40625 2478.601562 1625.65625 C 2474.695312 1627.902344 2471.390625 1628.804688 2471.390625 1628.804688 C 2471.390625 1628.804688 2471.847656 1625.460938 2473.625 1621.363281 C 2475.351562 1617.210938 2478.453125 1612.363281 2482.210938 1608.164062 C 2486.019531 1603.917969 2490.488281 1600.320312 2494.402344 1598.070312 C 2498.308594 1595.777344 2501.609375 1594.875 2501.609375 1594.875 Z M 2501.609375 1594.875 " fill-opacity="1" fill-rule="evenodd"/><path fill="#fcffb8" d="M 2957.234375 1108.191406 C 2957.234375 1108.191406 2959.074219 1112.566406 2960.460938 1119.128906 C 2961.902344 1125.6875 2962.800781 1134.433594 2962.847656 1143.179688 C 2962.847656 1151.929688 2961.949219 1160.675781 2960.507812 1167.238281 C 2959.121094 1173.796875 2957.28125 1178.171875 2957.28125 1178.171875 C 2957.28125 1178.171875 2955.441406 1173.796875 2954.050781 1167.238281 C 2952.609375 1160.675781 2951.714844 1151.929688 2951.714844 1143.179688 C 2951.714844 1134.433594 2952.65625 1125.6875 2954.101562 1119.128906 C 2955.394531 1112.566406 2957.234375 1108.191406 2957.234375 1108.191406 Z M 2957.234375 1108.191406 " fill-opacity="1" fill-rule="evenodd"/><path fill="#fcffb8" d="M 2922.023438 1143.234375 C 2922.023438 1143.234375 2926.550781 1141.304688 2933.363281 1139.847656 C 2940.183594 1138.339844 2949.285156 1137.402344 2958.339844 1137.351562 C 2967.445312 1137.351562 2976.5 1138.289062 2983.316406 1139.800781 C 2990.128906 1141.257812 2994.65625 1143.179688 2994.65625 1143.179688 C 2994.65625 1143.179688 2990.128906 1145.105469 2983.316406 1146.5625 C 2976.5 1148.074219 2967.394531 1149.011719 2958.339844 1149.011719 C 2949.238281 1149.011719 2940.183594 1148.023438 2933.363281 1146.515625 C 2926.550781 1145.160156 2922.023438 1143.234375 2922.023438 1143.234375 Z M 2922.023438 1143.234375 " fill-opacity="1" fill-rule="evenodd"/><path fill="#fcffb8" d="M 2941.640625 1126.746094 C 2941.640625 1126.746094 2944.9375 1127.648438 2948.839844 1129.902344 C 2952.746094 1132.148438 2957.257812 1135.753906 2961.0625 1140.007812 C 2964.863281 1144.261719 2967.90625 1149.121094 2969.628906 1153.222656 C 2971.402344 1157.324219 2971.859375 1160.675781 2971.859375 1160.675781 C 2971.859375 1160.675781 2968.566406 1159.777344 2964.660156 1157.523438 C 2960.707031 1155.273438 2956.242188 1151.667969 2952.492188 1147.417969 C 2948.738281 1143.160156 2945.648438 1138.308594 2943.921875 1134.152344 C 2942.097656 1130.097656 2941.640625 1126.746094 2941.640625 1126.746094 Z M 2941.640625 1126.746094 " fill-opacity="1" fill-rule="evenodd"/><path fill="#fcffb8" d="M 2972.390625 1126.746094 C 2972.390625 1126.746094 2971.933594 1130.097656 2970.15625 1134.191406 C 2968.429688 1138.339844 2965.328125 1143.1875 2961.574219 1147.433594 C 2957.816406 1151.679688 2953.292969 1155.28125 2949.382812 1157.527344 C 2945.472656 1159.777344 2942.171875 1160.675781 2942.171875 1160.675781 C 2942.171875 1160.675781 2942.628906 1157.332031 2944.402344 1153.234375 C 2946.132812 1149.082031 2949.234375 1144.238281 2952.992188 1140.039062 C 2956.796875 1135.792969 2961.265625 1132.191406 2965.179688 1129.945312 C 2969.085938 1127.648438 2972.390625 1126.746094 2972.390625 1126.746094 Z M 2972.390625 1126.746094 " fill-opacity="1" fill-rule="evenodd"/><g clip-path="url(#9063dbfe7f)"><path fill="#fcffb8" d="M 3177.242188 1956.441406 C 3177.242188 1956.441406 3179.097656 1960.816406 3180.476562 1967.378906 C 3181.90625 1973.9375 3182.808594 1982.683594 3182.863281 1991.433594 C 3182.863281 2000.179688 3181.960938 2008.925781 3180.527344 2015.492188 C 3179.152344 2022.046875 3177.296875 2026.421875 3177.296875 2026.421875 C 3177.296875 2026.421875 3175.441406 2022.046875 3174.0625 2015.492188 C 3172.628906 2008.925781 3171.730469 2000.179688 3171.730469 1991.433594 C 3171.730469 1982.683594 3172.683594 1973.9375 3174.113281 1967.378906 C 3175.386719 1960.816406 3177.242188 1956.441406 3177.242188 1956.441406 Z M 3177.242188 1956.441406 " fill-opacity="1" fill-rule="evenodd"/></g><path fill="#fcffb8" d="M 3142.570312 1991.214844 C 3142.570312 1991.214844 3147.078125 1989.378906 3153.808594 1987.984375 C 3160.59375 1986.542969 3169.609375 1985.648438 3178.621094 1985.601562 C 3187.632812 1985.601562 3196.644531 1986.496094 3203.433594 1987.9375 C 3210.164062 1989.328125 3214.671875 1991.167969 3214.671875 1991.167969 C 3214.671875 1991.167969 3210.164062 1993.007812 3203.433594 1994.394531 C 3196.644531 1995.835938 3187.632812 1996.734375 3178.621094 1996.734375 C 3169.609375 1996.734375 3160.59375 1995.789062 3153.808594 1994.347656 C 3147.078125 1993.054688 3142.570312 1991.214844 3142.570312 1991.214844 Z M 3142.570312 1991.214844 " fill-opacity="1" fill-rule="evenodd"/><path fill="#fcffb8" d="M 3162.1875 1974.46875 C 3162.1875 1974.46875 3165.472656 1975.382812 3169.394531 1977.667969 C 3173.265625 1979.953125 3177.824219 1983.617188 3181.589844 1987.9375 C 3185.40625 1992.257812 3188.429688 1997.183594 3190.179688 2001.355469 C 3191.925781 2005.523438 3192.40625 2008.925781 3192.40625 2008.925781 C 3192.40625 2008.925781 3189.117188 2008.015625 3185.195312 2005.726562 C 3181.273438 2003.441406 3176.765625 1999.777344 3173.054688 1995.457031 C 3169.289062 1991.140625 3166.214844 1986.210938 3164.464844 1981.988281 C 3162.664062 1977.871094 3162.1875 1974.46875 3162.1875 1974.46875 Z M 3162.1875 1974.46875 " fill-opacity="1" fill-rule="evenodd"/><path fill="#fcffb8" d="M 3192.40625 1974.46875 C 3192.40625 1974.46875 3191.925781 1977.863281 3190.179688 1982.027344 C 3188.429688 1986.242188 3185.355469 1991.167969 3181.589844 1995.476562 C 3177.824219 1999.792969 3173.320312 2003.445312 3169.394531 2005.730469 C 3165.472656 2008.015625 3162.1875 2008.925781 3162.1875 2008.925781 C 3162.1875 2008.925781 3162.664062 2005.527344 3164.414062 2001.367188 C 3166.164062 1997.152344 3169.238281 1992.230469 3173 1987.964844 C 3176.765625 1983.65625 3181.273438 1979.996094 3185.195312 1977.714844 C 3189.117188 1975.378906 3192.40625 1974.46875 3192.40625 1974.46875 Z M 3192.40625 1974.46875 " fill-opacity="1" fill-rule="evenodd"/><path fill="#fcffb8" d="M 1636.34375 1618.203125 C 1636.34375 1618.203125 1638.273438 1622.542969 1639.730469 1629.054688 C 1641.234375 1635.5625 1642.175781 1644.25 1642.226562 1652.925781 C 1642.226562 1661.609375 1641.289062 1670.289062 1639.777344 1676.800781 C 1638.320312 1683.308594 1636.394531 1687.652344 1636.394531 1687.652344 C 1636.394531 1687.652344 1634.472656 1683.308594 1633.011719 1676.800781 C 1631.503906 1670.289062 1630.5625 1661.609375 1630.5625 1652.925781 C 1630.5625 1644.25 1631.554688 1635.5625 1633.0625 1629.054688 C 1634.417969 1622.542969 1636.34375 1618.203125 1636.34375 1618.203125 Z M 1636.34375 1618.203125 " fill-opacity="1" fill-rule="evenodd"/><path fill="#fcffb8" d="M 1601.40625 1652.976562 C 1601.40625 1652.976562 1605.902344 1651.136719 1612.667969 1649.746094 C 1619.429688 1648.304688 1628.46875 1647.40625 1637.457031 1647.359375 C 1646.496094 1647.359375 1655.480469 1648.257812 1662.246094 1649.699219 C 1669.011719 1651.085938 1673.507812 1652.925781 1673.507812 1652.925781 C 1673.507812 1652.925781 1669.011719 1654.765625 1662.246094 1656.15625 C 1655.480469 1657.597656 1646.441406 1658.492188 1637.457031 1658.492188 C 1628.417969 1658.492188 1619.429688 1657.550781 1612.667969 1656.109375 C 1605.949219 1654.8125 1601.40625 1652.976562 1601.40625 1652.976562 Z M 1601.40625 1652.976562 " fill-opacity="1" fill-rule="evenodd"/><path fill="#fcffb8" d="M 1621.019531 1636.226562 C 1621.019531 1636.226562 1624.320312 1637.144531 1628.222656 1639.429688 C 1632.121094 1641.714844 1636.640625 1645.378906 1640.441406 1649.699219 C 1644.242188 1654.019531 1647.285156 1658.945312 1649.007812 1663.117188 C 1650.785156 1667.285156 1651.238281 1670.6875 1651.238281 1670.6875 C 1651.238281 1670.6875 1647.941406 1669.773438 1644.039062 1667.484375 C 1640.085938 1665.199219 1635.621094 1661.535156 1631.875 1657.214844 C 1628.121094 1652.902344 1625.027344 1647.96875 1623.300781 1643.75 C 1621.476562 1639.628906 1621.019531 1636.226562 1621.019531 1636.226562 Z M 1621.019531 1636.226562 " fill-opacity="1" fill-rule="evenodd"/><path fill="#fcffb8" d="M 1651.769531 1636.226562 C 1651.769531 1636.226562 1651.3125 1639.625 1649.539062 1643.785156 C 1647.808594 1648 1644.707031 1652.925781 1640.957031 1657.238281 C 1637.195312 1661.550781 1632.675781 1665.207031 1628.761719 1667.492188 C 1624.855469 1669.773438 1621.550781 1670.6875 1621.550781 1670.6875 C 1621.550781 1670.6875 1622.007812 1667.289062 1623.789062 1663.128906 C 1625.511719 1658.914062 1628.613281 1653.992188 1632.367188 1649.726562 C 1636.125 1645.414062 1640.648438 1641.757812 1644.558594 1639.476562 C 1648.46875 1637.140625 1651.769531 1636.226562 1651.769531 1636.226562 Z M 1651.769531 1636.226562 " fill-opacity="1" fill-rule="evenodd"/><path fill="#fcffb8" d="M 679.679688 1194.078125 C 679.679688 1194.078125 681.519531 1198.417969 682.910156 1204.929688 C 684.351562 1211.4375 685.246094 1220.125 685.296875 1228.800781 C 685.296875 1237.484375 684.398438 1246.164062 682.957031 1252.675781 C 681.566406 1259.183594 679.726562 1263.527344 679.726562 1263.527344 C 679.726562 1263.527344 677.890625 1259.183594 676.5 1252.675781 C 675.058594 1246.164062 674.160156 1237.484375 674.160156 1228.800781 C 674.160156 1220.125 675.105469 1211.4375 676.546875 1204.929688 C 677.839844 1198.417969 679.679688 1194.078125 679.679688 1194.078125 Z M 679.679688 1194.078125 " fill-opacity="1" fill-rule="evenodd"/><path fill="#fcffb8" d="M 645.003906 1228.847656 C 645.003906 1228.847656 649.5 1227.015625 656.265625 1225.621094 C 663.027344 1224.179688 672.066406 1223.28125 681.054688 1223.234375 C 690.09375 1223.234375 699.078125 1224.132812 705.84375 1225.574219 C 712.609375 1226.960938 717.105469 1228.800781 717.105469 1228.800781 C 717.105469 1228.800781 712.609375 1230.640625 705.84375 1232.03125 C 699.078125 1233.472656 690.039062 1234.367188 681.054688 1234.367188 C 672.015625 1234.367188 663.027344 1233.425781 656.265625 1231.984375 C 649.5 1230.6875 645.003906 1228.847656 645.003906 1228.847656 Z M 645.003906 1228.847656 " fill-opacity="1" fill-rule="evenodd"/><path fill="#fcffb8" d="M 664.617188 1212.101562 C 664.617188 1212.101562 667.859375 1213.019531 671.691406 1215.304688 C 675.53125 1217.589844 679.960938 1221.253906 683.699219 1225.574219 C 687.429688 1229.894531 690.421875 1234.820312 692.117188 1238.992188 C 693.855469 1243.160156 694.308594 1246.5625 694.308594 1246.5625 C 694.308594 1246.5625 691.070312 1245.644531 687.234375 1243.359375 C 683.347656 1241.074219 678.964844 1237.410156 675.28125 1233.089844 C 671.589844 1228.773438 668.550781 1223.84375 666.863281 1219.625 C 665.070312 1215.503906 664.617188 1212.101562 664.617188 1212.101562 Z M 664.617188 1212.101562 " fill-opacity="1" fill-rule="evenodd"/><path fill="#fcffb8" d="M 694.839844 1212.101562 C 694.839844 1212.101562 694.382812 1215.5 692.605469 1219.660156 C 690.878906 1223.875 687.777344 1228.796875 684.023438 1233.113281 C 680.265625 1237.425781 675.742188 1241.082031 671.828125 1243.363281 C 667.921875 1245.648438 664.617188 1246.5625 664.617188 1246.5625 C 664.617188 1246.5625 665.074219 1243.164062 666.855469 1239.003906 C 668.578125 1234.789062 671.679688 1229.867188 675.433594 1225.601562 C 679.246094 1221.289062 683.714844 1217.632812 687.628906 1215.351562 C 691.535156 1213.015625 694.839844 1212.101562 694.839844 1212.101562 Z M 694.839844 1212.101562 " fill-opacity="1" fill-rule="evenodd"/><g clip-path="url(#7470425fc4)"><path fill="#fcffb8" d="M 37.152344 420.578125 C 37.152344 420.578125 38.988281 424.921875 40.371094 431.429688 C 41.808594 437.941406 42.699219 446.621094 42.746094 455.304688 C 42.746094 463.988281 41.855469 472.667969 40.417969 479.175781 C 38.988281 485.6875 37.152344 490.027344 37.152344 490.027344 C 37.152344 490.027344 35.324219 485.6875 33.941406 479.175781 C 32.503906 472.667969 31.613281 463.988281 31.613281 455.304688 C 31.613281 446.621094 32.550781 437.941406 33.988281 431.429688 C 35.324219 424.921875 37.152344 420.578125 37.152344 420.578125 Z M 37.152344 420.578125 " fill-opacity="1" fill-rule="evenodd"/></g><g clip-path="url(#4a96e5540b)"><path fill="#fcffb8" d="M 2.453125 455.351562 C 2.453125 455.351562 6.949219 453.515625 13.714844 452.121094 C 20.480469 450.679688 29.519531 449.785156 38.503906 449.738281 C 47.542969 449.738281 56.53125 450.632812 63.292969 452.074219 C 70.058594 453.464844 74.554688 455.304688 74.554688 455.304688 C 74.554688 455.304688 70.058594 457.144531 63.292969 458.53125 C 56.53125 459.972656 47.492188 460.871094 38.503906 460.871094 C 29.464844 460.871094 20.480469 459.925781 13.714844 458.484375 C 6.949219 457.191406 2.453125 455.351562 2.453125 455.351562 Z M 2.453125 455.351562 " fill-opacity="1" fill-rule="evenodd"/></g><path fill="#fcffb8" d="M 22.070312 438.605469 C 22.070312 438.605469 25.308594 439.515625 29.140625 441.800781 C 32.980469 444.085938 37.410156 447.738281 41.097656 452.054688 C 44.835938 456.367188 47.824219 461.289062 49.570312 465.503906 C 51.308594 469.664062 51.757812 473.0625 51.757812 473.0625 C 51.757812 473.0625 48.519531 472.152344 44.6875 469.867188 C 40.800781 467.582031 36.414062 463.929688 32.730469 459.613281 C 28.992188 455.296875 25.957031 450.378906 24.257812 446.164062 C 22.519531 442 22.070312 438.605469 22.070312 438.605469 Z M 22.070312 438.605469 " fill-opacity="1" fill-rule="evenodd"/><path fill="#fcffb8" d="M 52.289062 438.605469 C 52.289062 438.605469 51.832031 442 50.054688 446.164062 C 48.328125 450.378906 45.226562 455.296875 41.472656 459.613281 C 37.714844 463.929688 33.191406 467.582031 29.28125 469.867188 C 25.371094 472.152344 22.070312 473.0625 22.070312 473.0625 C 22.070312 473.0625 22.523438 469.664062 24.308594 465.503906 C 26.03125 461.289062 29.132812 456.367188 32.890625 452.101562 C 36.644531 447.738281 41.164062 444.085938 45.078125 441.800781 C 48.984375 439.515625 52.289062 438.605469 52.289062 438.605469 Z M 52.289062 438.605469 " fill-opacity="1" fill-rule="evenodd"/><path fill="#fcffb8" d="M 405.058594 1618.203125 C 405.058594 1618.203125 406.898438 1622.542969 408.289062 1629.054688 C 409.730469 1635.5625 410.625 1644.25 410.675781 1652.925781 C 410.675781 1661.609375 409.777344 1670.289062 408.335938 1676.800781 C 406.945312 1683.308594 405.105469 1687.652344 405.105469 1687.652344 C 405.105469 1687.652344 403.269531 1683.308594 401.878906 1676.800781 C 400.4375 1670.289062 399.539062 1661.609375 399.539062 1652.925781 C 399.539062 1644.25 400.484375 1635.5625 401.925781 1629.054688 C 403.21875 1622.542969 405.058594 1618.203125 405.058594 1618.203125 Z M 405.058594 1618.203125 " fill-opacity="1" fill-rule="evenodd"/><path fill="#fcffb8" d="M 370.382812 1652.976562 C 370.382812 1652.976562 374.878906 1651.136719 381.644531 1649.746094 C 388.40625 1648.304688 397.445312 1647.40625 406.433594 1647.359375 C 415.472656 1647.359375 424.457031 1648.257812 431.222656 1649.699219 C 437.988281 1651.085938 442.484375 1652.925781 442.484375 1652.925781 C 442.484375 1652.925781 437.988281 1654.765625 431.222656 1656.15625 C 424.457031 1657.597656 415.417969 1658.492188 406.433594 1658.492188 C 397.394531 1658.492188 388.40625 1657.550781 381.644531 1656.109375 C 374.878906 1654.8125 370.382812 1652.976562 370.382812 1652.976562 Z M 370.382812 1652.976562 " fill-opacity="1" fill-rule="evenodd"/><path fill="#fcffb8" d="M 389.996094 1636.226562 C 389.996094 1636.226562 393.238281 1637.144531 397.070312 1639.429688 C 400.910156 1641.714844 405.339844 1645.378906 409.078125 1649.699219 C 412.808594 1654.019531 415.800781 1658.945312 417.496094 1663.117188 C 419.242188 1667.285156 419.6875 1670.6875 419.6875 1670.6875 C 419.6875 1670.6875 416.449219 1669.773438 412.613281 1667.484375 C 408.726562 1665.199219 404.34375 1661.535156 400.660156 1657.214844 C 396.96875 1652.902344 393.933594 1647.96875 392.242188 1643.75 C 390.449219 1639.628906 389.996094 1636.226562 389.996094 1636.226562 Z M 389.996094 1636.226562 " fill-opacity="1" fill-rule="evenodd"/><path fill="#fcffb8" d="M 420.21875 1636.226562 C 420.21875 1636.226562 419.761719 1639.625 417.984375 1643.785156 C 416.257812 1648 413.15625 1652.925781 409.402344 1657.238281 C 405.644531 1661.550781 401.121094 1665.207031 397.207031 1667.492188 C 393.300781 1669.773438 389.996094 1670.6875 389.996094 1670.6875 C 389.996094 1670.6875 390.453125 1667.289062 392.234375 1663.128906 C 393.957031 1658.914062 397.058594 1653.992188 400.820312 1649.726562 C 404.625 1645.414062 409.09375 1641.757812 413.007812 1639.476562 C 416.914062 1637.140625 420.21875 1636.226562 420.21875 1636.226562 Z M 420.21875 1636.226562 " fill-opacity="1" fill-rule="evenodd"/><path fill="#ffdf57" d="M 2968.148438 1350.472656 C 2968.148438 1350.472656 2967.183594 1355.839844 2965.054688 1365.101562 C 2962.921875 1374.3125 2959.71875 1387.476562 2955.253906 1402.964844 C 2946.671875 1434.148438 2933.015625 1474.84375 2917.628906 1514.886719 C 2902.195312 1554.921875 2884.984375 1594.253906 2870.414062 1623.105469 C 2863.304688 1637.585938 2856.859375 1649.480469 2852.1875 1657.777344 C 2847.566406 1666.03125 2844.621094 1670.6875 2844.621094 1670.6875 C 2844.621094 1670.6875 2845.585938 1665.320312 2847.671875 1656.058594 C 2849.800781 1646.847656 2852.949219 1633.6875 2857.414062 1618.144531 C 2866 1586.964844 2879.65625 1546.265625 2895.089844 1506.226562 C 2910.574219 1466.238281 2927.789062 1426.90625 2942.355469 1398.007812 C 2949.464844 1383.527344 2955.914062 1371.632812 2960.535156 1363.328125 C 2965.253906 1355.128906 2968.148438 1350.472656 2968.148438 1350.472656 Z M 2968.148438 1350.472656 " fill-opacity="1" fill-rule="evenodd"/><path fill="#ffdf57" d="M 2746.011719 1448.550781 C 2746.011719 1448.550781 2751.578125 1449.5625 2761.148438 1451.839844 C 2770.714844 1454.066406 2784.332031 1457.457031 2800.429688 1462.113281 C 2832.71875 1471.121094 2874.988281 1485.285156 2916.542969 1501.226562 C 2958.101562 1517.21875 2998.949219 1534.929688 3028.96875 1549.90625 C 3044.050781 1557.191406 3056.402344 1563.816406 3065.007812 1568.578125 C 3073.613281 1573.335938 3078.421875 1576.320312 3078.421875 1576.320312 C 3078.421875 1576.320312 3072.855469 1575.308594 3063.285156 1573.078125 C 3053.722656 1570.851562 3040.101562 1567.511719 3024.007812 1562.8125 C 2991.714844 1553.851562 2949.445312 1539.632812 2907.9375 1523.695312 C 2866.386719 1507.707031 2825.535156 1489.941406 2795.519531 1474.964844 C 2780.429688 1467.679688 2768.082031 1461.054688 2759.480469 1456.292969 C 2750.820312 1451.535156 2746.011719 1448.550781 2746.011719 1448.550781 Z M 2746.011719 1448.550781 " fill-opacity="1" fill-rule="evenodd"/><path fill="#ffdf57" d="M 2865.828125 1406.667969 C 2865.828125 1406.667969 2867.699219 1409.707031 2870.683594 1415.167969 C 2873.667969 1420.632812 2877.761719 1428.480469 2882.316406 1438.042969 C 2884.589844 1442.800781 2887.070312 1448.011719 2889.496094 1453.523438 C 2891.976562 1459.039062 2894.605469 1464.859375 2897.132812 1470.984375 C 2902.238281 1483.128906 2907.398438 1496.234375 2912.308594 1509.386719 C 2917.160156 1522.59375 2921.761719 1535.851562 2925.757812 1548.449219 C 2929.703125 1561.050781 2933.242188 1572.839844 2935.871094 1583.109375 C 2938.65625 1593.332031 2940.574219 1601.984375 2941.890625 1608.058594 C 2943.203125 1614.128906 2943.761719 1617.671875 2943.761719 1617.671875 C 2943.761719 1617.671875 2941.890625 1614.632812 2938.90625 1609.171875 C 2935.921875 1603.707031 2931.773438 1595.859375 2927.273438 1586.300781 C 2922.625 1576.785156 2917.613281 1565.503906 2912.457031 1553.359375 C 2907.351562 1541.21875 2902.191406 1528.113281 2897.28125 1514.902344 C 2892.433594 1501.695312 2887.878906 1488.386719 2883.832031 1475.839844 C 2881.808594 1469.566406 2880.042969 1463.445312 2878.320312 1457.621094 C 2876.546875 1451.855469 2875.085938 1446.289062 2873.71875 1441.175781 C 2870.933594 1430.957031 2869.015625 1422.304688 2867.699219 1416.234375 C 2866.433594 1410.164062 2865.828125 1406.667969 2865.828125 1406.667969 Z M 2865.828125 1406.667969 " fill-opacity="1" fill-rule="evenodd"/><path fill="#ffdf57" d="M 3005.789062 1460.214844 C 3005.789062 1460.214844 3003 1462.441406 2997.9375 1466.089844 C 2992.921875 1469.730469 2985.679688 1474.847656 2976.765625 1480.566406 C 2972.304688 1483.453125 2967.492188 1486.589844 2962.328125 1489.679688 C 2957.160156 1492.820312 2951.734375 1496.210938 2946.015625 1499.5 C 2934.617188 1506.132812 2922.304688 1512.964844 2909.84375 1519.496094 C 2897.382812 1526.027344 2884.765625 1532.304688 2872.8125 1537.871094 C 2860.808594 1543.390625 2849.5625 1548.453125 2839.734375 1552.402344 C 2829.957031 1556.453125 2821.597656 1559.546875 2815.769531 1561.570312 C 2809.898438 1563.644531 2806.449219 1564.65625 2806.449219 1564.65625 C 2806.449219 1564.65625 2809.238281 1562.375 2814.25 1558.734375 C 2819.269531 1555.085938 2826.511719 1549.976562 2835.429688 1544.203125 C 2844.292969 1538.382812 2854.828125 1531.949219 2866.179688 1525.21875 C 2877.578125 1518.585938 2889.886719 1511.75 2902.347656 1505.21875 C 2914.808594 1498.6875 2927.421875 1492.464844 2939.378906 1486.84375 C 2945.351562 1484.007812 2951.179688 1481.480469 2956.75 1479 C 2962.273438 1476.515625 2967.59375 1474.289062 2972.457031 1472.3125 C 2982.234375 1468.261719 2990.542969 1465.175781 2996.417969 1463.097656 C 3002.34375 1461.226562 3005.789062 1460.214844 3005.789062 1460.214844 Z M 3005.789062 1460.214844 " fill-opacity="1" fill-rule="evenodd"/><path fill="#ffdf57" d="M 757.925781 1373.800781 C 757.925781 1373.800781 760.863281 1378.40625 765.625 1386.609375 C 770.332031 1394.808594 776.910156 1406.605469 784.207031 1421.03125 C 799.089844 1449.734375 816.757812 1488.816406 832.710938 1528.660156 C 848.609375 1568.5 862.734375 1609 871.699219 1640.082031 C 876.351562 1655.519531 879.699219 1668.628906 881.925781 1677.84375 C 884.152344 1687.058594 885.164062 1692.421875 885.164062 1692.421875 C 885.164062 1692.421875 882.175781 1687.816406 877.464844 1679.613281 C 872.757812 1671.414062 866.125 1659.617188 858.882812 1645.191406 C 844.003906 1616.535156 826.332031 1577.40625 810.433594 1537.566406 C 794.582031 1497.722656 780.457031 1457.175781 771.492188 1426.140625 C 766.839844 1410.703125 763.492188 1397.59375 761.265625 1388.378906 C 758.9375 1379.164062 757.925781 1373.800781 757.925781 1373.800781 Z M 757.925781 1373.800781 " fill-opacity="1" fill-rule="evenodd"/><path fill="#ffdf57" d="M 661.4375 1596.996094 C 661.4375 1596.996094 666.199219 1593.957031 674.753906 1589.101562 C 683.316406 1584.246094 695.574219 1577.464844 710.5625 1569.980469 C 740.394531 1554.648438 781.0625 1536.378906 822.386719 1519.835938 C 863.765625 1503.339844 905.804688 1488.617188 938.015625 1479.207031 C 954.070312 1474.347656 967.640625 1470.808594 977.160156 1468.425781 C 986.683594 1466.046875 992.253906 1464.988281 992.253906 1464.988281 C 992.253906 1464.988281 987.496094 1468.023438 978.9375 1472.878906 C 970.375 1477.738281 958.117188 1484.515625 943.132812 1492.003906 C 913.300781 1507.335938 872.632812 1525.605469 831.304688 1542.097656 C 789.925781 1558.542969 747.835938 1573.265625 715.628906 1582.675781 C 699.574219 1587.53125 686 1591.074219 676.480469 1593.453125 C 667.011719 1595.933594 661.4375 1596.996094 661.4375 1596.996094 Z M 661.4375 1596.996094 " fill-opacity="1" fill-rule="evenodd"/><path fill="#ffdf57" d="M 720.816406 1484.601562 C 720.816406 1484.601562 724.261719 1485.5625 730.195312 1487.585938 C 736.074219 1489.554688 744.488281 1492.539062 754.320312 1496.429688 C 759.234375 1498.347656 764.613281 1500.46875 770.136719 1502.898438 C 775.714844 1505.273438 781.59375 1507.75 787.621094 1510.480469 C 799.6875 1515.941406 812.359375 1522.003906 824.925781 1528.320312 C 837.503906 1534.691406 849.917969 1541.308594 861.421875 1547.828125 C 872.878906 1554.398438 883.527344 1560.667969 892.449219 1566.378906 C 901.417969 1571.988281 908.765625 1576.992188 913.839844 1580.582031 C 918.910156 1584.171875 921.746094 1586.390625 921.746094 1586.390625 C 921.746094 1586.390625 918.300781 1585.433594 912.367188 1583.460938 C 906.488281 1581.488281 898.074219 1578.554688 888.238281 1574.617188 C 878.355469 1570.773438 867 1565.921875 854.941406 1560.570312 C 842.875 1555.109375 830.203125 1549.042969 817.632812 1542.675781 C 805.058594 1536.308594 792.695312 1529.632812 781.183594 1523.164062 C 775.40625 1519.933594 769.933594 1516.644531 764.710938 1513.566406 C 759.492188 1510.53125 754.625 1507.445312 750.113281 1504.617188 C 741.140625 1499.007812 733.792969 1494.003906 728.726562 1490.414062 C 723.605469 1486.824219 720.816406 1484.601562 720.816406 1484.601562 Z M 720.816406 1484.601562 " fill-opacity="1" fill-rule="evenodd"/><path fill="#ffdf57" d="M 860.246094 1428.9375 C 860.246094 1428.9375 859.738281 1432.484375 858.519531 1438.558594 C 857.300781 1444.640625 855.46875 1453.347656 852.828125 1463.582031 C 851.507812 1468.691406 850.136719 1474.265625 848.410156 1480.089844 C 846.734375 1485.917969 845.058594 1492.09375 843.128906 1498.375 C 839.269531 1510.988281 834.847656 1524.359375 830.175781 1537.628906 C 825.453125 1550.898438 820.472656 1564.0625 815.496094 1576.273438 C 810.464844 1588.476562 805.585938 1599.820312 801.066406 1609.394531 C 796.648438 1619.019531 792.582031 1626.917969 789.6875 1632.441406 C 786.792969 1637.960938 784.964844 1641 784.964844 1641 C 784.964844 1641 785.472656 1637.453125 786.691406 1631.324219 C 787.914062 1625.246094 789.742188 1616.535156 792.382812 1606.304688 C 794.921875 1596.023438 798.269531 1584.125 802.082031 1571.511719 C 805.941406 1558.898438 810.363281 1545.527344 815.085938 1532.257812 C 819.8125 1518.988281 824.84375 1505.871094 829.820312 1493.613281 C 832.257812 1487.484375 834.847656 1481.613281 837.238281 1476.089844 C 839.570312 1470.515625 842.007812 1465.300781 844.246094 1460.492188 C 848.664062 1450.867188 852.730469 1442.964844 855.625 1437.445312 C 858.417969 1432.027344 860.246094 1428.9375 860.246094 1428.9375 Z M 860.246094 1428.9375 " fill-opacity="1" fill-rule="evenodd"/></svg>